<svg height="504pt" viewBox="-34 0 504 504.32954" width="504pt" xmlns="http://www.w3.org/2000/svg"><path d="m403.050781 445.574219h-12.675781l-121.621094-268.589844h-100.71875l-121.621094 268.589844h-12.675781c-13.90625 0-25.179687 11.273437-25.179687 25.179687 0 13.910156 11.273437 25.183594 25.179687 25.183594h92.328125c13.90625 0 25.179688-11.273438 25.179688-25.183594 0-13.90625-11.273438-25.179687-25.179688-25.179687h-6.128906l26.355469-58.835938h144.199219l26.355468 58.835938h-6.125c-13.90625 0-25.179687 11.273437-25.179687 25.179687 0 13.910156 11.273437 25.183594 25.179687 25.183594h92.328125c13.90625 0 25.179688-11.273438 25.179688-25.183594 0-13.90625-11.273438-25.179687-25.179688-25.179687zm-230.484375-117.589844 33.238282-60.855469 12.589843-22.996094 45.828125 83.851563zm0 0" fill="#f44335"/><path d="m403.050781 445.574219h-12.675781l-121.621094-268.589844h-25.179687l121.621093 268.589844h12.675782c13.90625 0 25.179687 11.273437 25.179687 25.179687 0 13.910156-11.273437 25.183594-25.179687 25.183594h25.179687c13.90625 0 25.179688-11.273438 25.179688-25.183594 0-13.90625-11.273438-25.179687-25.179688-25.179687zm0 0" fill="#c52828"/><path d="m327.425781 87.089844c-10.8125-21.917969-32.976562-35.945313-57.410156-36.34375-4.664063-.179688-9.328125.101562-13.933594.839844h-.335937c-18.382813 2.6875-35.167969 12.253906-37.351563 33.070312-.691406-8.703125-4.832031-16.773438-11.5-22.410156-11.558593-8.523438-25.800781-12.601563-40.121093-11.5-2.871094.074218-5.730469.355468-8.558594.839844-16.75 2.421874-31.894532 11.273437-42.21875 24.679687-2.609375 3.347656-4.835938 6.980469-6.632813 10.824219-7.492187 17.863281-8.53125 37.777344-2.9375 56.320312 2.652344 10.585938 6.6875 20.773438 12.003907 30.300782.585937 1.09375 1.257812 2.183593 1.929687 3.273437 12.085937 20.566406 31.726563 41.714844 56.066406 44.738281h83.9375c25.683594-3.191406 46.078125-26.523437 57.996094-48.011718 13.851563-24.925782 21.824219-59.929688 9.066406-86.621094zm0 0" fill="#ffeb3a"/><path d="m318.359375 173.710938c-11.917969 21.488281-32.3125 44.820312-57.996094 48.011718h-23.082031c25.683594-3.191406 45.996094-26.523437 57.996094-48.011718 13.851562-24.925782 21.824218-59.929688 8.980468-86.621094-9.179687-19.089844-27.222656-32.386719-48.175781-35.503906 4.605469-.738282 9.269531-1.019532 13.933594-.839844 24.433594.398437 46.597656 14.425781 57.410156 36.34375 12.757813 26.691406 4.785157 61.695312-9.066406 86.621094zm0 0" fill="#fec108"/><path d="m172.558594 336.410156h91.65625c2.960937 0 5.707031-1.5625 7.21875-4.109375 1.511718-2.546875 1.570312-5.703125.148437-8.304687l-45.835937-83.882813c-1.597656-2.519531-4.375-4.046875-7.359375-4.046875s-5.761719 1.527344-7.363281 4.046875l-45.835938 83.882813c-1.417969 2.601562-1.359375 5.757812.152344 8.304687 1.511718 2.546875 4.253906 4.109375 7.21875 4.109375zm45.835937-74.777344 31.675781 57.992188h-63.359374zm0 0"/><path d="m33.738281 504.328125h92.328125c17.28125.019531 31.753906-13.085937 33.445313-30.285156 1.691406-17.195313-9.945313-32.871094-26.898438-36.222657l19.121094-42.691406h133.320313l19.121093 42.691406c-16.953125 3.351563-28.59375 19.027344-26.898437 36.222657 1.691406 17.199219 16.164062 30.304687 33.445312 30.285156h92.328125c18.542969 0 33.574219-15.03125 33.574219-33.574219 0-18.539062-15.03125-33.570312-33.574219-33.570312h-7.234375l-99.75-222.949219c12.003906-10.242187 22.042969-22.585937 29.628906-36.425781 14.144532-25.417969 24.015626-63.554688 9.285157-94.34375-12.117188-24.800782-37.132813-40.695313-64.730469-41.128906-13.308594-.695313-26.5625 2.148437-38.417969 8.234374 2.378907-9.167968 7.035157-17.585937 13.539063-24.472656 8.277344-7.628906 19.691406-10.859375 30.738281-8.695312 4.386719.21875 8.203125-2.980469 8.75-7.339844s-2.363281-8.402344-6.671875-9.273438c-16.082031-2.839843-32.566406 2.066407-44.484375 13.238282-10.921875 11.734375-18.121094 26.449218-20.679687 42.277344-13.253907-10.210938-29.804688-15.179688-46.492188-13.949219-22.390625.414062-43.382812 10.96875-57.074219 28.6875-2.996093 3.84375-5.558593 8.003906-7.632812 12.414062-8.300781 19.625-9.542969 41.523438-3.515625 61.960938 2.808594 11.273437 7.101562 22.125 12.757812 32.273437.640625 1.183594 1.359375 2.359375 2.089844 3.550782 7.261719 12.476562 16.601562 23.625 27.617188 32.960937l-99.800782 222.980469h-7.234375c-18.542969 0-33.574219 15.03125-33.574219 33.570312 0 18.542969 15.03125 33.574219 33.574219 33.574219zm0-50.359375h12.675781c3.304688-.003906 6.304688-1.949219 7.652344-4.96875l100.875-225.429688c6.382813 3.347657 13.304688 5.539063 20.453125 6.476563.34375.046875.6875.070313 1.03125.070313 4.425781-.019532 8.074219-3.46875 8.34375-7.882813s-2.929687-8.28125-7.320312-8.839844c-25.277344-3.136719-43.292969-29.484375-50.039063-40.949219-.554687-.898437-1.117187-1.804687-1.679687-2.804687-4.960938-8.90625-8.726563-18.429687-11.203125-28.320313-5.035156-16.640624-4.199219-34.507812 2.375-50.601562 1.574218-3.335938 3.523437-6.480469 5.808594-9.375 10.640624-13.753906 26.953124-21.925781 44.339843-22.210938 9.234375-.21875 39.082031.839844 42.808594 25.019532-.269531 5.996094-.222656 12 .140625 17.988281.363281 4.363281 4.019531 7.710937 8.394531 7.695313h.703125c2.230469-.175782 4.292969-1.238282 5.738282-2.945313 1.441406-1.707031 2.144531-3.917969 1.953124-6.144531-.347656-4.710938-.441406-9.441406-.285156-14.167969 0-.089844 0-.191406 0-.285156.09375-.246094.171875-.5.242188-.753907 2.703125-25.535156 33.574218-26.691406 43.023437-26.382812 21.296875.265625 40.640625 12.457031 50.066407 31.554688 11.988281 25.050781 2.746093 58.171874-8.8125 78.898437-6.714844 12.050781-25.179688 40.421875-51.710938 43.753906-4.59375.332031-8.0625 4.300781-7.773438 8.894531.289063 4.597657 4.222657 8.101563 8.824219 7.859376.351563 0 .707031-.023438 1.054688-.070313 7.140625-.949219 14.0625-3.136719 20.449219-6.46875l100.855468 225.421875c1.347656 3.019531 4.34375 4.964844 7.652344 4.96875h12.675781c9.269531 0 16.785157 7.515625 16.785157 16.785156 0 9.273438-7.515626 16.789063-16.785157 16.789063h-92.328125c-9.273437 0-16.789062-7.515625-16.789062-16.789063 0-9.269531 7.515625-16.785156 16.789062-16.785156h6.125c2.847656 0 5.5-1.441406 7.050782-3.828125 1.546874-2.390625 1.777343-5.402344.613281-8l-26.378907-58.828125c-1.351562-3.019531-4.347656-4.964844-7.65625-4.96875h-144.183593c-3.304688.003906-6.304688 1.949219-7.652344 4.96875l-26.363281 58.828125c-1.164063 2.597656-.933594 5.609375.613281 8 1.546875 2.386719 4.203125 3.828125 7.046875 3.828125h6.128906c9.269532 0 16.785156 7.515625 16.785156 16.785156 0 9.273438-7.515624 16.789063-16.785156 16.789063h-92.328125c-9.269531 0-16.785156-7.515625-16.785156-16.789063 0-9.269531 7.515625-16.785156 16.785156-16.785156zm0 0"/><path d="m193.214844 151.804688c2.90625 0 5.605468-1.507813 7.136718-3.980469 1.527344-2.476563 1.664063-5.5625.367188-8.164063l-8.394531-16.789062c-2.070313-4.148438-7.113281-5.832032-11.265625-3.757813-4.148438 2.070313-5.832032 7.113281-3.757813 11.261719l8.394531 16.789062c1.421876 2.847657 4.335938 4.644532 7.519532 4.640626zm0 0"/><path d="m239.824219 150.964844c1.992187.996094 4.296875 1.160156 6.410156.453125 2.113281-.703125 3.859375-2.21875 4.851563-4.210938l8.394531-16.789062c2.070312-4.148438.386719-9.191407-3.761719-11.261719-4.148438-2.074219-9.191406-.390625-11.261719 3.757812l-8.394531 16.789063c-.996094 1.992187-1.160156 4.296875-.453125 6.410156.703125 2.113281 2.21875 3.859375 4.214844 4.851563zm0 0"/></svg>