<svg height="511pt" viewBox="0 0 511 511.93601" width="511pt" xmlns="http://www.w3.org/2000/svg"><path d="m392.761719 260.289062c34.289062-35.761718 43.910156-88.542968 24.449219-134.105468-19.464844-45.558594-64.25-75.097656-113.792969-75.046875h-135.679688l-59.308593 154.109375-5.546876 14.335937v249.6875c0 18.851563 15.28125 34.132813 34.132813 34.132813h170.667969c58.011718.058594 109.714844-36.585938 128.875-91.34375 19.160156-54.757813 1.589844-115.640625-43.796875-151.769532zm-221.613281-40.707031 43.179687-100.179687h89.089844c30.632812 0 55.464843 24.832031 55.464843 55.46875 0 30.632812-24.832031 55.464844-55.464843 55.464844h-132.269531zm0 215.554688v-136.535157h136.535156c37.550781.042969 68.035156 30.375 68.265625 67.925782v.34375c-.050781 37.679687-30.585938 68.214844-68.265625 68.265625zm0 0" fill="#ff5722"/><path d="m444.214844 366.871094c-.097656 75.363281-61.167969 136.433594-136.53125 136.53125h-25.601563c75.367188-.097656 136.4375-61.167969 136.535157-136.53125.011718-.457032-.015626-.914063-.085938-1.367188-.355469-41.03125-19.238281-79.699218-51.371094-105.214844 34.289063-35.761718 43.914063-88.542968 24.449219-134.105468-19.460937-45.558594-64.25-75.097656-113.792969-75.046875h25.601563c49.542969-.050781 94.328125 29.488281 113.792969 75.046875 19.460937 45.5625 9.839843 98.34375-24.449219 134.105468 32.5 25.828126 51.445312 65.066407 51.453125 106.582032zm0 0" fill="#d84315"/><path d="m190.949219 196.203125c-7.511719 15.875-21.632813 27.632813-38.605469 32.136719-16.972656 4.507812-35.066406 1.304687-49.460938-8.757813-8.558593-5.894531-15.390624-13.964843-19.796874-23.378906zm0 0" fill="#607d8b"/><path d="m195.898438 162.070312-.34375 20.5625c-.953126 4.703126-2.503907 9.261719-4.605469 13.570313h-107.863281c-2.105469-4.308594-3.652344-8.867187-4.609376-13.570313l-.339843-20.5625zm0 0" fill="#fec108"/><path d="m196.75 102.335938v9.472656l-.257812 16.128906h-118.953126l-.253906-16.128906v-9.472656c0-32.988282 26.742188-59.734376 59.730469-59.734376 15.835937.039063 31.015625 6.328126 42.242187 17.496094 11.234376 11.179688 17.53125 26.386719 17.492188 42.238282zm0 0" fill="#fec108"/><path d="m196.492188 127.9375-.59375 34.132812h-117.761719l-.597657-34.132812zm0 0" fill="#607d8b"/><path d="m109.179688 99.671875s-71.277344 24.210937-90.613282 45.007813c-13.0625 14.503906-12.070312 36.808593 2.234375 50.097656 14.300781 13.285156 36.617188 12.636718 50.125-1.460938 19.328125-20.785156 38.253907-93.644531 38.253907-93.644531zm0 0" fill="#ffeb3a" fill-rule="evenodd"/><path d="m164.851562 99.671875s71.28125 24.210937 90.617188 45.007813c8.925781 9.3125 12.136719 22.714843 8.40625 35.0625-3.730469 12.347656-13.828125 21.726562-26.417969 24.539062-12.589843 2.8125-25.71875-1.375-34.351562-10.964844-19.324219-20.785156-38.253907-93.644531-38.253907-93.644531zm0 0" fill="#ffeb3a" fill-rule="evenodd"/><path d="m482.613281 73.304688c-8.164062 4.714843-18.601562 1.917968-23.3125-6.246094l-8.535156-14.78125c-4.710937-8.164063-1.914063-18.601563 6.246094-23.3125 8.164062-4.714844 18.601562-1.917969 23.316406 6.246094l8.53125 14.78125c4.714844 8.160156 1.917969 18.601562-6.246094 23.3125zm0 0" fill="#fec108"/><path d="m482.3125 234.90625c8.160156 4.714844 10.957031 15.152344 6.246094 23.316406l-8.535156 14.777344c-4.710938 8.164062-15.148438 10.960938-23.3125 6.246094-8.164063-4.710938-10.960938-15.148438-6.246094-23.3125l8.53125-14.777344c4.714844-8.164062 15.152344-10.960938 23.316406-6.25zm0 0" fill="#607d8b"/><path d="m30.65625 492.578125c-8.164062-4.710937-10.960938-15.148437-6.25-23.3125l8.535156-14.78125c4.710938-8.160156 15.148438-10.957031 23.3125-6.246094 8.164063 4.714844 10.960938 15.152344 6.246094 23.3125l-8.53125 14.78125c-4.714844 8.164063-15.152344 10.960938-23.3125 6.246094zm0 0" fill="#fec108"/><path d="m307.683594 290.070312h-136.535156c-4.710938 0-8.53125 3.820313-8.53125 8.53125v136.535157c0 4.710937 3.820312 8.53125 8.53125 8.53125h136.535156c42.414062 0 76.800781-34.382813 76.800781-76.796875 0-42.417969-34.386719-76.800782-76.800781-76.800782zm0 136.53125h-128v-119.464843h128c32.988281 0 59.734375 26.742187 59.734375 59.734375 0 32.988281-26.746094 59.730468-59.734375 59.730468zm0 0"/><path d="m44.703125 213.269531h1.664063c11.042968-.421875 21.519531-4.992187 29.335937-12.800781 4.398437 9.039062 10.769531 16.976562 18.648437 23.21875v245.582031c.027344 23.550781 19.113282 42.636719 42.664063 42.667969h170.667969c59.996094.066406 113.832031-36.835938 135.398437-92.820312 21.570313-55.984376 6.414063-119.472657-38.117187-159.675782 32.910156-39.382812 40.035156-94.269531 18.265625-140.75-21.769531-46.484375-68.488281-76.152344-119.8125-76.089844h-133.640625c-2.316406-1.296874-4.707032-2.457031-7.160156-3.472656v-2.160156c.015624-7.8125 5.320312-14.625 12.894531-16.554688l14.761719-3.667968c4.433593-1.253906 7.070312-5.796875 5.960937-10.269532-1.109375-4.46875-5.570313-7.253906-10.074219-6.285156l-14.824218 3.679688c-14.285157 3.652344-24.613282 16.070312-25.597657 30.785156-5.792969-.804688-11.667969-.804688-17.460937 0-.988282-14.730469-11.332032-27.15625-25.640625-30.796875l-14.761719-3.667969c-4.503906-.96875-8.964844 1.816406-10.074219 6.285156-1.113281 4.472657 1.527344 9.015626 5.960938 10.269532l14.703125 3.660156c7.597656 1.910156 12.929687 8.730469 12.953125 16.5625v2.125c-25.761719 10.445312-42.628907 35.445312-42.667969 63.242188v3.730468c-21.265625 9.042969-45.542969 21.085938-56.429688 32.808594-11.992187 12.890625-15.199218 31.660156-8.171874 47.804688 7.023437 16.140624 22.949218 26.582031 40.554687 26.589843zm62.445313-76.800781h59.734374c1.828126 5.511719 3.839844 11.273438 6.023438 17.066406h-71.816406c2.1875-5.792968 4.199218-11.554687 6.058594-17.066406zm86.1875-16.84375.164062.058594c21.757812 9.011718 46.429688 20.839844 55.695312 30.804687 9.960938 11.039063 9.210938 28.03125-1.679687 38.152344s-27.890625 9.625-38.171875-1.117187c-2.496094-2.824219-4.683594-5.914063-6.519531-9.207032-.09375-.160156-.160157-.316406-.261719-.460937-10.445312-20.625-18.824219-42.230469-25.011719-64.503907 4.878907 1.851563 10.246094 3.96875 15.785157 6.273438zm-105.726563 64.171875c2.226563-4.089844 4.386719-8.535156 6.46875-13.195313h85.859375c2.085938 4.660157 4.269531 9.105469 6.46875 13.183594-.347656 1.324219-.707031 2.65625-1.140625 3.882813h-96.496094c-.394531-1.210938-.792969-2.558594-1.144531-3.871094zm20.105469 28.765625c-3.21875-2.257812-6.15625-4.882812-8.757813-7.828125h76.117188c-2.632813 2.96875-5.605469 5.613281-8.855469 7.886719-17.640625 12.050781-40.871094 12.027344-58.488281-.058594zm90.621094-12.09375c7.816406 7.804688 18.292968 12.378906 29.332031 12.800781h1.703125c17.601562-.015625 33.523437-10.457031 40.546875-26.597656 7.023437-16.136719 3.820312-34.902344-8.160157-47.796875-4.125-4.164062-8.71875-7.835938-13.6875-10.9375h55.347657c25.917969 0 46.933593 21.011719 46.933593 46.933594 0 25.917968-21.015624 46.929687-46.933593 46.929687h-121.363281c6.816406-5.933593 12.355468-13.191406 16.28125-21.332031zm220.28125-25.597656c-.007813 29.644531-11.484376 58.140625-32.027344 79.519531-1.652344 1.734375-2.5 4.082031-2.339844 6.46875.164062 2.390625 1.324219 4.601563 3.195312 6.09375 42.558594 33.867187 59.039063 90.949219 41.070313 142.289063-17.964844 51.335937-66.441406 85.691406-120.832031 85.628906h-170.667969c-14.136719 0-25.597656-11.464844-25.597656-25.601563v-235.519531c16.589843 6.96875 35.304687 6.878906 51.832031-.25 1.289062 3.234375 4.417969 5.359375 7.898438 5.371094h132.269531c35.34375 0 64-28.65625 64-64 0-35.347656-28.65625-64-64-64h-87.210938c-3.679687-1.707032-7.332031-3.289063-10.921875-4.804688v-3.730468c.03125-15.519532-5.261718-30.582032-15.003906-42.667969h113.136719c63.59375.070312 115.128906 51.605469 115.199219 115.203125zm-281.601563-123.734375c27.011719-.03125 49.375 20.972656 51.039063 47.929687-10.316407-3.984375-18.160157-6.6875-20.480469-7.472656-2.972657-1.015625-6.265625-.3125-8.566407 1.828125-2.300781 2.140625-3.238281 5.371094-2.441406 8.410156.546875 2.089844 2.3125 8.722657 4.949219 17.585938h-49.023437c2.636718-8.863281 4.402343-15.496094 4.949218-17.585938.796875-3.039062-.140625-6.269531-2.441406-8.410156s-5.59375-2.84375-8.566406-1.828125c-2.296875.785156-10.136719 3.488281-20.480469 7.472656 1.722656-26.9375 24.066406-47.914062 51.0625-47.929687zm-112.195313 99.351562c9.257813-9.964843 33.9375-21.792969 55.714844-30.804687l.128906-.058594c5.5625-2.296875 10.9375-4.421875 15.800782-6.273438-6.1875 22.273438-14.5625 43.882813-25.007813 64.503907-.105469.144531-.171875.308593-.265625.460937-1.835937 3.292969-4.023437 6.382813-6.519531 9.207032-10.28125 10.742187-27.28125 11.238281-38.171875 1.117187s-11.640625-27.113281-1.679688-38.152344zm0 0"/><path d="m433.78125 69.054688 20.660156 5.53125c7.875 9.78125 21.710938 12.34375 32.566406 6.03125 10.855469-6.3125 15.472657-19.609376 10.867188-31.289063l5.476562-20.480469c.976563-3.007812.214844-6.304687-1.984374-8.574218-2.195313-2.273438-5.46875-3.140626-8.503907-2.261719-3.035156.878906-5.335937 3.363281-5.980469 6.457031l-1.03125 3.859375c-7.742187-10.277344-21.929687-13.167969-33.074218-6.734375-11.140625 6.433594-15.734375 20.167969-10.703125 32.007812l-3.832031-1.03125c-4.550782-1.234374-9.242188 1.457032-10.472657 6.011719-1.234375 4.550781 1.457031 9.242188 6.011719 10.472657zm27.503906-32.699219c4.078125-2.355469 9.296875-.957031 11.65625 3.125l8.53125 14.777343c1.550782 2.644532 1.5625 5.910157.039063 8.566407-1.527344 2.65625-4.355469 4.289062-7.417969 4.285156-3.0625-.007813-5.886719-1.65625-7.398438-4.316406l-8.535156-14.78125c-2.355468-4.082031-.957031-9.300781 3.125-11.65625zm0 0"/><path d="m497.285156 259.535156c5.054688-11.847656.460938-25.605468-10.695312-32.042968-11.160156-6.4375-25.367188-3.527344-33.097656 6.777343l-1.03125-3.855469c-1.238282-4.535156-5.902344-7.214843-10.441407-6-4.535156 1.214844-7.238281 5.867188-6.046875 10.410157l5.480469 20.480469c-4.652344 11.691406-.046875 25.027343 10.832031 31.351562 10.878906 6.328125 24.75 3.734375 32.609375-6.09375l20.652344-5.539062c3.015625-.722657 5.40625-3.027344 6.234375-6.015626.828125-2.992187-.03125-6.195312-2.246094-8.371093s-5.433594-2.972657-8.410156-2.089844zm-36.308594 12.324219c-4.074218-2.363281-5.464843-7.578125-3.105468-11.65625l8.53125-14.78125c1.726562-2.988281 5.082031-4.644531 8.503906-4.195313 3.421875.453126 6.238281 2.917969 7.128906 6.253907.597656 2.183593.289063 4.519531-.851562 6.476562l-8.535156 14.777344c-1.128907 1.964844-2.996094 3.398437-5.1875 3.984375-2.191407.585938-4.523438.277344-6.484376-.859375zm0 0"/><path d="m39.148438 503.402344c8.003906-.066406 15.515624-3.882813 20.292968-10.308594l1.066406 3.984375c1 3.730469 4.378907 6.324219 8.242188 6.324219.746094 0 1.492188-.101563 2.210938-.296875 4.546874-1.222657 7.25-5.894531 6.03125-10.445313l-5.476563-20.480468c4.613281-11.742188-.054687-25.089844-10.980469-31.394532-10.921875-6.308594-24.816406-3.675781-32.675781 6.1875l-20.480469 5.476563c-4.234375 1.039062-7.007812 5.097656-6.429687 9.417969.578125 4.320312 4.316406 7.511718 8.671875 7.402343.75 0 1.496094-.101562 2.21875-.300781l3.851562-1.03125c-4.992187 11.855469-.414062 25.574219 10.699219 32.050781 3.878906 2.242188 8.277344 3.417969 12.757813 3.414063zm12.84375-47.785156c1.960937 1.132812 3.390624 3 3.972656 5.191406.582031 2.191406.269531 4.523437-.867188 6.480468l-8.535156 14.78125c-2.371094 4.046876-7.566406 5.417969-11.628906 3.074219-4.0625-2.347656-5.46875-7.53125-3.148438-11.609375l8.53125-14.777344c1.128906-1.96875 2.996094-3.40625 5.183594-3.996093 2.191406-.589844 4.527344-.28125 6.492188.855469zm0 0"/></svg>