<svg height="512pt" viewBox="-30 0 511 512" width="512pt" xmlns="http://www.w3.org/2000/svg"><path d="m422.984375 365.910156c-9.523437-7.746094-22.53125-9.648437-33.875-4.949218-5.351563 2.1875-10.054687 5.714843-13.65625 10.238281-31.050781 40.101562-78.816406 63.703125-129.535156 64-4.246094.015625-8.488281-.183594-12.714844-.597657-87.464844-6.824218-156.5-84.308593-156.5-178.601562s69.035156-171.777344 156.5-178.601562c4.226563-.414063 8.46875-.613282 12.714844-.597657 50.71875.296875 98.484375 23.898438 129.535156 64 3.601563 4.523438 8.304687 8.050781 13.65625 10.238281 11.34375 4.699219 24.351563 2.796876 33.875-4.949218 14.613281-11.832032 16.972656-33.222656 5.292969-47.957032-43.8125-56.273437-111.042969-89.308593-182.359375-89.597656-4.09375 0-8.019531.082032-12.117188.339844h-.085937c-.085938.085938-.167969.085938-.167969 0-124.929687 6.742188-224.511719 115.027344-224.511719 247.125s99.582032 240.382812 224.511719 247.125c0-.085938.082031-.085938.167969 0 4.097656.257812 8.109375.339844 12.203125.339844 71.316406-.289063 138.546875-33.324219 182.359375-89.597656 11.679687-14.734376 9.320312-36.125-5.292969-47.957032zm0 0" fill="#e91e63"/><path d="m233.800781 8.875c4.097657-.257812 8.023438-.339844 12.117188-.339844 71.316406.289063 138.546875 33.324219 182.359375 89.597656 11.679687 14.734376 9.320312 36.125-5.292969 47.957032-9.523437 7.746094-22.53125 9.648437-33.875 4.949218 2.960937-1.285156 5.742187-2.949218 8.277344-4.949218 14.609375-11.832032 16.96875-33.222656 5.289062-47.957032-40.945312-52.523437-102.414062-85.011718-168.875-89.257812zm0 0" fill="#ad1457"/><path d="m428.277344 413.867188c-43.8125 56.273437-111.042969 89.308593-182.359375 89.597656-4.09375 0-8.105469-.082032-12.203125-.339844 66.488281-4.242188 127.984375-36.730469 168.960937-89.257812 11.679688-14.734376 9.320313-36.125-5.289062-47.957032-2.535157-2-5.316407-3.664062-8.277344-4.949218 11.34375-4.699219 24.351563-2.796876 33.875 4.949218 14.613281 11.832032 16.972656 33.222656 5.292969 47.957032zm0 0" fill="#ad1457"/><path d="m330.824219 268.203125c-2.953125-6.089844-5.078125-12.546875-6.3125-19.199219l-1.792969-19.117187-5.375-91.476563c-.210938-3.335937-2.347656-6.246094-5.46875-7.4375-3.125-1.195312-6.65625-.457031-9.039062 1.890625l-10.75 10.753907-9.984376 9.984374h-68.269531l-20.734375-20.738281c-2.382812-2.347656-5.914062-3.085937-9.039062-1.890625-3.121094 1.191406-5.261719 4.101563-5.46875 7.4375l-.339844 5.207032-5.035156 86.269531-1.792969 19.117187c-1.234375 6.652344-3.359375 13.109375-6.3125 19.199219-11.621094 22.71875-18.28125 47.644531-19.542969 73.128906 0 47.875 39.082032 87.382813 89.601563 93.101563 4.246093.515625 8.519531.769531 12.796875.765625 56.578125 0 102.402344-41.984375 102.402344-93.867188-1.261719-25.484375-7.921876-50.410156-19.542969-73.128906zm0 0" fill="#607d8b"/><path d="m350.367188 341.332031c0 51.882813-45.824219 93.867188-102.402344 93.867188-4.277344.003906-8.550782-.25-12.796875-.765625 50.515625-5.71875 89.597656-45.226563 89.597656-93.101563-1.261719-25.484375-7.921875-50.410156-19.539063-73.128906-2.957031-6.089844-5.078124-12.546875-6.316406-19.199219l-1.792968-19.117187-5.03125-86.269531 10.75-10.753907c2.382812-2.347656 5.914062-3.085937 9.039062-1.890625 3.121094 1.191406 5.257812 4.101563 5.46875 7.4375l5.375 91.476563 1.792969 19.117187c1.234375 6.652344 3.359375 13.109375 6.3125 19.199219 11.621093 22.71875 18.28125 47.644531 19.542969 73.128906zm0 0" fill="#37474f"/><path d="m245.882812 512c73.941407-.277344 143.660157-34.507812 189.09375-92.84375 14.535157-18.417969 11.589844-45.097656-6.613281-59.902344-8.765625-7.085937-19.996093-10.367187-31.195312-9.117187-11.199219 1.253906-21.429688 6.9375-28.410157 15.78125-6.867187 8.632812-14.570312 16.566406-23 23.679687 6.476563-11.105468 10.65625-23.394531 12.289063-36.148437.550781-1.113281.84375-2.339844.851563-3.582031 0-.214844.316406-21.4375 11.625-30.71875 6-4.363282 13.6875-5.6875 20.804687-3.585938 40.105469 8.046875 57.511719-17.355469 61.148437-31.890625.765626-2.964844-.117187-6.113281-2.3125-8.25-2.195312-2.132813-5.367187-2.929687-8.3125-2.082031-2.945312.847656-5.207031 3.210937-5.929687 6.1875-.265625 1.082031-6.921875 26.164062-41.25 19.308594-12.136719-3.199219-25.070313-.566407-34.988281 7.125-1.703125 1.425781-3.28125 3-4.707032 4.703124-3.441406-14.53125-8.359374-28.675781-14.679687-42.207031l5.65625 3.414063c2.617187 1.636718 5.914063 1.734375 8.621094.253906 2.707031-1.476562 4.40625-4.304688 4.441406-7.390625.035156-3.082031-1.597656-5.949219-4.269531-7.488281l-25.421875-15.257813h-.078125l-4.957032-3.054687 30.472657-18.289063c2.671875-1.539062 4.304687-4.402343 4.269531-7.488281s-1.734375-5.910156-4.441406-7.390625c-2.707032-1.480469-6.003906-1.382813-8.617188.253906l-15.566406 9.335938-4.546875-77.429688c-.402344-6.695312-4.683594-12.53125-10.949219-14.921875-6.265625-2.394531-13.347656-.894531-18.105468 3.828125l-18.238282 18.234375h-61.199218l-18.238282-18.234375c-4.757812-4.722656-11.84375-6.222656-18.105468-3.828125-6.265626 2.390625-10.546876 8.226563-10.949219 14.921875l-4.546875 77.4375-15.566406-9.335937c-4.03125-2.324219-9.179688-.988282-11.578126 3-2.394531 3.988281-1.15625 9.160156 2.789063 11.628906l30.472656 18.277344-5.007812 3.003906-25.457031 15.273438c-2.671876 1.542968-4.304688 4.40625-4.269532 7.492187s1.734375 5.910156 4.441406 7.390625c2.707032 1.476562 6.003907 1.378906 8.617188-.257812l5.648438-3.410157c-11.15625 22.757813-17.484376 47.582031-18.582032 72.90625.0625 19.601563 6.121094 38.710938 17.355469 54.769531-43.929687-33.121093-69.582031-85.085937-69.15625-140.101562 0-94.105469 72.066406-170.667969 160.648437-170.667969 48.117188.316407 93.421876 22.71875 122.882813 60.757813 6.980469 8.84375 17.210937 14.523437 28.410156 15.777344 11.195313 1.253906 22.429688-2.023438 31.195313-9.101563 18.207031-14.8125 21.152344-41.496094 6.613281-59.921875-45.4375-58.339844-115.15625-92.570312-189.101563-92.84375-135.304687 0-245.382812 114.839844-245.382812 256s110.078125 256 245.382812 256zm-73.121093-240.015625c2.648437-5.566406 4.671875-11.414063 6.023437-17.425781l13.84375-8.3125c.085938-.050782.128906-.136719.210938-.195313.746094-.488281 1.410156-1.09375 1.964844-1.792969.152343-.1875.316406-.359374.453124-.5625.136719-.207031.210938-.230468.289063-.367187.160156-.355469.289063-.722656.390625-1.101563.265625-.542968.464844-1.117187.597656-1.707031.113282-1.070312.113282-2.152343 0-3.222656-.132812-.59375-.332031-1.164063-.597656-1.707031-.101562-.378906-.230469-.746094-.390625-1.101563-.058594-.113281-.179687-.164062-.246094-.273437-.726562-.871094-1.527343-1.675782-2.398437-2.398438-.113282-.066406-.164063-.1875-.273438-.246094l-10.597656-6.289062 5.03125-86.367188 20.738281 20.734376c1.601563 1.597656 3.773438 2.488281 6.03125 2.484374h68.269531c2.261719 0 4.429688-.898437 6.03125-2.5l20.695313-20.71875 5.066406 86.367188-10.589843 6.355469c-.101563.058593-.160157.171875-.265626.238281-.871093.726562-1.679687 1.535156-2.40625 2.40625-.066406.113281-.1875.164062-.246093.273438-.160157.355468-.289063.726562-.390625 1.101562-.265625.542969-.464844 1.117188-.597656 1.707031-.113282 1.070313-.113282 2.152344 0 3.226563.132812.589844.332031 1.160156.597656 1.707031.101562.375.230468.742187.390625 1.097656.078125.136719.203125.242188.289062.367188.085938.128906.300781.375.453125.566406.554688.695313 1.21875 1.300781 1.964844 1.789063.082031.0625.125.144531.210938.199218l13.839843 8.308594c1.34375 5.996094 3.347657 11.824219 5.976563 17.375 11.042968 21.539062 17.417968 45.164062 18.710937 69.332031 0 43.734375-36.386719 79.839844-83.070312 84.730469-.90625.074219-1.808594.167969-2.714844.230469-1.484375.117187-2.984375.152343-4.488281.210937-1.5.058594-2.925782.113282-4.402344.128906-51.378906-.402343-93.054688-38.496093-93.054688-85.300781 1.273438-24.171875 7.632813-47.800781 18.660157-69.347656zm73.121093-254.917969c68.730469.285156 133.519532 32.136719 175.71875 86.382813 8.757813 11.078125 6.988282 27.128906-3.964843 36.035156-5.222657 4.222656-11.917969 6.171875-18.59375 5.421875-6.671875-.753906-12.761719-4.144531-16.914063-9.421875-32.691406-42.132813-82.921875-66.914063-136.246094-67.21875-97.996093 0-177.714843 84.214844-177.714843 187.734375s79.71875 187.734375 177.714843 187.734375h1.289063.792969c1.144531 0 2.261718-.128906 3.414062-.164063 2.101563-.066406 4.199219-.144531 6.28125-.289062.964844-.078125 1.929688-.152344 2.882813-.257812 47.984375-4.417969 91.996093-28.492188 121.601562-66.507813 4.152344-5.277344 10.25-8.671875 16.921875-9.421875 6.675782-.75 13.371094 1.207031 18.59375 5.429688 10.945313 8.90625 12.710938 24.953124 3.960938 36.027343-42.207032 54.25-107 86.101563-175.738282 86.382813-125.917968 0-228.316406-107.1875-228.316406-238.933594s102.398438-238.933594 228.316406-238.933594zm0 0"/><path d="m230.898438 264.535156c6.320312-.023437 12.402343-2.398437 17.066406-6.65625 7.476562 6.816406 18.277344 8.570313 27.523437 4.464844 9.246094-4.105469 15.191407-13.292969 15.144531-23.410156 0-4.714844-3.820312-8.535156-8.53125-8.535156-4.714843 0-8.535156 3.820312-8.535156 8.535156 0 4.710937-3.820312 8.53125-8.53125 8.53125-4.714844 0-8.535156-3.820313-8.535156-8.53125v-8.535156c4.710938 0 8.535156-3.820313 8.535156-8.53125 0-4.714844-3.824218-8.535157-8.535156-8.535157h-17.066406c-4.714844 0-8.535156 3.820313-8.535156 8.535157 0 4.710937 3.820312 8.53125 8.535156 8.53125v8.535156c0 4.710937-3.820313 8.53125-8.535156 8.53125-4.710938 0-8.53125-3.820313-8.53125-8.53125 0-4.714844-3.820313-8.535156-8.535157-8.535156-4.710937 0-8.53125 3.820312-8.53125 8.535156 0 14.136718 11.460938 25.601562 25.597657 25.601562zm0 0"/><path d="m213.832031 204.800781h8.535157c4.710937 0 8.53125-3.820312 8.53125-8.535156 0-4.710937-3.820313-8.53125-8.53125-8.53125h-8.535157c-4.710937 0-8.53125 3.820313-8.53125 8.53125 0 4.714844 3.820313 8.535156 8.53125 8.535156zm0 0"/><path d="m273.566406 204.800781h8.535156c4.710938 0 8.53125-3.820312 8.53125-8.535156 0-4.710937-3.820312-8.53125-8.53125-8.53125h-8.535156c-4.710937 0-8.53125 3.820313-8.53125 8.53125 0 4.714844 3.820313 8.535156 8.53125 8.535156zm0 0"/><path d="m212.980469 375.464844c4.484375-.007813 8.882812-1.234375 12.730469-3.539063 6.628906-4.042969 11.316406-10.625 12.972656-18.210937 2.835937-12.152344-2.34375-24.769532-12.902344-31.417969-10.886719-7.644531-18.742188-18.871094-22.1875-31.71875-1.105469-4.539063-5.652344-7.34375-10.203125-6.296875s-7.414063 5.554688-6.429687 10.117188c4.460937 17.300781 15.082031 32.375 29.867187 42.394531 4.351563 2.847656 6.457031 8.113281 5.265625 13.175781-.609375 3.007812-2.421875 5.636719-5.019531 7.277344-1.832031 1.113281-4.039063 1.421875-6.109375.855468-9.414063-2.675781-18.277344-7.011718-26.171875-12.800781-3.804688-2.632812-9.015625-1.757812-11.746094 1.980469-2.730469 3.734375-1.988281 8.96875 1.679687 11.792969 9.523438 6.976562 20.214844 12.195312 31.570313 15.410156 2.171875.632813 4.421875.964844 6.683594.980469zm0 0"/><path d="m270.152344 322.296875c-10.574219 6.660156-15.761719 19.300781-12.910156 31.46875 1.664062 7.566406 6.347656 14.128906 12.960937 18.160156 3.855469 2.308594 8.257813 3.53125 12.75 3.539063 2.277344 0 4.542969-.316406 6.734375-.9375 11.355469-3.214844 22.050781-8.433594 31.570312-15.410156 3.667969-2.828126 4.410157-8.058594 1.679688-11.792969-2.730469-3.738281-7.941406-4.617188-11.746094-1.980469-7.898437 5.792969-16.761718 10.125-26.179687 12.800781-2.066407.5625-4.273438.253907-6.101563-.855469-2.605468-1.652343-4.425781-4.296874-5.035156-7.320312-1.171875-5.050781.9375-10.296875 5.28125-13.132812 14.785156-10.019532 25.40625-25.097657 29.867188-42.394532.984374-4.5625-1.878907-9.070312-6.429688-10.117187s-9.097656 1.757812-10.203125 6.296875c-3.46875 12.839844-11.339844 24.050781-22.238281 31.675781zm0 0"/></svg>