<svg height="512pt" viewBox="0 0 512.00465 512" width="512pt" xmlns="http://www.w3.org/2000/svg"><path d="m332.804688 8.535156h-136.535157c-18.847656 0-34.132812 15.28125-34.132812 34.132813v426.667969c0 18.851562 15.285156 34.132812 34.132812 34.132812h136.535157c45.269531.015625 88.683593-17.960938 120.695312-49.972656 32.007812-32.007813 49.984375-75.425782 49.972656-120.695313v-153.597656c.011719-45.269531-17.964844-88.6875-49.972656-120.695313-32.011719-32.007812-75.425781-49.984374-120.695312-49.972656zm-68.265626 426.667969-34.132812-145.410156v-212.992188h102.398438c56.535156.046875 102.351562 45.867188 102.398437 102.402344v153.597656c-.046875 56.535157-45.863281 102.355469-102.398437 102.402344zm0 0" fill="#2296f3"/><path d="m332.804688 8.535156h-25.601563c45.269531-.011718 88.6875 17.964844 120.695313 49.972656 32.011718 32.007813 49.988281 75.425782 49.972656 120.695313v153.597656c.015625 45.269531-17.960938 88.6875-49.972656 120.695313-32.007813 32.011718-75.425782 49.988281-120.695313 49.972656h25.601563c45.269531.015625 88.683593-17.960938 120.695312-49.972656 32.007812-32.007813 49.984375-75.425782 49.972656-120.695313v-153.597656c.011719-45.269531-17.964844-88.6875-49.972656-120.695313-32.011719-32.007812-75.425781-49.984374-120.695312-49.972656zm0 0" fill="#1566c0"/><path d="m264.539062 349.785156v93.949219c0 7.597656-16.300781 14.335937-42.328124 19.03125l-.339844-1.964844v-99.667969c14.613281-2.125 28.929687-5.933593 42.667968-11.347656zm0 0" fill="#f44335"/><path d="m170.671875 366.167969v102.230469c-10.839844.597656-22.359375.9375-34.132813.9375-11.777343 0-23.296874-.339844-34.132812-.9375v-102.230469c10.496094.511719 21.84375.769531 34.132812.769531 12.285157 0 23.636719-.257812 34.132813-.769531zm0 0" fill="#f44335"/><path d="m222.210938 462.765625c-17.054688 2.863281-34.265626 4.746094-51.539063 5.632813v-102.230469c17.148437-.667969 34.246094-2.351563 51.199219-5.035157v99.667969zm0 0" fill="#fec108"/><path d="m102.40625 366.167969v102.230469c-17.277344-.886719-34.484375-2.769532-51.542969-5.632813l.339844-1.964844v-99.667969c16.953125 2.683594 34.050781 4.367188 51.203125 5.035157zm0 0" fill="#fec108"/><path d="m51.203125 361.132812v99.667969l-.339844 1.964844c-26.027343-4.695313-42.324219-11.433594-42.324219-19.03125v-93.949219c13.738282 5.414063 28.054688 9.222656 42.664063 11.347656zm0 0" fill="#f44335"/><path d="m264.539062 307.203125v42.582031c-13.738281 5.414063-28.054687 9.222656-42.667968 11.347656-16.953125 2.683594-34.050782 4.367188-51.199219 5.035157-10.496094.511719-21.847656.769531-34.132813.769531-12.289062 0-23.636718-.257812-34.132812-.769531-17.152344-.667969-34.25-2.351563-51.203125-5.035157-14.609375-2.125-28.925781-5.933593-42.664063-11.347656v-42.582031zm0 0" fill="#f44335"/><path d="m264.539062 307.203125c0-14.140625-57.308593-25.601563-128-25.601563-70.695312 0-128 11.460938-128 25.601563 0 14.136719 57.304688 25.597656 128 25.597656 70.691407 0 128-11.460937 128-25.597656zm0 0" fill="#ffeb3a"/><path d="m332.804688.00390625h-136.535157c-23.550781.02734375-42.636719 19.11328175-42.664062 42.66406275v230.691406c-8.347657-.289063-14.507813-.289063-17.066407-.289063-3.601562 0-14.441406.066407-28.511718.734376l-93.234375-100.414063c-2.078125-2.234375-5.1875-3.191406-8.160157-2.511719-2.972656.679688-5.359374 2.898438-6.253906 5.8125-.898437 2.914063-.171875 6.085938 1.902344 8.320313l83.773438 90.207031c-39.117188 3.261719-86.05078175 11.453125-86.05078175 31.984375v136.53125c0 23.410156 60.98828175 30.773437 101.82031275 33.078125.203125 0 .375.117188.582031.117188.203125 0 .210938-.058594.324219-.058594 16.613281.914062 29.761719.996094 33.808593.996094 2.628907 0 9.113282 0 17.917969-.304688 3.945313 19.980469 21.449219 34.394531 41.8125 34.441406h136.535157c98.925781-.109375 179.089843-80.277344 179.199218-179.203125v-153.597656c-.109375-98.925781-80.273437-179.09375-179.199218-179.19921875zm-62.457032 172.94531275c-1.65625-1.542969-3.859375-2.363281-6.125-2.28125-2.261718.082031-4.398437 1.0625-5.941406 2.722656l-19.34375 20.839844v-108.894531h93.867188c51.816406.0625 93.804687 42.050781 93.867187 93.867187v153.597656c-.0625 51.816407-42.050781 93.808594-93.867187 93.867188h-59.734376v-119.464844c0-11.417969-14.503906-19.023437-34.132812-24.082031v-63.8125l31.855469-34.304688c3.207031-3.453125 3.007812-8.847656-.445313-12.054687zm-253.277344 189.011719c8.398438 2.617187 16.949219 4.726562 25.601563 6.316406v84.136718c-9.160156-1.1875-17.921875-4.476562-25.601563-9.609374zm42.667969 9.078124c10.496094 1.410157 21.90625 2.476563 34.132813 3.210938v85.085938c-12.96875-.921876-24.398438-2.210938-34.132813-3.722657zm-42.667969-27.210937v-18.3125c34.132813 15.238281 108.75 15.820313 119.46875 15.820313 10.714844 0 85.332032-.582032 119.464844-15.820313v18.3125c-26.332031 9.632813-66.355468 14.574219-119.464844 14.574219-53.113281 0-93.132812-4.941406-119.46875-14.574219zm196.269532 27.210937v84.574219c-9.738282 1.511719-21.164063 2.800781-34.136719 3.722657v-85.085938c12.230469-.734375 23.640625-1.800781 34.136719-3.210938zm17.066406-2.761718c8.652344-1.589844 17.199219-3.699219 25.597656-6.316406v80.84375c-7.679687 5.132812-16.4375 8.421874-25.597656 9.609374zm-8.535156-88.75c-11.382813-1.96875-23.441406-3.335938-34.851563-4.265625l34.851563-37.5625zm-121.046875 11.605468 12.390625 13.347657c2.078125 2.234375 5.1875 3.191406 8.160156 2.511719 2.976562-.679688 5.359375-2.898438 6.257812-5.8125.894532-2.914063.167969-6.085938-1.90625-8.320313l-2.40625-2.5625c4.265626-.085937 8.679688-.136719 13.21875-.136719 4.539063 0 8.933594.050782 13.21875.136719l-2.40625 2.5625c-3.210937 3.453125-3.011718 8.855469.441407 12.066406 3.453125 3.207031 8.855469 3.007813 12.066406-.445312l12.390625-13.347657c48.101562 2.773438 75.945312 10.796876 82.773438 16.070313-8.335938 6.457031-48.296876 17.066406-118.46875 17.066406-70.167969 0-110.148438-10.609375-118.484376-17.066406 6.800782-5.273437 34.652344-13.296875 82.753907-16.070313zm10.113281 169.167969v-85.335937c8.234375.273437 16.691406.460937 25.601562.460937 8.90625 0 17.363282-.1875 25.597657-.460937v85.335937c-8.039063.324219-16.554688.5-25.597657.5-9.046874 0-17.5625-.175781-25.601562-.5zm384-127.5c-.097656 89.503907-72.628906 162.035157-162.132812 162.136719h-136.535157c-11.226562-.054688-21.105469-7.417969-24.371093-18.160156 40.832031-2.320313 101.171874-9.761719 101.171874-33.042969h59.734376c61.238281-.070313 110.863281-49.695313 110.933593-110.933594v-153.597656c-.070312-61.238281-49.695312-110.863281-110.933593-110.933594h-102.398438c-4.714844 0-8.535156 3.820313-8.535156 8.53125v135.808594l-51.199219 55.136719v-225.078125c0-14.136719 11.460937-25.597657 25.597656-25.597657h136.535157c89.503906.097657 162.035156 72.628907 162.132812 162.132813zm0 0"/></svg>