<svg height="503pt" viewBox="0 0 503.85836 503" width="503pt" xmlns="http://www.w3.org/2000/svg"><path d="m453.246094 82.515625 28.203125-28.199219 13.765625-13.765625v-31.726562h-98.875l-48.765625 48.765625c-3.152344 3.148437-4.925781 7.421875-4.925781 11.875 0 4.457031 1.773437 8.726562 4.925781 11.878906l38.523437 38.523438zm0 0" fill="#795548"/><path d="m300.234375 486.578125c-2.867187 5.5625-8.597656 9.058594-14.855469 9.0625h-243.410156c-18.519531-.054687-33.519531-15.054687-33.574219-33.570313v-419.675781c.054688-18.515625 15.054688-33.515625 33.574219-33.570312h226.621094c18.519531.054687 33.519531 15.054687 33.574218 33.570312-.054687 18.519531-15.054687 33.519531-33.574218 33.574219h-193.050782v142.691406h151.082032c8.347656.042969 15.410156 6.175782 16.621094 14.433594v.503906l-19.136719 52.207032h-148.566407v142.691406h152.257813zm0 0" fill="#8bc34a"/><path d="m495.464844 365.628906c0 71.847656-63.875 130.097656-142.6875 130.097656-4.367188 0-8.644532-.167968-12.84375-.503906-13.46875-1.089844-26.738282-3.96875-39.449219-8.5625-.082031 0-.167969-.082031-.25-.082031-30.035156-10.5-55.570313-30.96875-72.351563-58 0-.046875-.039062-.082031-.085937-.082031-11.550781-18.9375-17.675781-40.6875-17.710937-62.867188 1.148437-27.101562 5.949218-53.921875 14.269531-79.738281 3.105469-10.578125 6.714843-21.320313 10.746093-32.0625l209.5-1.007813 25.429688-.085937v.085937c16.03125 42.386719 25.433594 85.191407 25.433594 112.808594zm0 0" fill="#bfa885"/><path d="m470.03125 365.628906c0 67.984375-57.15625 123.800782-130.097656 129.59375-13.46875-1.089844-26.738282-3.96875-39.449219-8.5625-.082031 0-.167969-.082031-.25-.082031-30.035156-10.5-55.570313-30.96875-72.351563-58 0-.046875-.039062-.082031-.085937-.082031-11.550781-18.9375-17.675781-40.6875-17.710937-62.867188 1.148437-27.101562 5.949218-53.921875 14.269531-79.738281 3.105469-10.578125 6.714843-21.320313 10.746093-32.0625l209.5-1.007813c16.03125 42.386719 25.429688 85.191407 25.429688 112.808594zm0 0" fill="#ffe0b2"/><path d="m269.429688 287.820312c4.417968 10.117188 7.664062 20.707032 9.6875 31.558594 1.148437 7.472656-.976563 16.199219 3.003906 23.042969 8.738281 15.03125 24.382812 4.632813 30.9375-5.71875 6.554687-10.347656 10.398437-30.84375 14.285156-42.503906zm0 0" fill="#fec108"/><path d="m377.703125 294.199219 12.28125 24.769531c7.238281 9.652344 20.753906 11.964844 30.789063 5.269531 4.695312-3.125 8.058593-7.890625 9.433593-13.359375l5.875-23.226562zm0 0" fill="#fec108"/><path d="m481.449219 54.316406-28.203125 28.199219v43.816406c-.027344 9.257813-7.527344 16.757813-16.785156 16.785157-4.84375 0-9.441407-2.117188-12.59375-5.789063 2.699218-3.03125 4.191406-6.941406 4.199218-10.996094v-43.816406l28.199219-28.199219c-2.261719-1.105468-4.621094-2.003906-7.046875-2.6875-.757812-.167968-1.511719-.417968-2.269531-.585937 8.996093-2.613281 18.574219-2.410157 27.449219.585937 2.425781.683594 4.785156 1.582032 7.050781 2.6875zm0 0" fill="#ff9801"/><path d="m456.265625 54.316406-28.199219 28.199219v43.816406c-.007812 4.054688-1.5 7.964844-4.199218 10.996094-2.605469-2.917969-4.09375-6.667969-4.195313-10.578125v24.761719c-.027344 9.257812-7.527344 16.757812-16.785156 16.785156-9.234375-.09375-16.691407-7.554687-16.789063-16.785156v-33.574219c-.199218-8.292969 1.375-16.535156 4.617188-24.171875 1.6875-3.695313 4.289062-6.902344 7.554687-9.316406 4.867188-3.359375 11.164063-3.777344 16.28125-6.714844 3.257813-1.898437 6.273438-4.179687 8.980469-6.800781 5.289062-5.035156 9.65625-10.910156 15.363281-15.359375 2.433594-1.921875 5.152344-3.449219 8.054688-4.53125.757812.167969 1.511719.417969 2.269531.585937 2.425781.683594 4.785156 1.582032 7.046875 2.6875zm0 0" fill="#fec108"/><path d="m423.867188 137.328125c-1.175782 1.414063-2.597657 2.609375-4.195313 3.523437v-14.101562c.101563 3.910156 1.589844 7.660156 4.195313 10.578125zm0 0" fill="#fec108"/><path d="m470.03125 252.234375c0 27.78125-52.625 50.359375-117.507812 50.359375-4.28125 0-8.476563-.085938-12.589844-.253906-59.003906-2.769532-104.917969-24.171875-104.917969-50.105469 0-25.9375 45.914063-47.339844 104.917969-50.109375 4.113281-.167969 8.308594-.253906 12.589844-.253906 64.882812 0 117.507812 22.578125 117.507812 50.363281zm0 0" fill="#607d8b"/><path d="m444.851562 252.234375c0-27.675781-46.972656-50.109375-104.917968-50.109375-57.945313 0-104.917969 22.433594-104.917969 50.109375 0 27.671875 46.972656 50.105469 104.917969 50.105469 57.945312 0 104.917968-22.433594 104.917968-50.105469zm0 0" fill="#cfd8dc"/><path d="m436.460938 252.234375c0-9.273437-35.703126-16.789063-79.738282-16.789063-44.039062 0-79.738281 7.515626-79.738281 16.789063 0 9.269531 35.699219 16.785156 79.738281 16.785156 44.035156 0 79.738282-7.515625 79.738282-16.785156zm0 0" fill="#fec108"/><path d="m352.523438 193.476562c-45.742188 0-84.234376 10.285157-106.199219 26.398438-4.761719-6.035156-12.011719-9.574219-19.703125-9.609375h-142.6875v-125.902344h184.65625c23.179687 0 41.96875-18.789062 41.96875-41.96875 0-23.175781-18.789063-41.964843-41.96875-41.964843h-226.621094c-23.167969.027343-41.9414062 18.800781-41.96875 41.964843v419.675781c.0273438 23.164063 18.800781 41.9375 41.96875 41.964844h243.410156c6.804688.007813 13.320313-2.765625 18.035156-7.671875 15.953126 5.128907 32.605469 7.746094 49.363282 7.757813 83.304687 0 151.082031-62.113282 151.082031-138.492188 0-28.789062-9.789063-72.613281-25.558594-114.640625-1.335937-32.867187-54.894531-57.511719-125.777343-57.511719zm109.117187 58.757813c0 19.847656-44.8125 41.964844-109.117187 41.964844-27.1875.585937-54.226563-4.160157-79.59375-13.964844-.117188-.050781-.226563-.109375-.351563-.152344-18.425781-7.941406-29.167969-18.15625-29.167969-27.847656 0-19.851563 44.8125-41.96875 109.113282-41.96875 64.304687 0 109.117187 22.117187 109.117187 41.96875zm-37.664063 48.964844-1.914062 7.628906c-1.339844 5.363281-5.644531 9.472656-11.0625 10.5625-5.417969 1.09375-10.980469-1.03125-14.292969-5.457031l-4.320312-5.757813c10.695312-1.503906 21.257812-3.835937 31.589843-6.976562zm-107.542968 7.488281c-2.5625 8.214844-6.078125 16.105469-10.476563 23.5-2.660156 4.714844-7.167969 8.105469-12.4375 9.351562h-.085937c-.578125 0-2.128906-.042968-4.070313-3.359374-1.3125-3.398438-1.808593-7.058594-1.453125-10.683594.070313-3.148438-.097656-6.296875-.5-9.417969-.890625-5.488281-2.195312-10.902344-3.914062-16.191406 10.785156 3.125 21.796875 5.398437 32.9375 6.800781zm-299.648438 153.382812v-419.675781c0-13.90625 11.273438-25.179687 25.183594-25.179687h226.621094c13.90625 0 25.179687 11.273437 25.179687 25.179687 0 13.910157-11.273437 25.183594-25.179687 25.183594h-193.050782c-4.632812 0-8.390624 3.757813-8.390624 8.390625v142.691406c0 4.632813 3.757812 8.390625 8.390624 8.390625h151.082032c3.171875.046875 6.046875 1.875 7.429687 4.726563-4.65625 5.816406-7.269531 13.003906-7.429687 20.457031v.292969c-3.113282 8.390625-5.875 16.703125-8.390625 24.886718h-142.691407c-4.632812 0-8.390624 3.757813-8.390624 8.390626v142.691406c0 4.632812 3.757812 8.390625 8.390624 8.390625h147.800782c14.332031 21.582031 34.144531 38.960937 57.402344 50.363281h-238.773438c-13.910156 0-25.183594-11.273438-25.183594-25.179688zm196.484375-167.871093c-6.851562 23.226562-10.738281 47.226562-11.574219 71.429687.058594 18.828125 4.226563 37.421875 12.21875 54.472656h-129.980468v-125.902343zm139.507813 193.132812c-16.851563.050781-33.578125-2.847656-49.429688-8.5625l-.203125-.074219h-.117187c-28.214844-9.84375-52.207032-29.054687-67.984375-54.429687-.09375-.167969-.203125-.328125-.3125-.488281-10.574219-17.554688-16.191407-37.652344-16.25-58.148438 1.175781-26.296875 5.859375-52.316406 13.925781-77.371094 1.21875-4.128906 2.578125-8.34375 3.953125-12.589843 7.503906 7.941406 16.550781 14.265625 26.582031 18.589843 3.585938 8.460938 6.230469 17.292969 7.882813 26.332032.261719 2.28125.367187 4.582031.308593 6.882812-.511718 6.585938.78125 13.191406 3.734376 19.101563 3.515624 6.929687 10.496093 11.421875 18.257812 11.75h.394531c11.109375-1.105469 21.011719-7.472657 26.632813-17.121094 5.710937-9.703125 10.21875-20.0625 13.429687-30.855469 6.167969.394532 12.4375.671875 18.917969.671875 7 0 13.773438-.308593 20.402344-.773437l10.34375 13.792968c7.195312 9.601563 19.273437 14.210938 31.039062 11.84375 11.761719-2.371093 21.117188-11.292968 24.039063-22.933593l4.808593-19.136719c9.789063-4.328125 18.589844-10.613281 25.867188-18.464844 10.363281 29.058594 16.449219 59.472656 18.070312 90.28125 0 67.105469-60.238281 121.703125-134.292968 121.703125zm0 0"/><path d="m356.722656 277.414062c20.671875 0 88.128906-1.8125 88.128906-25.179687 0-23.371094-67.457031-25.183594-88.128906-25.183594-20.675781 0-88.132812 1.8125-88.132812 25.183594 0 23.367187 67.457031 25.179687 88.132812 25.179687zm0-33.574218c22.847656-.878906 45.691406 1.957031 67.632813 8.394531-21.941407 6.433594-44.785157 9.269531-67.632813 8.390625-22.851562.878906-45.691406-1.957031-67.636718-8.390625 21.945312-6.4375 44.785156-9.273437 67.636718-8.394531zm0 0"/><path d="m377.703125 123.34375v28.167969c0 13.90625 11.277344 25.179687 25.183594 25.179687s25.179687-11.273437 25.179687-25.179687v-1.546875c2.6875.996094 5.527344 1.519531 8.394532 1.546875 13.90625 0 25.179687-11.273438 25.179687-25.179688v-40.339843l39.5-39.507813c.777344-.78125 1.398437-1.707031 1.820313-2.726563.417968-1.003906.636718-2.078124.644531-3.164062v-31.769531c0-4.636719-3.757813-8.394531-8.390625-8.394531h-98.875c-2.226563.011718-4.359375.894531-5.945313 2.457031l-48.78125 48.742187c-9.773437 9.863282-9.773437 25.757813 0 35.621094zm67.148437 2.988281c0 4.632813-3.757812 8.390625-8.390624 8.390625-4.636719 0-8.394532-3.757812-8.394532-8.390625v-10.242187c0-4.632813-3.757812-8.390625-8.394531-8.390625s-8.394531 3.757812-8.394531 8.390625v35.421875c0 4.636719-3.757813 8.394531-8.390625 8.394531-4.636719 0-8.394531-3.757812-8.394531-8.394531v-31.726563c-.046876-.304687-.105469-.605468-.183594-.898437.078125-.277344.136718-.558594.183594-.839844-.21875-7.046875 1.0625-14.058594 3.761718-20.574219 1.058594-2.398437 2.703125-4.492187 4.78125-6.09375 2.023438-1.167968 4.199219-2.050781 6.464844-2.625 3.179688-.886718 6.253906-2.117187 9.164062-3.675781 3.867188-2.238281 7.441407-4.9375 10.652344-8.042969 2.199219-2.089844 4.246094-4.3125 6.285156-6.527344 2.601563-2.996093 5.441407-5.777343 8.488282-8.320312 6.207031-4.492188 14.121094-5.910156 21.503906-3.859375l-18.273438 18.246094c-.785156.78125-1.402343 1.710937-1.820312 2.738281-.421875 1.015625-.644531 2.105469-.648438 3.203125zm-91.34375-62.808593 46.304688-46.308594h87.007812v19.859375l-7.503906 7.496093c-.949218-.320312-1.878906-.839843-2.847656-1.074218-13.425781-3.417969-28.929688-5.429688-42.738281 5.457031-3.773438 3.085937-7.28125 6.492187-10.484375 10.171875-1.785156 1.9375-3.582032 3.902344-5.460938 5.691406-2.230468 2.175782-4.722656 4.070313-7.414062 5.640625-1.875.945313-3.84375 1.703125-5.875 2.257813-3.894532 1.035156-7.609375 2.671875-11.003906 4.851562-4.464844 3.242188-8.023438 7.574219-10.332032 12.589844-1.636718 3.578125-2.867187 7.328125-3.667968 11.179688l-25.945313-25.886719c-1.59375-1.570313-2.5-3.714844-2.507813-5.953125-.007812-2.242188.882813-4.390625 2.46875-5.972656zm0 0"/></svg>