<svg height="512pt" viewBox="0 0 512.02532 512" width="512pt" xmlns="http://www.w3.org/2000/svg"><path d="m281.601562 258.402344v-27.988282c-.03125-9.414062-7.652343-17.039062-17.066406-17.066406h-187.734375v-136.535156h238.933594c18.828125-.054688 34.074219-15.304688 34.132813-34.132812-.058594-18.828126-15.304688-34.078126-34.132813-34.132813h-281.601563c-14.121093.042969-25.558593 11.476563-25.597656 25.597656v435.203125c.054688 18.828125 15.304688 34.074219 34.132813 34.132813 18.828125-.058594 34.074219-15.304688 34.132812-34.132813v-187.734375h62.207031zm0 0" fill="#cddc39"/><path d="m288.339844 260.195312s30.890625-20.652343 60.757812-21.761718c5.71875-.265625 11.1875 2.347656 14.570313 6.964844 3.378906 4.617187 4.222656 10.621093 2.242187 15.988281-4.59375 11.929687-7.886718 24.316406-9.8125 36.953125zm0 0" fill="#00bcd4"/><path d="m467.796875 503.480469c-10.789063.03125-21.402344-2.734375-30.804687-8.023438-34.902344-19.625-44.457032-68.777343-44.457032-68.777343l16.808594-22.441407.425781-.597656 8.363281-11.09375 1.109376.683594c2.21875 1.449219 7.253906 4.691406 11.433593 7.335937 2.988281 1.964844 5.546875 3.585938 6.316407 4.097656.085937.085938.085937.085938.171874.085938 0 .046875.035157.085938.082032.085938 5.019531 2.21875 8.925781 6.375 10.839844 11.519531 5.460937 13.738281 1.535156 28.925781 2.046874 43.175781.398438 7.621094 2.25 15.09375 5.460938 22.015625 3.203125 7.761719 7.296875 15.121094 12.203125 21.933594zm0 0" fill="#00838f"/><path d="m369.835938 446.734375c-48.957032 12.34375-99.273438 18.476563-149.761719 18.257813v-221.863282s72.023437 0 175.957031 84.90625c19.8125 16.292969 28.804688 42.328125 23.277344 67.375-5.527344 25.050782-24.644532 44.878906-49.472656 51.324219zm0 0" fill="#283593"/><path d="m341.417969 446.734375c-39.726563 10.0625-80.394531 15.984375-121.34375 17.664063v-216.75c30.292969 7.511718 82.6875 27.394531 147.542969 80.386718 19.8125 16.292969 28.804687 42.328125 23.277343 67.375-5.53125 25.050782-24.644531 44.878906-49.476562 51.324219zm0 0" fill="#3f51b5"/><path d="m503.464844 319.414062c-6.671875 5.097657-12.71875 10.96875-18.003906 17.496094-5.039063 5.695313-8.949219 12.296875-11.519532 19.453125-4.609375 13.570313-5.207031 29.269531-14.421875 40.789063-5.1875 6.828125-13.976562 9.859375-22.273437 7.683594-.046875 0-.082032-.039063-.082032-.085938-.085937 0-.085937 0-.171874-.085938-2.019532-.269531-3.980469-.875-5.804688-1.792968h-.082031c-.671875-.25-1.324219-.53125-1.964844-.851563-.066406-.066406-.160156-.097656-.253906-.085937-3.421875-1.753906-6.675781-3.808594-9.730469-6.144532l.085938-2.558593.855468-34.304688s15.527344-34.390625 49.664063-41.472656c11.222656-2.175781 22.808593-1.5 33.703125 1.960937zm0 0" fill="#00838f"/><g fill="#00bcd4"><path d="m436.992188 495.457031c-34.902344-19.625-44.457032-68.777343-44.457032-68.777343l16.808594-22.441407.425781-.597656c.769531.511719 1.367188.851563 1.621094 1.023437.085937.085938.085937.085938.171875.085938 0 .046875.039062.085938.085938.085938 5.015624 2.21875 8.925781 6.375 10.835937 11.519531 5.460937 13.738281 1.535156 28.925781 2.050781 43.175781.394532 7.621094 2.25 15.09375 5.460938 22.015625 1.988281 4.804687 4.324218 9.453125 6.996094 13.910156zm0 0"/><path d="m477.867188 319.414062c-6.675782 5.097657-12.71875 10.96875-18.003907 17.496094-5.042969 5.695313-8.949219 12.296875-11.523437 19.453125-4.605469 13.570313-5.203125 29.269531-14.417969 40.789063-.996094 1.21875-2.078125 2.359375-3.246094 3.414062-.597656.511719-1.191406.941406-1.789062 1.367188-5.078125 3.359375-11.339844 4.410156-17.238281 2.902344-.046876 0-.085938-.039063-.085938-.085938-.085938 0-.085938 0-.171875-.085938-.6875-.101562-1.375-.246093-2.046875-.425781l.425781-.597656 8.363281-11.09375 1.109376.683594.855468-34.304688s15.527344-34.390625 49.664063-41.472656c2.734375.511719 5.4375 1.167969 8.105469 1.960937zm0 0"/><path d="m315.390625 358.414062c5.742187-8.910156 14.648437-15.3125 24.917969-17.921874 9.132812-2.046876 22.445312-.597657 25.941406 10.15625 2.988281 9.128906-4.09375 18.6875-9.8125 24.832031 0 .597656 4.097656 11.347656 4.351562 12.542969 1.296876 4.550781 1.265626 9.375-.085937 13.910156-3.496094 9.472656-15.273437 8.789062-23.125 7.167968-11.167969-2.464843-21.441406-7.957031-29.695313-15.871093zm0 0"/><path d="m154.710938 274.445312c16.148437-19.511718 40.039062-30.957031 65.363281-31.316406 0 0 1.109375 0 3.328125.167969 5.59375.136719 11.152344.941406 16.554687 2.390625.339844.085938.683594.171875 1.109375.253906 15.105469 4.191406 28.828125 12.320313 39.765625 23.554688v.085937c21.734375 22.699219 33.632813 53.058594 33.109375 84.480469 0 61.265625-41.984375 110.929688-93.867187 110.929688-51.882813 0-93.867188-49.664063-93.867188-110.929688 0-1.367188 0-2.5625.085938-3.925781v-.085938"/></g><path d="m192.851562 297.570312c-4.234374-11.773437-14.226562-20.539062-26.453124-23.210937-3.863282-.738281-7.835938-.710937-11.6875.085937-5.726563 1.117188-11.109376 3.570313-15.703126 7.167969-20.429687 16.617188-25.808593 45.589844-12.714843 68.4375v.085938c4.953125 8.566406 13.34375 14.59375 23.039062 16.554687 17.558594 2.007813 34.339844-7.789062 41.21875-24.066406zm0 0" fill="#cfd8dc"/><path d="m234.027344 273.605469c-20.851563-3.855469-41.578125 13.683593-46.289063 39.171875-4.714843 25.488281 8.371094 49.277344 29.226563 53.132812 20.855468 3.855469 41.582031-13.683594 46.292968-39.171875 4.710938-25.488281-8.375-49.277343-29.230468-53.132812zm0 0" fill="#f4f4f4"/><path d="m384 149.347656c0 11.78125-9.550781 21.332032-21.332031 21.332032-11.785157 0-21.335938-9.550782-21.335938-21.332032 0-11.785156 9.550781-21.335937 21.335938-21.335937 11.78125 0 21.332031 9.550781 21.332031 21.335937zm0 0" fill="#00bcd4"/><path d="m281.601562 89.613281c0 11.78125-9.554687 21.332031-21.335937 21.332031s-21.332031-9.550781-21.332031-21.332031 9.550781-21.332031 21.332031-21.332031 21.335937 9.550781 21.335937 21.332031zm0 0" fill="#00bcd4"/><path d="m443.734375 81.078125c0 16.496094-13.371094 29.867187-29.867187 29.867187-4.445313.035157-8.832032-.988281-12.800782-2.984374-10.414062-4.898438-17.0625-15.371094-17.0625-26.882813 0-11.507813 6.648438-21.980469 17.0625-26.878906 3.96875-1.996094 8.355469-3.019531 12.800782-2.988281 16.496093 0 29.867187 13.375 29.867187 29.867187zm0 0" fill="#00838f"/><path d="m418.132812 81.078125c.003907 11.511719-6.648437 21.988281-17.066406 26.882813-10.414062-4.898438-17.0625-15.371094-17.0625-26.882813 0-11.507813 6.648438-21.980469 17.0625-26.878906 10.417969 4.894531 17.070313 15.367187 17.066406 26.878906zm0 0" fill="#00bcd4"/><path d="m42.667969 512.011719c23.550781-.027344 42.636719-19.113281 42.664062-42.664063v-179.203125h34.773438c-4.121094 6.710938-6.976563 14.117188-8.429688 21.855469-2.628906 13.6875-.496093 27.863281 6.042969 40.175781 0 .613281-.042969 1.226563-.042969 1.886719 0 65.875 45.933594 119.464844 102.398438 119.464844 51.207031.191406 102.234375-6.03125 151.894531-18.527344 6.863281-1.753906 13.449219-4.449219 19.574219-8.011719 4.855469 24.59375 25.601562 64.8125 76.230469 65.023438 3.214843 0 6.160156-1.808594 7.613281-4.679688 1.453125-2.867187 1.167969-6.3125-.738281-8.90625-4.515626-6.28125-8.285157-13.074219-11.230469-20.230469-2.8125-5.953124-4.4375-12.394531-4.785157-18.96875-.144531-4.140624.128907-8.464843.410157-13.046874 1.464843-11.09375.417969-22.375-3.0625-33.007813-.285157-.683594-.667969-1.265625-.972657-1.914063 4.359376-1.996093 8.179688-5.003906 11.152344-8.769531 6.457032-9.148437 10.722656-19.660156 12.464844-30.722656 1.042969-4.476563 2.03125-8.710937 3.414062-12.695313 2.238282-6.160156 5.632813-11.835937 10-16.71875 4.855469-6 10.410157-11.402343 16.546876-16.082031 2.59375-1.929687 3.871093-5.160156 3.308593-8.339843-.566406-3.183594-2.878906-5.769532-5.980469-6.6875-32.667968-10.15625-68.085937 2.863281-86.398437 31.757812-4.628906-8.261719-10.753906-15.59375-18.066406-21.613281-12.457031-10.171875-24.445313-19.125-35.941407-27.050781 1.925782-10.214844 4.742188-20.242188 8.414063-29.96875 3-8.003907 1.785156-16.976563-3.234375-23.894532-5.078125-6.945312-13.28125-10.910156-21.878906-10.570312-20.757813 1.890625-40.816406 8.457031-58.675782 19.207031v-18.695313c0-14.140624-11.460937-25.601562-25.597656-25.601562h-179.203125v-119.464844h145.503907c-.25 1.40625-.394532 2.835938-.4375 4.265625 0 16.496094 13.375 29.867188 29.867187 29.867188 16.496094 0 29.867187-13.371094 29.867187-29.867188-.039062-1.429687-.1875-2.859375-.433593-4.265625h26.035156c23.5625 0 42.664063-19.105468 42.664063-42.667968 0-23.566407-19.101563-42.6679692-42.664063-42.6679692h-281.601563c-18.851562 0-34.132812 15.2812502-34.132812 34.1328122v435.203125c.0273438 23.550782 19.113281 42.636719 42.667969 42.664063zm153.453125-197.683594c1.660156-9.910156 6.675781-18.945313 14.207031-25.597656 4.941406-4.417969 11.296875-6.933594 17.921875-7.09375 1.429688.003906 2.859375.132812 4.265625.394531 7.929687 1.703125 14.65625 6.917969 18.277344 14.171875 4.664062 8.914063 6.113281 19.160156 4.105469 29.015625-1.652344 9.910156-6.671876 18.953125-14.207032 25.597656-5.855468 5.695313-14.109375 8.191406-22.140625 6.707032-8.027343-1.484376-14.839843-6.769532-18.273437-14.179688-4.675782-8.90625-6.144532-19.152344-4.15625-29.015625zm-16.777344-3.105469c-1.941406 10.191406-1.324219 20.707032 1.792969 30.601563-5.722657 11.203125-17.734375 17.746093-30.25 16.476562-7.078125-1.476562-13.21875-5.835937-16.949219-12.03125-.121094-.257812-.261719-.507812-.417969-.75-10.789062-19.125-6.28125-43.238281 10.683594-57.175781 3.5625-2.792969 7.734375-4.699219 12.179687-5.5625 2.792969-.582031 5.671876-.605469 8.472657-.066406 8.257812 1.886718 15.152343 7.546875 18.609375 15.28125-1.839844 4.25-3.222656 8.683594-4.121094 13.226562zm-43.375 59.433594c5.769531 3.375 12.339844 5.128906 19.023438 5.078125 13.601562-.339844 26.382812-6.566406 35.035156-17.066406 6.261718 8.152343 15.289062 13.726562 25.378906 15.667969 2.449219.457031 4.933594.683593 7.425781.683593 10.628907-.144531 20.855469-4.078125 28.839844-11.09375 21.394531-19.164062 27.15625-50.351562 14.03125-75.894531-5.886719-11.914062-17.039063-20.359375-30.101563-22.796875s-26.511718 1.417969-36.296874 10.40625c-2.144532 1.863281-4.140626 3.894531-5.972657 6.066406-4.921875-6.398437-11.554687-11.269531-19.132812-14.046875 13.066406-10.285156 29.1875-15.925781 45.816406-16.035156h1.28125c5.972656.425781 11.910156 1.28125 17.765625 2.5625 13.257812 3.75 25.328125 10.847656 35.054688 20.605469.203124.261719.421874.511719.65625.742187 20.132812 21.132813 31.140624 49.34375 30.632812 78.527344 0 56.464844-38.277344 102.398438-85.332031 102.398438-42.332031 0-77.464844-37.222657-84.105469-85.804688zm186.488281-7.457031c4.523438-7.113281 11.574219-12.253907 19.730469-14.386719 5.222656-1.152344 14.171875-.980469 15.964844 4.480469 1.210937 3.746093-1.613282 9.558593-7.953125 16.367187-1.472657 1.578125-2.292969 3.660156-2.296875 5.820313 0 1.816406.257812 2.558593 2.757812 9.386719.851563 2.261718 1.636719 4.488281 1.785156 4.886718.855469 2.996094.941407 6.164063.246094 9.199219-1.425781 3.894531-10.597656 2.347656-13.296875 1.785156-7.953125-1.796875-15.398437-5.375-21.765625-10.46875 2.363282-8.734375 3.847656-17.683593 4.4375-26.710937.109375-.121094.28125-.207032.390625-.359375zm85.273438 77.269531c-.253907-1.59375-.96875-3.078125-2.0625-4.265625 8.035156-7.65625 14.304687-16.976563 18.363281-27.308594.425781.222657.851562.511719 1.296875.71875.898437.453125 1.820313.859375 2.761719 1.210938l.179687.058593c1.824219.789063 3.722657 1.394532 5.667969 1.808594 2.902344 1.332032 5.144531 3.777344 6.21875 6.785156 2.472656 8.296876 3.113281 17.03125 1.878906 25.601563-.289062 4.785156-.613281 9.742187-.425781 14.695313.40625 8.667968 2.488281 17.171874 6.125 25.050781 1.160156 2.78125 2.40625 5.472656 3.714844 8.066406-37.316407-9.585937-43.445313-50.46875-43.71875-52.421875zm20.140625-78.011719c.851562-1.792969 18.566406-39.253906 56.898437-37.648437-1.988281 2.089844-3.941406 4.316406-5.886719 6.65625-5.691406 6.515625-10.109374 14.039062-13.023437 22.1875-1.601563 4.734375-2.738281 9.582031-3.820313 14.257812-1.289062 8.566406-4.429687 16.746094-9.210937 23.96875-2.96875 4.050782-8.066406 5.941406-12.960937 4.804688-.378907-.117188-.761719-.210938-1.152344-.28125-.128906 0-.246094-.085938-.375-.109375-1.199219-.203125-2.363282-.566407-3.464844-1.085938h-.066406l-.539063-.203125c-.195312-.078125-.382812-.171875-.589843-.230468-.203126-.058594-.492188-.214844-.800782-.367188-1.511718-.746094-2.984375-1.574219-4.402344-2.484375 1.445313-9.558594 1.074219-19.308594-1.09375-28.730469.136719-.308594.367188-.46875.488282-.734375zm-16.847656 30.941407c-.058594.222656-.109376.425781-.160157.640624-4.699219 21.839844-21.445312 39.089844-43.136719 44.433594-30.097656 7.632813-60.765624 12.824219-91.699218 15.511719 15.734375-12.316406 28.027344-28.480469 35.695312-46.933594 7.324219 4.9375 15.507813 8.46875 24.125 10.414063 3.382813.730468 6.835938 1.113281 10.296875 1.140625 9.691407 1.042969 18.890625-4.503907 22.496094-13.558594 1.996094-6.09375 2.167969-12.636719.496094-18.824219-.148438-.664062-1.257813-3.890625-2.433594-7.160156-.214844-.5625-.417969-1.132812-.625-1.707031 7.742187-7.652344 10.886719-18.808594 8.289063-29.378907-4.984376-15.300781-22.101563-18.925781-35.882813-15.847656-6.0625 1.394532-11.777344 4.007813-16.792969 7.679688-2.257812-23.960938-11.1875-46.8125-25.78125-65.953125 33.992188 16.203125 65.8125 36.609375 94.71875 60.742187 17.535156 14.050782 25.460938 36.910156 20.394532 58.800782zm-61.566407-146.429688c2.898438-.125 5.664063 1.203125 7.382813 3.539062 1.6875 2.265626 2.09375 5.234376 1.082031 7.867188-3.171875 8.417969-5.78125 17.035156-7.816406 25.796875-14.082031-9-28.695313-17.144531-43.757813-24.386719 13.34375-7.167968 28.015625-11.53125 43.109375-12.828125zm-89.191406-144.554688c-7.066406 0-12.800781-5.730468-12.800781-12.800781 0-7.070312 5.734375-12.800781 12.800781-12.800781 7.070313 0 12.800781 5.730469 12.800781 12.800781 0 7.070313-5.730468 12.800781-12.800781 12.800781zm-243.199219-68.269531c0-9.425781 7.640625-17.066406 17.066406-17.066406h281.601563c14.136719 0 25.597656 11.460937 25.597656 25.601563 0 14.136718-11.460937 25.601562-25.597656 25.601562h-34.628906c-11.5625-11.378906-30.113281-11.378906-41.675781 0h-162.628907c-4.714843 0-8.535156 3.820312-8.535156 8.53125v136.535156c0 4.710938 3.820313 8.53125 8.535156 8.53125h187.734375c4.710938 0 8.53125 3.820313 8.53125 8.535156v15.597657c-10.890625-3.835938-22.046875-6.871094-33.382812-9.078125-4.101563-.964844-8.273438-1.589844-12.476563-1.871094-2.933593-.304688-4.992187-.410156-6.132812-.441406h-1c-26.792969.304687-52.191407 12.011718-69.828125 32.1875-4.9375 1.300781-9.621094 3.421875-13.859375 6.269531h-59.585938c-4.714843 0-8.535156 3.820313-8.535156 8.535156v187.734375c0 14.136719-11.460937 25.597656-25.597656 25.597656-14.140625 0-25.601563-11.460937-25.601563-25.597656zm0 0"/><path d="m262.03125 403.578125c-3.332031-3.328125-8.730469-3.328125-12.0625 0-14.304688 16.78125-38.949219 20.089844-57.175781 7.679687-2.4375-1.828124-5.667969-2.214843-8.472657-1.019531-2.800781 1.199219-4.753906 3.800781-5.117187 6.828125-.367187 3.027344.910156 6.015625 3.351563 7.847656 10.019531 7.113282 22.003906 10.933594 34.292968 10.921876 17.179688-.296876 33.484375-7.613282 45.125-20.25 3.308594-3.308594 3.335938-8.664063.058594-12.007813zm0 0"/><path d="m147.542969 301.152344c-1.5625 1.636718-2.449219 3.800781-2.476563 6.058594-.027344 1.121093.203125 2.230468.683594 3.246093.433594 1.03125 1.039062 1.984375 1.792969 2.8125l1.269531 1.027344c.480469.320313 1 .578125 1.542969.765625.484375.246094 1.003906.417969 1.539062.511719.5625.101562 1.132813.15625 1.707031.171875 2.257813-.035156 4.421876-.917969 6.058594-2.476563.75-.828125 1.359375-1.78125 1.789063-2.8125.4375-1.027343.671875-2.128906.683593-3.246093.019532-3.464844-2.058593-6.597657-5.261718-7.929688-3.199219-1.328125-6.886719-.589844-9.328125 1.871094zm0 0"/><path d="m215.808594 313.269531 1.269531 1.027344c.480469.320313 1 .578125 1.546875.765625.484375.246094 1 .417969 1.535156.511719.5625.101562 1.132813.15625 1.707032.171875 2.257812-.035156 4.421874-.917969 6.058593-2.476563.753907-.828125 1.359375-1.78125 1.792969-2.8125.4375-1.027343.667969-2.128906.679688-3.246093 0-4.710938-3.820313-8.53125-8.53125-8.53125-4.714844 0-8.535157 3.820312-8.535157 8.53125-.027343 1.121093.207031 2.230468.683594 3.246093.433594 1.03125 1.039063 1.984375 1.792969 2.8125zm0 0"/><path d="m292.609375 147.453125c-1.5625 1.632813-2.449219 3.796875-2.476563 6.058594-.027343 1.113281.207032 2.222656.683594 3.234375 1.242188 3.253906 4.367188 5.402344 7.851563 5.402344 3.480469 0 6.605469-2.148438 7.847656-5.402344.4375-1.023438.671875-2.125.683594-3.234375.019531-3.46875-2.058594-6.601563-5.261719-7.933594-3.199219-1.328125-6.886719-.589844-9.328125 1.875zm0 0"/><path d="m309.675781 202.339844c3.363281 3.296875 8.75 3.296875 12.117188 0 .769531-.816406 1.378906-1.773438 1.792969-2.816406.433593-1.027344.667968-2.128907.679687-3.242188 0-4.714844-3.820313-8.535156-8.53125-8.535156-4.714844 0-8.535156 3.820312-8.535156 8.535156-.027344 1.117188.207031 2.226562.683593 3.242188.414063 1.042968 1.019532 2 1.792969 2.816406zm0 0"/><path d="m332.800781 149.347656c0 16.492188 13.371094 29.863282 29.867188 29.863282 16.492187 0 29.867187-13.371094 29.867187-29.863282 0-16.496094-13.375-29.867187-29.867187-29.867187-16.496094 0-29.867188 13.371093-29.867188 29.867187zm29.867188-12.800781c7.066406 0 12.796875 5.730469 12.796875 12.800781 0 7.066406-5.730469 12.796875-12.796875 12.796875-7.070313 0-12.800781-5.730469-12.800781-12.796875 0-7.070312 5.730468-12.800781 12.800781-12.800781zm0 0"/><path d="m413.867188 119.480469c21.207031 0 38.398437-17.195313 38.398437-38.402344s-17.191406-38.398437-38.398437-38.398437c-21.207032 0-38.402344 17.191406-38.402344 38.398437.023437 21.199219 17.203125 38.378906 38.402344 38.402344zm0-59.734375c11.78125 0 21.332031 9.550781 21.332031 21.332031 0 11.785156-9.550781 21.335937-21.332031 21.335937s-21.332032-9.550781-21.332032-21.335937c0-11.78125 9.550782-21.332031 21.332032-21.332031zm0 0"/></svg>