<svg height="512pt" viewBox="0 0 512 512" width="512pt" xmlns="http://www.w3.org/2000/svg"><path d="m281.601562 138.753906v-96.085937c-.058593-18.828125-15.308593-34.078125-34.136718-34.132813-18.824219.054688-34.074219 15.304688-34.132813 34.132813v157.183593l-24.574219 22.015626h-94.890624c-9.414063-.027344-17.039063-7.652344-17.066407-17.066407v-162.132812c-.058593-18.828125-15.304687-34.078125-34.132812-34.132813-18.828125.054688-34.078125 15.304688-34.132813 34.132813v426.664062c.054688 18.828125 15.304688 34.078125 34.132813 34.132813 18.828125-.054688 34.074219-15.304688 34.132812-34.132813v-162.132812c.027344-9.414063 7.652344-17.039063 17.066407-17.066407h102.398437c9.425781 0 17.066406 7.640626 17.066406 17.066407v179.199219c.03125 9.414062 7.652344 17.039062 17.066407 17.066406h34.136718zm0 0" fill="#3f51b5"/><path d="m503.464844 234.238281v45.3125c.027344 3.386719-1.949219 6.464844-5.035156 7.851563-3.085938 1.386718-6.703126.816406-9.214844-1.449219l-11.347656-10.15625v-41.558594c.011718-2.433593-1.011719-4.761719-2.816407-6.398437l-146.515625-131.070313 7.082032-6.316406c3.257812-2.898437 8.171874-2.898437 11.433593 0l153.601563 137.386719c1.800781 1.636718 2.828125 3.964844 2.8125 6.398437zm0 0" fill="#4e342e"/><path d="m477.867188 234.238281v41.558594l-136.535157-122.195313-12.796875 11.433594-123.136718 110.25-11.949219 10.667969c-2.5 2.253906-6.09375 2.832031-9.171875 1.464844-3.082032-1.363281-5.070313-4.414063-5.078125-7.78125v-45.398438c-.011719-2.433593 1.011719-4.761719 2.816406-6.398437l146.519531-131.070313 146.515625 131.070313c1.804688 1.636718 2.828125 3.964844 2.816407 6.398437zm0 0" fill="#795548"/><path d="m477.269531 275.285156-50.601562 194.046875h-170.667969l-2.21875-8.53125-40.535156-155.308593v-.253907l-1.191406-4.523437-.085938-.171875-6.570312-25.257813 76.203124-68.179687 51.964844-46.59375 7.765625-6.910157zm0 0" fill="#c52828"/><path d="m452.265625 266.753906-50.601563 194.046875h-147.882812l-40.535156-155.308593v-.253907l-1.191406-4.523437-.085938-.171875-6.570312-25.257813 76.203124-68.179687 51.964844-46.59375zm0 0" fill="#f44335"/><path d="m247.464844 469.332031h187.734375c4.714843 0 8.535156 3.820313 8.535156 8.535157v17.066406c0 4.710937-3.820313 8.53125-8.535156 8.53125h-187.734375c-4.710938 0-8.53125-3.820313-8.53125-8.53125v-17.066406c0-4.714844 3.820312-8.535157 8.53125-8.535157zm0 0" fill="#4e342e"/><path d="m247.464844 469.332031h162.136718c4.710938 0 8.53125 3.820313 8.53125 8.535157v17.066406c0 4.710937-3.820312 8.53125-8.53125 8.53125h-162.136718c-4.710938 0-8.53125-3.820313-8.53125-8.53125v-17.066406c0-4.714844 3.820312-8.535157 8.53125-8.535157zm0 0" fill="#795548"/><path d="m373.195312 332.800781h-63.726562c-4.894531 0-9.554688 2.101563-12.796875 5.769531-3.238281 3.667969-4.746094 8.554688-4.140625 13.414063l14.667969 117.347656h68.265625l14.671875-117.347656c.605469-4.859375-.902344-9.746094-4.144531-13.414063-3.238282-3.667968-7.898438-5.769531-12.796876-5.769531zm0 0" fill="#795548"/><path d="m384 256c.019531 2.867188-.265625 5.726562-.851562 8.535156-3.441407 16.75-16.53125 29.839844-33.28125 33.277344-5.632813 1.136719-11.433594 1.136719-17.066407 0-16.75-3.4375-29.839843-16.527344-33.28125-33.277344-1.136719-5.632812-1.136719-11.4375 0-17.070312 3.441407-16.75 16.53125-29.839844 33.28125-33.277344 5.632813-1.136719 11.433594-1.136719 17.066407 0 16.75 3.4375 29.839843 16.527344 33.28125 33.277344.585937 2.808594.871093 5.667968.851562 8.535156zm0 0" fill="#00bcd4"/><path d="m352.71875 84.070312c-6.480469-5.800781-16.289062-5.800781-22.769531 0l-39.816407 35.617188v-77.019531c0-23.566407-19.101562-42.667969-42.667968-42.667969-23.5625 0-42.664063 19.101562-42.664063 42.667969v153.375l-19.320312 17.289062h-91.613281c-4.714844 0-8.535157-3.820312-8.535157-8.53125v-162.132812c0-23.566407-19.101562-42.667969-42.664062-42.667969-23.566407 0-42.667969 19.101562-42.667969 42.667969v426.664062c0 23.566407 19.101562 42.667969 42.667969 42.667969 23.5625 0 42.664062-19.101562 42.664062-42.667969v-162.132812c0-4.710938 3.820313-8.53125 8.535157-8.53125h94.890624c2.917969-.035157 5.609376-1.582031 7.109376-4.089844 1.15625-.621094 2.242187-1.371094 3.234374-2.234375l1.550782-1.390625 3.054687 11.742187c.058594.222657.136719.460938.222657.707032l.8125 3.039062c.003906.253906.023437.507813.058593.757813v179.199219c0 14.140624 11.460938 25.601562 25.597657 25.601562h213.335937c4.710937 0 8.53125-3.820312 8.53125-8.535156v-34.132813c0-4.710937-3.820313-8.53125-8.53125-8.53125h-6.027344l44.308594-169.882812 1.542969 1.382812c5.015625 4.484375 12.199218 5.605469 18.34375 2.855469 6.144531-2.746094 10.097656-8.847656 10.097656-15.578125v-45.363281c0-4.855469-2.066406-9.476563-5.683594-12.714844zm-130.851562-41.402343c0-14.140625 11.460937-25.601563 25.597656-25.601563 14.140625 0 25.601562 11.460938 25.601562 25.601563v92.296875l-51.199218 45.804687zm-153.601563 264.53125v162.132812c0 14.140625-11.460937 25.601563-25.597656 25.601563-14.140625 0-25.601563-11.460938-25.601563-25.601563v-426.664062c0-14.140625 11.460938-25.601563 25.601563-25.601563 14.136719 0 25.597656 11.460938 25.597656 25.601563v162.132812c0 14.136719 11.460937 25.597657 25.601563 25.597657h77.261718c-.300781 1.25-.457031 2.53125-.460937 3.816406v45.398437c.054687.667969.148437 1.332031.28125 1.988281h-77.082031c-6.789063 0-13.300782 2.695313-18.101563 7.496094-4.800781 4.800782-7.5 11.3125-7.5 18.101563zm153.601563 179.199219v-114.082032l23.082031 88.484375h-6.015625c-4.714844 0-8.535156 3.820313-8.535156 8.53125v25.601563c-4.710938 0-8.53125-3.820313-8.53125-8.535156zm213.332031 8.535156h-187.734375v-17.066406h187.734375zm-134.203125-144.007813c-.304688-2.429687.453125-4.875 2.074218-6.707031 1.621094-1.835938 3.949219-2.886719 6.398438-2.886719h63.726562c2.449219 0 4.78125 1.050781 6.402344 2.886719 1.621094 1.832031 2.375 4.277344 2.074219 6.707031l-13.738281 109.875h-53.199219zm119.082031 109.875h-34.941406l13.464843-107.757812c.910157-7.289063-1.351562-14.613281-6.210937-20.121094-4.859375-5.503906-11.851563-8.65625-19.195313-8.65625h-63.726562c-7.34375 0-14.332031 3.152344-19.191406 8.65625-4.859375 5.507813-7.121094 12.832031-6.210938 20.121094l13.464844 107.757812h-34.945312l-40.882813-156.691406c-.039063-.355469-.109375-.710937-.203125-1.054687v-.097657c-.242188-1.359375-.597656-2.699219-1.058594-4l-.121094-.425781c-.054687-.222656-.121093-.4375-.203124-.648438l-5.121094-19.703124 126.335937-113.128907 126.371094 113.066407zm74.855469-181.214843-147.910156-132.34375c-.375-.269532-.769532-.511719-1.183594-.714844-.855469-.683594-1.898438-1.097656-2.988282-1.1875-.421874-.105469-.847656-.183594-1.277343-.230469-.691407.011719-1.378907.105469-2.050781.28125-.359376.039063-.714844.105469-1.066407.195313-1.039062.363281-1.996093.925781-2.816406 1.65625l-147.90625 132.371093v-45.398437l7.03125-6.296875 146.566406-131.140625 153.601563 137.4375zm0 0"/><path d="m358.398438 409.601562c1.121093.027344 2.230468-.207031 3.246093-.683593 1.03125-.4375 1.984375-1.042969 2.8125-1.792969 1.558594-1.636719 2.441407-3.800781 2.476563-6.058594-.015625-1.113281-.246094-2.214844-.683594-3.242187-.433594-1.035157-1.039062-1.984375-1.792969-2.816407-.828125-.75-1.78125-1.355468-2.8125-1.792968-3.179687-1.335938-6.847656-.628906-9.304687 1.792968-.75.832032-1.359375 1.78125-1.789063 2.816407-.4375 1.027343-.671875 2.128906-.683593 3.242187-.023438 2.269532.867187 4.453125 2.472656 6.058594 1.605468 1.605469 3.789062 2.5 6.058594 2.476562zm0 0"/><path d="m341.332031 204.800781c-28.277343 0-51.199219 22.921875-51.199219 51.199219s22.921876 51.199219 51.199219 51.199219c28.277344 0 51.203125-22.921875 51.203125-51.199219-.03125-28.265625-22.9375-51.171875-51.203125-51.199219zm32.921875 42.664063h-24.386718v-24.386719c11.941406 3.121094 21.265624 12.449219 24.386718 24.386719zm-41.453125-24.386719v24.386719h-24.390625c3.125-11.9375 12.449219-21.265625 24.390625-24.386719zm-24.390625 41.457031h24.390625v24.386719c-11.941406-3.121094-21.265625-12.449219-24.390625-24.386719zm41.457032 24.386719v-24.386719h24.386718c-3.121094 11.9375-12.445312 21.265625-24.386718 24.386719zm0 0"/></svg>