<svg height="512pt" viewBox="0 0 512.00036 512" width="512pt" xmlns="http://www.w3.org/2000/svg"><path d="m187.734375 503.46875h-149.335937c-16.472657-.046875-29.816407-13.394531-29.863282-29.867188.046875-16.476562 13.390625-29.820312 29.863282-29.867187h12.800781c9.414062-.027344 17.039062-7.652344 17.066406-17.066406v-341.335938c-.027344-9.414062-7.652344-17.035156-17.066406-17.066406h-12.800781c-16.472657-.046875-29.816407-13.390625-29.863282-29.867187.046875-16.472657 13.390625-29.816407 29.863282-29.863282h128c16.476562.046875 29.820312 13.390625 29.867187 29.863282-.046875 16.476562-13.390625 29.820312-29.867187 29.867187h-12.796876c-9.414062.03125-17.039062 7.652344-17.066406 17.066406v341.335938c.027344 9.414062 7.652344 17.039062 17.066406 17.066406h17.066407zm0 0" fill="#2296f3"/><path d="m503.464844 384v102.398438c-.027344 9.414062-7.652344 17.039062-17.066406 17.070312h-256v-119.46875c-.046876-22.441406 5.464843-44.546875 16.042968-64.339844 1.453125-2.648437 2.902344-5.207031 4.4375-7.679687 1.535156-2.476563 3.074219-4.78125 4.78125-7 3.359375-4.792969 7.035156-9.351563 11.007813-13.652344 1.960937-2.132813 3.925781-4.179687 5.972656-6.144531 2.046875-1.960938 4.179687-3.839844 6.3125-5.632813 4.523437-3.835937 9.3125-7.34375 14.335937-10.496093 2.21875-1.449219 4.523438-2.898438 6.914063-4.179688 2.558594-1.449219 5.121094-2.730469 7.679687-4.011719 14.550782-7.011719 30.246094-11.347656 46.335938-12.800781 4.226562-.414062 8.46875-.613281 12.714844-.59375 17.746094-.042969 35.320312 3.4375 51.710937 10.238281 2.683594.976563 5.304688 2.117188 7.851563 3.414063 2.644531 1.277344 5.207031 2.644531 7.765625 4.09375 5.191406 2.933594 10.183593 6.210937 14.933593 9.816406 2.21875 1.703125 4.4375 3.496094 6.570313 5.289062 2.132813 1.792969 4.4375 3.839844 6.484375 5.800782l1.28125 1.28125c4.074219 4.058594 7.867188 8.394531 11.347656 12.972656 1.453125 1.875 2.902344 3.753906 4.269532 5.800781 1.703124 2.476563 3.328124 4.949219 4.863281 7.59375 12.78125 21.195313 19.507812 45.484375 19.453125 70.230469zm0 0" fill="#00838f"/><path d="m477.867188 384v102.398438c-.027344 9.414062-7.652344 17.039062-17.066407 17.070312h-230.402343v-119.46875c-.046876-22.441406 5.464843-44.546875 16.042968-64.339844 1.453125-2.648437 2.902344-5.207031 4.4375-7.679687 1.535156-2.476563 3.074219-4.78125 4.78125-7 3.359375-4.792969 7.035156-9.351563 11.007813-13.652344 1.960937-2.132813 3.925781-4.179687 5.972656-6.144531 2.046875-1.960938 4.179687-3.839844 6.3125-5.632813 4.523437-3.835937 9.3125-7.34375 14.335937-10.496093 2.21875-1.449219 4.523438-2.898438 6.914063-4.179688 2.558594-1.449219 5.121094-2.730469 7.679687-4.011719 14.550782-7.011719 30.246094-11.347656 46.335938-12.800781 13.347656 1.269531 26.433594 4.519531 38.828125 9.644531 2.683594.976563 5.304687 2.117188 7.847656 3.414063 2.648438 1.277344 5.207031 2.644531 7.765625 4.09375 5.195313 2.933594 10.183594 6.210937 14.933594 9.816406 2.21875 1.703125 4.4375 3.496094 6.570312 5.289062 2.132813 1.792969 4.4375 3.839844 6.488282 5.800782l1.277344 1.28125c4.074218 4.058594 7.867187 8.394531 11.351562 12.972656 1.449219 1.875 2.898438 3.753906 4.265625 5.800781 1.707031 2.476563 3.328125 4.949219 4.863281 7.59375 12.78125 21.195313 19.511719 45.484375 19.457032 70.230469zm0 0" fill="#00bcd4"/><path d="m230.398438 384h76.800781c11.316406 0 22.167969 4.496094 30.171875 12.496094 8 8.003906 12.496094 18.855468 12.496094 30.171875v76.800781h-110.933594zm0 0" fill="#00838f"/><path d="m256 213.332031c0 9.425781-7.640625 17.066407-17.066406 17.066407-9.425782 0-17.066406-7.640626-17.066406-17.066407s7.640624-17.066406 17.066406-17.066406c9.425781 0 17.066406 7.640625 17.066406 17.066406zm0 0" fill="#cfd8dc"/><path d="m341.332031 153.601562c0 9.425782-7.640625 17.066407-17.066406 17.066407s-17.066406-7.640625-17.066406-17.066407c0-9.425781 7.640625-17.066406 17.066406-17.066406s17.066406 7.640625 17.066406 17.066406zm0 0" fill="#607d8b"/><g fill="#cfd8dc"><path d="m435.199219 59.734375c0 9.425781-7.640625 17.066406-17.066407 17.066406-9.425781 0-17.066406-7.640625-17.066406-17.066406s7.640625-17.066406 17.066406-17.066406c9.425782 0 17.066407 7.640625 17.066407 17.066406zm0 0"/><path d="m281.601562 59.734375c0 9.425781-7.640624 17.066406-17.066406 17.066406-9.425781 0-17.070312-7.640625-17.070312-17.066406s7.644531-17.066406 17.070312-17.066406c9.425782 0 17.066406 7.640625 17.066406 17.066406zm0 0"/><path d="m426.667969 196.265625c0 9.425781-7.640625 17.066406-17.066407 17.066406-9.425781 0-17.066406-7.640625-17.066406-17.066406s7.640625-17.066406 17.066406-17.066406c9.425782 0 17.066407 7.640625 17.066407 17.066406zm0 0"/></g><path d="m503.464844 128c0 9.425781-7.640625 17.066406-17.066406 17.066406-9.425782 0-17.066407-7.640625-17.066407-17.066406s7.640625-17.066406 17.066407-17.066406c9.425781 0 17.066406 7.640625 17.066406 17.066406zm0 0" fill="#607d8b"/><path d="m213.332031 384h25.601563c23.5625 0 42.667968 19.101562 42.667968 42.667969v76.800781h-93.867187c-9.425781 0-17.066406-7.644531-17.066406-17.070312v-59.730469c0-23.566407 19.101562-42.667969 42.664062-42.667969zm0 0" fill="#00bcd4"/><path d="m226.132812 418.132812c-11.78125 0-21.332031 9.550782-21.332031 21.335938v64h42.664063v-64c0-11.785156-9.550782-21.335938-21.332032-21.335938zm0 0" fill="#3f51b5"/><path d="m469.5625 281.371094c-2.644531-2.648438-5.476562-5.214844-8.242188-7.535156-2.765624-2.320313-5.820312-4.71875-8.824218-6.929688-6.78125-4.972656-13.980469-9.34375-21.519532-13.066406-.320312-.1875-.648437-.351563-.992187-.492188-19.640625-9.558594-41.207031-14.488281-63.050781-14.414062-24.800782-.007813-49.1875 6.347656-70.828125 18.464844-10.652344 5.917968-20.5 13.171874-29.3125 21.589843l-.058594.058594c-8.796875 8.5-16.53125 18.035156-23.039063 28.390625-12.746093 20.523438-20.144531 43.910156-21.53125 68.03125h-8.832031c-28.265625.027344-51.171875 22.933594-51.199219 51.199219v8.53125h-8.53125c-4.714843 0-8.535156-3.820313-8.535156-8.53125v-341.335938c0-4.710937 3.820313-8.53125 8.535156-8.53125h12.796876c21.210937 0 38.402343-17.191406 38.402343-38.402343 0-21.207032-17.191406-38.398438-38.402343-38.398438h-128c-21.207032 0-38.398438 17.191406-38.398438 38.398438 0 21.210937 17.191406 38.402343 38.398438 38.402343h12.800781c4.714843 0 8.535156 3.820313 8.535156 8.53125v341.335938c0 4.710937-3.820313 8.53125-8.535156 8.53125h-12.800781c-21.207032 0-38.398438 17.191406-38.398438 38.402343 0 21.207032 17.191406 38.398438 38.398438 38.398438h465.066406c4.714844 0 8.535156-3.820312 8.535156-8.53125v-119.46875c.066406-29.542969-8.941406-58.390625-25.804688-82.644531-4.941406-7.140625-10.507812-13.828125-16.632812-19.984375zm-203.945312 24.601562c.945312-1.222656 1.851562-2.46875 2.839843-3.660156 1.28125-1.539062 2.714844-2.945312 4.0625-4.429688 5.261719 4.855469 11.191407 8.933594 17.613281 12.097657v18.773437c-10.328124-4.230468-19.851562-10.203125-28.160156-17.652344 1.238282-1.75 2.398438-3.476562 3.679688-5.128906zm164.0625-33.375c.964843.546875 1.960937 1.023438 2.910156 1.59375.75.453125 1.5.90625 2.242187 1.375 3.140625 1.972656 6.238281 4.0625 9.226563 6.316406l.195312.160157c-13.320312 15.871093-43.015625 25.15625-81.585937 25.15625-4.386719 0-8.652344-.117188-12.800781-.347657v-17.160156c4.378906.289063 8.695312.441406 12.800781.441406 27.441406 0 55.601562-5.519531 67.046875-17.535156zm-96.878907 32.453125c-17.566406-1.578125-34.289062-8.246093-48.121093-19.183593l.164062-.128907c2.710938-2.269531 5.503906-4.351562 8.335938-6.347656.75-.53125 1.5-1.050781 2.253906-1.554687 1.175781-.792969 2.378906-1.464844 3.574218-2.210938 10.191407 6.570312 21.75 10.722656 33.792969 12.136719zm-25.601562 11.699219c11.050781 3.328125 22.417969 5.492188 33.921875 6.449219.074218 0 .136718.042969.210937.042969h.070313c6.824218.613281 13.816406 1.042968 21.265625 1.042968 12.875.066406 25.726562-1.046875 38.398437-3.320312v17.441406c-12.699218 2.027344-25.542968 3.003906-38.398437 2.925781-18.707031.261719-37.367188-2-55.46875-6.722656zm110.933593 0c14.988282-4.03125 28.535157-12.21875 39.074219-23.613281.078125.085937.171875.152343.246094.230469 2.5625 2.558593 4.875 5.1875 7.101563 7.816406.597656.707031 1.175781 1.417968 1.75 2.132812.707031.855469 1.3125 1.707032 1.980468 2.613282-13.566406 14.261718-30.992187 24.261718-50.152344 28.773437zm-5.972656-52.421875c-15.667968 6.476563-32.554687 9.460937-49.492187 8.738281-15.46875.359375-30.878907-1.992187-45.535157-6.945312 15.757813-6.667969 32.691407-10.109375 49.800782-10.121094 15.457031 0 30.789062 2.832031 45.226562 8.355469zm-395.09375 209.273437c0-11.785156 9.550782-21.335937 21.332032-21.335937h12.800781c14.140625 0 25.601562-11.460937 25.601562-25.597656v-341.335938c0-14.136719-11.460937-25.597656-25.601562-25.597656h-12.800781c-11.78125 0-21.332032-9.550781-21.332032-21.335937 0-11.78125 9.550782-21.332032 21.332032-21.332032h128c11.785156 0 21.335937 9.550782 21.335937 21.332032 0 11.785156-9.550781 21.335937-21.335937 21.335937h-12.796876c-14.140624 0-25.601562 11.460937-25.601562 25.597656v341.335938c0 14.136719 11.460938 25.597656 25.601562 25.597656h8.53125v42.667969h-123.734374c-11.78125 0-21.332032-9.550782-21.332032-21.332032zm213.332032 21.332032h-17.066407v-55.464844c0-7.070312 5.730469-12.800781 12.800781-12.800781 7.070313 0 12.800782 5.730469 12.800782 12.800781v55.464844zm25.601562 0v-55.464844c0-16.496094-13.371094-29.867188-29.867188-29.867188-16.496093 0-29.867187 13.371094-29.867187 29.867188v55.464844h-17.066406v-68.265625c0-18.851563 15.28125-34.132813 34.132812-34.132813h25.601563c18.851562 0 34.132812 15.28125 34.132812 34.132813v68.265625zm34.132812 0v-68.265625c-.003906-12.613281-4.6875-24.777344-13.148437-34.132813h30.214844c18.851562 0 34.132812 15.28125 34.132812 34.132813v68.265625zm179.199219 0v-17.066406h25.601563v17.066406zm25.601563-51.199219v17.066406h-68.265625v-17.066406zm0-34.132813v17.066407h-25.601563v-17.066407zm0-17.066406h-85.332032c-4.714843 0-8.535156 3.820313-8.535156 8.53125 0 4.714844 3.820313 8.535156 8.535156 8.535156h42.664063v17.066407h-68.265625c-4.710938 0-8.535156 3.820312-8.535156 8.53125 0 4.714843 3.824218 8.535156 8.535156 8.535156h25.601562v17.066406h-25.601562c-4.710938 0-8.535156 3.820313-8.535156 8.53125 0 4.714844 3.824218 8.535157 8.535156 8.535157h68.265625v17.066406h-93.867187v-68.265625c-.027344-28.265625-22.933594-51.171875-51.199219-51.199219h-67.96875c1.152343-17.324219 5.816406-34.230469 13.707031-49.691406 19.019531 16.339844 52.324219 32.621094 109.730469 32.621094 62.472656 0 96.707031-18.96875 115.371093-37.953126 11.101563 19.335938 16.929688 41.253907 16.894532 63.554688zm0 0"/><path d="m238.933594 238.933594c14.136718 0 25.601562-11.460938 25.601562-25.601563 0-14.136719-11.464844-25.597656-25.601562-25.597656-14.140625 0-25.601563 11.460937-25.601563 25.597656 0 14.140625 11.460938 25.601563 25.601563 25.601563zm0-34.132813c4.710937 0 8.53125 3.820313 8.53125 8.53125 0 4.714844-3.820313 8.535157-8.53125 8.535157-4.714844 0-8.535156-3.820313-8.535156-8.535157 0-4.710937 3.820312-8.53125 8.535156-8.53125zm0 0"/><path d="m324.265625 179.199219c14.140625 0 25.601563-11.460938 25.601563-25.597657 0-14.140624-11.460938-25.601562-25.601563-25.601562-14.136719 0-25.597656 11.460938-25.597656 25.601562 0 14.136719 11.460937 25.597657 25.597656 25.597657zm0-34.132813c4.714844 0 8.535156 3.820313 8.535156 8.535156 0 4.710938-3.820312 8.53125-8.535156 8.53125-4.710937 0-8.53125-3.820312-8.53125-8.53125 0-4.714843 3.820313-8.535156 8.53125-8.535156zm0 0"/><path d="m418.132812 85.332031c14.140626 0 25.601563-11.460937 25.601563-25.597656 0-14.140625-11.460937-25.601563-25.601563-25.601563-14.136718 0-25.597656 11.460938-25.597656 25.601563 0 14.136719 11.460938 25.597656 25.597656 25.597656zm0-34.132812c4.714844 0 8.535157 3.820312 8.535157 8.535156 0 4.710937-3.820313 8.53125-8.535157 8.53125-4.710937 0-8.53125-3.820313-8.53125-8.53125 0-4.714844 3.820313-8.535156 8.53125-8.535156zm0 0"/><path d="m264.535156 85.332031c14.136719 0 25.597656-11.460937 25.597656-25.597656 0-14.140625-11.460937-25.601563-25.597656-25.601563-14.140625 0-25.601562 11.460938-25.601562 25.601563 0 14.136719 11.460937 25.597656 25.601562 25.597656zm0-34.132812c4.710938 0 8.53125 3.820312 8.53125 8.535156 0 4.710937-3.820312 8.53125-8.53125 8.53125-4.714844 0-8.535156-3.820313-8.535156-8.53125 0-4.714844 3.820312-8.535156 8.535156-8.535156zm0 0"/><path d="m409.601562 221.867188c14.136719 0 25.597657-11.460938 25.597657-25.601563 0-14.136719-11.460938-25.597656-25.597657-25.597656-14.140624 0-25.601562 11.460937-25.601562 25.597656 0 14.140625 11.460938 25.601563 25.601562 25.601563zm0-34.132813c4.710938 0 8.53125 3.820313 8.53125 8.53125 0 4.714844-3.820312 8.535156-8.53125 8.535156-4.714843 0-8.535156-3.820312-8.535156-8.535156 0-4.710937 3.820313-8.53125 8.535156-8.53125zm0 0"/><path d="m486.398438 102.398438c-14.136719 0-25.597657 11.464843-25.597657 25.601562s11.460938 25.601562 25.597657 25.601562c14.140624 0 25.601562-11.464843 25.601562-25.601562s-11.460938-25.601562-25.601562-25.601562zm0 34.136718c-4.710938 0-8.53125-3.820312-8.53125-8.535156 0-4.710938 3.820312-8.53125 8.53125-8.53125 4.714843 0 8.535156 3.820312 8.535156 8.53125 0 4.714844-3.820313 8.535156-8.535156 8.535156zm0 0"/><path d="m335.273438 40.199219c1.636718 1.558593 3.800781 2.4375 6.058593 2.46875.542969-.015625 1.082031-.074219 1.613281-.171875.570313-.078125 1.121094-.253906 1.628907-.511719.527343-.171875 1.015625-.429687 1.453125-.769531.488281-.292969.945312-.636719 1.363281-1.023438 3.300781-3.363281 3.300781-8.75 0-12.117187-.425781-.339844-.851563-.683594-1.363281-1.023438-.4375-.335937-.925782-.597656-1.453125-.769531-.507813-.257812-1.058594-.429688-1.628907-.511719-2.78125-.554687-5.660156.308594-7.679687 2.304688-1.558594 1.636719-2.4375 3.800781-2.464844 6.058593.011719 1.117188.246094 2.21875.683594 3.242188.410156 1.046875 1.019531 2.007812 1.789063 2.824219zm0 0"/><path d="m386.476562 134.058594c1.632813 1.558594 3.796876 2.445312 6.058594 2.476562.539063-.015625 1.078125-.074218 1.609375-.171875.570313-.078125 1.121094-.253906 1.632813-.511719.523437-.171874 1.011718-.433593 1.449218-.769531.488282-.292969.945313-.636719 1.367188-1.023437 3.296875-3.363282 3.296875-8.753906 0-12.117188-.429688-.339844-.855469-.683594-1.367188-1.023437-.4375-.335938-.925781-.597657-1.449218-.769531-.511719-.257813-1.0625-.429688-1.632813-.511719-2.78125-.554688-5.660156.308593-7.679687 2.304687-1.558594 1.636719-2.4375 3.800782-2.464844 6.058594.011719 1.117188.246094 2.21875.683594 3.242188.410156 1.046874 1.019531 2 1.792968 2.816406zm0 0"/><path d="m232.875 134.066406c1.636719 1.558594 3.800781 2.4375 6.058594 2.46875.539062-.015625 1.082031-.074218 1.613281-.171875.566406-.078125 1.117187-.253906 1.628906-.511719.523438-.171874 1.015625-.433593 1.449219-.769531.488281-.292969.945312-.636719 1.367188-1.023437 3.300781-3.363282 3.300781-8.753906 0-12.117188-.425782-.339844-.855469-.683594-1.367188-1.023437-.433594-.335938-.925781-.597657-1.449219-.769531-.511719-.257813-1.0625-.429688-1.628906-.511719-2.785156-.554688-5.664063.308593-7.679687 2.304687-1.558594 1.636719-2.441407 3.800782-2.46875 6.058594.015624 1.117188.246093 2.21875.683593 3.242188.410157 1.046874 1.019531 2.007812 1.792969 2.824218zm0 0"/><path d="m301.140625 219.390625c1.636719 1.5625 3.800781 2.445313 6.058594 2.476563.542969-.015626 1.082031-.070313 1.613281-.171876.566406-.078124 1.117188-.25 1.628906-.511718.523438-.171875 1.015625-.429688 1.453125-.765625.488281-.296875.945313-.640625 1.363281-1.027344 3.300782-3.363281 3.300782-8.75 0-12.117187-.425781-.339844-.851562-.679688-1.363281-1.023438-.4375-.335938-.929687-.59375-1.453125-.765625-.511718-.261719-1.0625-.433594-1.628906-.511719-2.785156-.558594-5.664062.304688-7.679688 2.300782-1.558593 1.636718-2.441406 3.800781-2.464843 6.058593.011719 1.117188.242187 2.21875.679687 3.246094.414063 1.042969 1.023438 2 1.792969 2.8125zm0 0"/><path d="m480.339844 57.265625c1.636718 1.558594 3.800781 2.4375 6.058594 2.46875.542968-.015625 1.082031-.070313 1.613281-.171875.570312-.078125 1.121093-.253906 1.632812-.511719.523438-.171875 1.011719-.429687 1.449219-.769531.488281-.292969.945312-.636719 1.363281-1.023438 3.300781-3.363281 3.300781-8.75 0-12.117187-.425781-.339844-.851562-.683594-1.363281-1.023437-.4375-.335938-.925781-.597657-1.449219-.769532-.511719-.257812-1.0625-.429687-1.632812-.511718-2.78125-.554688-5.660157.308593-7.679688 2.304687-1.558593 1.636719-2.4375 3.800781-2.464843 6.058594.011718 1.117187.246093 2.21875.683593 3.242187.410157 1.046875 1.019531 2.007813 1.789063 2.824219zm0 0"/><path d="m463.273438 219.390625c1.636718 1.5625 3.800781 2.445313 6.058593 2.476563.542969-.015626 1.082031-.070313 1.613281-.171876.570313-.078124 1.121094-.25 1.628907-.511718.527343-.171875 1.015625-.429688 1.453125-.765625.488281-.296875.945312-.640625 1.363281-1.027344 3.300781-3.363281 3.300781-8.75 0-12.117187-.425781-.339844-.851563-.679688-1.363281-1.023438-.4375-.335938-.925782-.59375-1.453125-.765625-.507813-.261719-1.058594-.433594-1.628907-.511719-2.78125-.558594-5.660156.304688-7.679687 2.300782-1.558594 1.636718-2.4375 3.800781-2.464844 6.058593.011719 1.117188.246094 2.21875.683594 3.246094.410156 1.042969 1.019531 2 1.789063 2.8125zm0 0"/></svg>