<svg height="512pt" viewBox="-8 0 512 512.00139" width="512pt" xmlns="http://www.w3.org/2000/svg"><path d="m452.300781 8.5h-273.101562c-18.898438 0-34.097657 15.300781-34.097657 34.101562 0 18.796876 15.300782 34.097657 34.097657 34.097657h85.300781c9.402344 0 17 7.699219 17.101562 17.101562v153.597657l-47.300781 171.601562c-4 2.601562-8.101562 4.898438-12.5 6.800781-13.398437 6.097657-27.898437 9.300781-42.699219 9.300781-4.300781 0-8.699218-.300781-13-.902343-51.199218-6.398438-89.5-50-89.402343-101.5 0-9.097657-3.597657-17.699219-10-24.097657-6.398438-6.402343-15.097657-10-24.097657-10-4.402343 0-8.800781.796876-12.800781 2.597657-4.199219 1.699219-8.101562 4.199219-11.300781 7.402343-6.398438 6.398438-10 15.097657-10 24.097657 0 89.199219 68.699219 163.402343 157.699219 170.199219 4.300781.300781 8.601562.5 13 .5 26.5.101562 52.703125-6.097657 76.402343-18.097657l94.300782-229.300781v-162.101562c0-9.398438 7.699218-17 17.097656-17.097657h85.300781c18.898438 0 34.101563-15.300781 34.101563-34.101562s-15.203125-34.199219-34.101563-34.199219zm0 0" fill="#fec108"/><path d="m341.402344 76.800781h25.597656c-9.398438 0-17 7.699219-17.097656 17.097657v162.101562l-94.300782 229.398438c-23.699218 11.902343-49.800781 18.101562-76.402343 18.101562-4.398438 0-8.699219-.199219-13-.5 22.203125-1.601562 43.902343-7.5 63.703125-17.601562l24-58.199219v-.097657l70.398437-171.101562v-162.101562c0-9.398438 7.699219-17.097657 17.101563-17.097657zm0 0" fill="#ff9801"/><path d="m486.402344 42.699219c0 18.902343-15.300782 34.101562-34.101563 34.101562h-25.601562c18.902343 0 34.101562-15.300781 34.101562-34.101562s-15.199219-34.199219-34.101562-34.199219h25.601562c18.898438 0 34.101563 15.300781 34.101563 34.199219zm0 0" fill="#ff9801"/><path d="m254 427.101562-24 58.296876c-19.898438 10-41.5 16-63.699219 17.601562-89-6.800781-157.699219-80.898438-157.699219-170.199219 0-9.101562 3.597657-17.699219 10-24.101562 3.300782-3.199219 7.097657-5.699219 11.300782-7.398438 4-1.699219 8.398437-2.601562 12.796875-2.601562 9.101562 0 17.703125 3.601562 24.101562 10 6.398438 6.402343 10 15.101562 10 24.101562-.101562 51.597657 38.300781 95.097657 89.398438 101.5 4.300781.597657 8.601562.898438 13 .898438 14.703125 0 29.300781-3.199219 42.703125-9.300781zm0 0" fill="#fec108"/><path d="m411 256.601562c-.597656 0-1.097656-.402343-1.097656-1 0-.601562.398437-1 1-1 .597656 0 1 .398438 1 1 0 .597657-.402344 1-.902344 1zm0 0"/><path d="m465.300781 356.5c-1 47.101562-11.800781 93.5-31.699219 136.199219-3.402343 6.601562-10.199218 10.699219-17.601562 10.800781h-139.199219c-7.398437 0-14.199219-4.101562-17.601562-10.699219-20-42.101562-30.796875-88-31.699219-134.699219 0-25.300781 4.902344-58.402343 13.402344-74.300781l189.597656-2 21.402344-.300781c8.5 16.199219 13.398437 49.5 13.398437 75zm0 0" fill="#ad1457"/><path d="m425.601562 221.898438v8.902343c0 7.597657-3.402343 14.898438-9.300781 19.699219-1.5 1.300781-3.199219 2.300781-4.898437 3.199219-3.5 1.699219-7.402344 2.601562-11.300782 2.601562h-107.5c-3.902343 0-7.800781-.902343-11.300781-2.601562-2.5-1.300781-4.800781-2.898438-6.699219-4.898438-4.800781-4.800781-7.5-11.300781-7.5-18.101562v-8.898438c0-14.101562 11.5-25.601562 25.597657-25.601562h107.300781c14.101562.101562 25.601562 11.5 25.601562 25.699219zm0 0" fill="#6a1b9a"/><path d="m443.800781 356.5c-1 47.101562-11.800781 93.5-31.699219 136.199219-3.402343 6.601562-10.199218 10.699219-17.601562 10.800781h-117.699219c-7.398437 0-14.199219-4.101562-17.601562-10.699219-20-42.101562-30.796875-88-31.699219-134.699219 0-25.300781 4.902344-58.402343 13.402344-74.300781l189.597656-2c8.5 16.300781 13.300781 49.300781 13.300781 74.699219zm0 0" fill="#e91e63"/><path d="m404.101562 221.898438v8.902343c0 7.597657-3.402343 14.898438-9.300781 19.699219-1.5 1.300781-3.199219 2.300781-4.898437 3.199219-3.5 1.699219-7.402344 2.601562-11.300782 2.601562h-85.800781c-3.898437 0-7.800781-.902343-11.300781-2.601562-2.5-1.300781-4.800781-2.898438-6.699219-4.898438-4.800781-4.800781-7.5-11.300781-7.5-18.101562v-8.898438c0-14.101562 11.5-25.601562 25.601563-25.601562h85.597656c14.101562.101562 25.601562 11.5 25.601562 25.699219zm0 0" fill="#9d27b0"/><path d="m281.300781 253.699219-.800781 1.601562c-7.597656 7.398438-12.398438 17.199219-13.5 27.699219l-26.199219 11.300781-9.601562 4.300781c-2.296875 1-5 .597657-6.898438-1-1.898437-1.601562-2.800781-4.101562-2.300781-6.601562 6.199219-28.300781 34.300781-37.199219 51.402344-40l1.097656-2.199219c2 2 4.300781 3.597657 6.800781 4.898438zm0 0" fill="#ffeb3a"/><path d="m325 256.300781c-2.898438 13.199219-4.597656 26.597657-5 40.097657l-33.300781 16.703124c-1.597657.796876-3.597657 1-5.296875.296876-1.703125-.699219-3.101563-2-3.800782-3.699219l-10.601562-26.699219c1.101562-10.5 5.902344-20.398438 13.5-27.699219l.800781-1.601562c3.5 1.800781 7.398438 2.699219 11.300781 2.601562zm0 0" fill="#ffe0b2"/><path d="m372.800781 296.398438-21.800781 22c-2.597656 2.601562-6.699219 2.601562-9.300781 0l-21.796875-22c.5-13.5 2.097656-26.898438 5-40.097657h42.699218c3 13.199219 4.699219 26.597657 5.199219 40.097657zm0 0" fill="#ffeb3a"/><path d="m425.699219 283.101562-10.597657 26.699219c-.699218 1.699219-2.101562 3.097657-3.800781 3.699219s-3.699219.5-5.300781-.300781l-33.199219-16.699219c-.398437-13.5-2.199219-26.898438-5.101562-40.101562h32.300781c3 0 5.902344-.5 8.699219-1.5l3.402343.5c7.597657 7.300781 12.398438 17.101562 13.597657 27.703124zm0 0" fill="#ffe0b2"/><path d="m461.5 298.699219-9.597656-4.300781-26.203125-11.296876h-.097657c-1.101562-10.5-5.902343-20.402343-13.5-27.703124l-3.402343-.5c.902343-.296876 1.800781-.699219 2.601562-1.097657 1.800781-.902343 3.398438-2 4.898438-3.199219l3 .597657c17.101562 2.800781 45.101562 11.699219 51.402343 40 .5 2.402343-.300781 5-2.300781 6.601562-1.800781 1.5-4.5 1.800781-6.800781.898438zm0 0" fill="#ffeb3a"/><path d="m179.199219 512c24.902343.101562 49.601562-5.199219 72.402343-15.398438v.097657c4.800782 9.402343 14.597657 15.300781 25.199219 15.300781h139.101563c10.597656 0 20.398437-5.898438 25.199218-15.398438 20.597657-43.902343 31.800782-91.601562 32.699219-140 .199219-16.601562-2.300781-33.203124-7.300781-49 4.101562-.601562 7.800781-3 10.199219-6.402343 2.402343-3.5 3.203125-7.699219 2.300781-11.800781-6.097656-27.898438-29.5-39.5-47.898438-44.398438 2-4.398438 3.097657-9.199219 3.097657-14.101562v-8.898438c0-18.898438-15.296875-34.101562-34.097657-34.101562h-41.601562v-94c0-4.699219 3.800781-8.5 8.5-8.5h85.300781c23.601563 0 42.699219-19.097657 42.699219-42.699219 0-23.597657-19.097656-42.699219-42.699219-42.699219h-273.101562c-23.597657 0-42.699219 19.101562-42.699219 42.699219 0 23.601562 19.101562 42.699219 42.699219 42.699219h85.300781c4.699219 0 8.5 3.800781 8.5 8.5v100.101562c-9.097656 6.398438-14.597656 16.800781-14.597656 27.898438v8.902343c0 4.898438 1.097656 9.699219 3.097656 14.097657-18.398438 4.902343-41.800781 16.601562-47.898438 44.402343-.902343 4.199219-.101562 8.597657 2.398438 12.097657s6.402344 5.800781 10.601562 6.300781c-5.5 16.300781-8.199218 33.402343-7.902343 50.5.203125 19 2.203125 37.902343 6 56.5-29 16.300781-64.5 16-93.199219-.800781-28.699219-16.796876-46.300781-47.699219-46.300781-81 0-23.597657-19.097657-42.699219-42.699219-42.699219-23.597656 0-42.5 19-42.5 42.601562.101562 99 80.300781 179.199219 179.199219 179.199219zm246.703125-23.199219c-1.902344 3.800781-5.800782 6.097657-10 6.097657h-139.101563c-4.199219.101562-8-2.296876-10-6-19.300781-41-29.800781-85.597657-30.898437-130.898438-.703125-19.898438 3.597656-39.601562 12.398437-57.398438 0-.101562 0-.203124.101563-.300781l13.898437-6 7.300781 18.398438c1.5 4 4.699219 7.101562 8.597657 8.699219 4 1.5 8.402343 1.300781 12.203125-.597657l27.699218-14 17.398438 17.597657c2.800781 2.902343 6.699219 4.5 10.699219 4.5s7.902343-1.597657 10.703125-4.5l17.398437-17.597657 27.601563 13.898438c3.796875 2 8.199218 2.199219 12.199218.699219s7.199219-4.597657 8.699219-8.597657l7.300781-18.5 15.097657 6.597657c8 17.402343 11.902343 36.402343 11.300781 55.601562-.800781 45.800781-11.300781 90.898438-30.597656 132.300781zm-17.800782-225c4.597657 5 7.699219 11.300781 8.800782 18.097657l-9 22.703124-26.902344-13.601562c-.5-8.800781-1.5-17.5-3.097656-26.199219h22c2.796875.097657 5.597656-.300781 8.199218-1zm-47.5 1.097657c1.800782 9.300781 3 18.703124 3.5 28.203124l-17.800781 17.898438-17.800781-17.898438c.5-9.5 1.699219-18.902343 3.5-28.203124zm-49 26.203124-26.800781 13.597657-9-22.699219c1.101563-6.800781 4.199219-13 8.800781-18.101562 2.597657.703124 5.300782 1 8.097657 1.101562h22c-1.597657 8.601562-2.597657 17.300781-3.097657 26.101562zm149.699219-1.800781-27.699219-12c-1.101562-5.5-3.199218-10.800781-6.199218-15.601562 15.296875 2.699219 28.097656 13.101562 33.898437 27.601562zm-44.199219-67.402343v8.902343c0 9.398438-7.601562 17.097657-17.101562 17.097657h-107.300781c-9.398438 0-17.097657-7.597657-17.097657-17.097657v-8.902343c0-9.398438 7.597657-17.097657 17.097657-17.097657h107.402343c9.398438 0 17 7.597657 17 17.097657zm-152.5-153.597657h-85.300781c-14.101562 0-25.601562-11.5-25.601562-25.601562 0-14.097657 11.5-25.597657 25.601562-25.597657h273.101563c14.097656 0 25.597656 11.5 25.597656 25.597657 0 14.101562-11.5 25.601562-25.597656 25.601562h-85.300782c-14.101562 0-25.601562 11.5-25.601562 25.597657v93.902343h-48.699219c-.898437 0-1.699219.199219-2.5.300781v-94.203124c-.101562-14.199219-11.601562-25.597657-25.699219-25.597657zm.699219 193.300781c-3 4.796876-5.101562 10.097657-6.199219 15.699219l-27.699218 12.097657c5.796875-14.597657 18.597656-25.097657 33.898437-27.796876zm-240.800781 53.097657c10.101562-9.597657 26-9.699219 36.199219-.097657 4.800781 4.796876 7.5 11.296876 7.5 18.199219 0 38.398438 19.800781 74.097657 52.5 94.300781 32.703125 20.199219 73.5 22.097657 107.800781 4.898438 4 16.800781 9.300781 33.199219 15.800781 49.101562-20.5 9.097657-42.800781 13.796876-65.199219 13.796876-89.5 0-162.101562-72.597657-162.101562-162.097657.101562-6.800781 2.800781-13.300781 7.5-18.101562zm0 0"/><path d="m273.101562 384c0-4.699219-3.800781-8.5-8.5-8.5-4.699218 0-8.5 3.800781-8.5 8.5.800782 25.699219 5.398438 51.101562 13.699219 75.398438 1.5 4.5 6.300781 6.902343 10.800781 5.402343s6.898438-6.300781 5.398438-10.800781c-7.699219-22.601562-12-46.199219-12.898438-70zm0 0"/><path d="m273.101562 349.898438c0 4.695312-3.804687 8.5-8.5 8.5-4.695312 0-8.5-3.804688-8.5-8.5 0-4.691407 3.804688-8.5 8.5-8.5 4.695313 0 8.5 3.808593 8.5 8.5zm0 0"/></svg>