<svg height="503pt" viewBox="0 0 503.87902 503" width="503pt" xmlns="http://www.w3.org/2000/svg"><path d="m231.828125 304.203125 75.539063 124.894531 10.914062 47.421875c-5.472656 11.734375-17.273438 19.207031-30.21875 19.136719-11.765625-.003906-22.679688-6.144531-28.789062-16.199219l-91.824219-151.835937-33.65625-55.648438-17.796875-29.464844-40.457032 40.457032v179.117187c0 18.542969-15.03125 33.574219-33.570312 33.574219-18.542969 0-33.574219-15.03125-33.574219-33.574219v-419.671875c0-18.542968 15.03125-33.574218 33.574219-33.574218 18.539062 0 33.570312 15.03125 33.570312 33.574218v145.542969l169.296876-169.296875c9.65625-9.628906 24.164062-12.480469 36.742187-7.21875 12.582031 5.257812 20.742187 17.589844 20.667969 31.222656.003906 8.851563-3.566406 17.324219-9.902344 23.503906l-127.414062 127.410157 25.601562 42.386719zm0 0" fill="#00bcd4"/><path d="m434.613281 261.058594-16.03125 65.972656c-.511719 2.148438-1.875 3.996094-3.777343 5.121094l-20.3125 12.335937c-1.898438 1.132813-3.261719 2.980469-3.78125 5.128907-.523438 2.144531-.15625 4.414062 1.011718 6.289062l9.820313 15.945312c1.167969 1.875 1.53125 4.144532 1.011719 6.289063-.519532 2.148437-1.882813 3.996094-3.78125 5.128906l-16.03125 9.734375c-3.957032 2.394532-5.234376 7.535156-2.855469 11.5l9.820312 15.945313c1.167969 1.875 1.535157 4.144531 1.011719 6.289062-.519531 2.148438-1.882812 3.996094-3.78125 5.128907l-16.03125 9.734374c-3.933594 2.410157-5.203125 7.53125-2.855469 11.5l9.152344 14.773438c1.277344 2.070312 1.578125 4.601562.816406 6.917969-.757812 2.3125-2.503906 4.175781-4.761719 5.082031l-36.09375 15.109375c-3.953124 1.660156-8.527343.113281-10.660156-3.609375l-4.53125-8.226562-17.710937-31.808594c-1.023438-1.839844-1.320313-3.996094-.839844-6.042969l48.515625-199.429687 58.417969 10.742187zm0 0" fill="#ff9801"/><path d="m410.355469 256.609375-15.109375 62.027344c-.511719 2.148437-1.875 4-3.777344 5.121093l-20.3125 12.339844c-1.894531 1.128906-3.257812 2.976563-3.78125 5.125-.519531 2.148438-.15625 4.414063 1.011719 6.289063l9.820312 15.949219c1.167969 1.875 1.535157 4.140624 1.011719 6.289062-.519531 2.144531-1.882812 3.992188-3.78125 5.125l-16.113281 9.734375c-3.925781 2.421875-5.164063 7.558594-2.769531 11.5l9.820312 15.949219c1.167969 1.875 1.53125 4.140625 1.011719 6.289062-.523438 2.144532-1.886719 3.992188-3.78125 5.125l-16.03125 9.734375c-3.933594 2.414063-5.203125 7.53125-2.855469 11.5l9.148438 14.773438c1.28125 2.074219 1.582031 4.605469.820312 6.917969-.761719 2.316406-2.503906 4.175781-4.765625 5.085937l-27.949219 11.664063-17.710937-31.808594c-1.023438-1.839844-1.320313-3.996094-.839844-6.042969l48.515625-199.429687zm0 0" fill="#fec108"/><path d="m289.320312 173.085938-174.042968 110.726562c-1.765625 1.121094-3.042969 2.859375-3.585938 4.878906l-11.808594 44.222656c-1.09375 4.128907 1.117188 8.410157 5.109376 9.914063l36.65625 13.898437c2.277343.875 4.820312.714844 6.972656-.4375 2.148437-1.152343 3.691406-3.183593 4.222656-5.5625l3.734375-16.929687c1.011719-4.507813 5.476563-7.351563 9.988281-6.363281l18.390625 3.996094c4.515625.996093 8.988281-1.851563 9.996094-6.363282l4.023437-18.246094c1.011719-4.503906 5.476563-7.34375 9.988282-6.355468l18.386718 3.988281c4.515626.996094 8.984376-1.84375 10-6.355469l4.019532-18.246094c1.011718-4.507812 5.472656-7.351562 9.988281-6.363281l23.191406 5.039063c2.171875.476562 4.445313.082031 6.328125-1.101563l57.554688-36.621093zm0 0" fill="#fec108"/><path d="m351.960938 245.902344.058593.097656h.085938c27.539062 22.597656 66.007812 26.285156 97.339843 9.339844 31.328126-16.949219 49.296876-51.164063 45.457032-86.578125-3.839844-35.414063-28.722656-64.984375-62.960938-74.824219zm0 0" fill="#c52828"/><path d="m424.289062 235.628906c-18.3125 11.648438-40.269531 16.160156-61.691406 12.671875-41.632812-6.933593-72.398437-42.570312-73.191406-84.765625-.792969-42.199218 28.613281-78.960937 69.957031-87.457031 41.339844-8.492187 82.863281 13.699219 98.769531 52.792969 15.910157 39.089844 1.679688 83.96875-33.84375 106.757812zm0 0" fill="#c52828"/><path d="m395.917969 235.628906c-10.109375 6.484375-21.457031 10.800782-33.320313 12.671875-42.453125-6.675781-73.742187-43.238281-73.785156-86.210937-.042969-42.976563 31.175781-79.597656 73.617188-86.359375 35.902343 5.574219 64.601562 32.804687 72.046874 68.367187 7.449219 35.558594-7.910156 72.015625-38.558593 91.53125zm0 0" fill="#f44335"/><path d="m419.671875 144.046875c0-11.5-9.394531-20.824219-20.984375-20.824219s-20.984375 9.324219-20.984375 20.824219 9.394531 20.824219 20.984375 20.824219 20.984375-9.324219 20.984375-20.824219zm0 0" fill="#c52828"/><path d="m484.023438 93.527344c5.976562-22.214844 2.960937-45.886719-8.390626-65.890625-7.460937-12.804688-19.734374-22.09375-34.085937-25.792969-33.71875-8.039062-69.566406 19.859375-79.898437 62.289062-.277344 1.140626-.386719 2.214844-.621094 3.355469-12.953125 2.089844-25.34375 6.796875-36.410156 13.84375-29.714844 18.800781-46.695313 52.40625-44.210938 87.484375l-87.140625 55.4375-17.75-29.375 122.769531-122.78125c7.882813-7.769531 12.328125-18.367187 12.355469-29.4375.074219-17.027344-10.132813-32.417968-25.847656-38.976562-15.714844-6.558594-33.835938-2.988282-45.890625 9.039062l-154.96875 154.96875v-125.28125c0-23.179687-18.789063-41.96875-41.964844-41.96875-23.179688 0-41.96875 18.789063-41.96875 41.96875v419.671875c0 23.179688 18.789062 41.96875 41.96875 41.96875 23.175781 0 41.964844-18.789062 41.964844-41.96875v-175.640625l30.417968-30.417968 8.042969 13.3125-11.625 7.394531c-3.539062 2.246093-6.105469 5.742187-7.1875 9.792969l-11.808593 44.21875c-2.230469 8.292968 2.207031 16.921874 10.25 19.933593l36.652343 13.898438c4.558594 1.738281 9.644531 1.410156 13.941407-.902344 4.292968-2.3125 7.371093-6.378906 8.429687-11.140625l3.128906-14.117188 87.929688 145.398438c7.664062 12.523438 21.273437 20.183594 35.957031 20.238281 10.941406.011719 21.441406-4.300781 29.210938-12.003906l1.886718 3.355469c4.164063 7.480468 13.285156 10.632812 21.175782 7.3125l36.160156-15.109375c4.511718-1.875 7.976562-5.628907 9.480468-10.277344 1.503907-4.652344.894532-9.726563-1.664062-13.886719l-9.117188-14.664062 16.054688-9.726563c3.8125-2.300781 6.542969-6.027343 7.59375-10.351562 1.046875-4.324219.328125-8.890625-2-12.679688l-9.820312-15.8125 16.054687-9.738281c3.808594-2.300781 6.542969-6.027344 7.589844-10.351562 1.046875-4.324219.324219-8.890626-2.007813-12.679688l-9.820312-15.8125 20.253906-12.28125c3.804688-2.296875 6.527344-6.023438 7.554688-10.347656l15.097656-61.726563c30.109375-11.175781 52.5625-36.765625 59.726562-68.070312 7.167969-31.304688-1.914062-64.113281-24.164062-87.273438 2.863281-5.886719 5.113281-12.054687 6.714844-18.398437zm-46.390626-75.347656c10.019532 2.617187 18.550782 9.183593 23.636719 18.203124 8.9375 16.226563 11.246094 35.28125 6.445313 53.171876-.917969 3.714843-2.09375 7.363281-3.523438 10.914062-8.605468-6.214844-18.175781-10.972656-28.328125-14.078125-16.484375-12.664063-36.585937-19.726563-57.371093-20.144531 8.671874-32.421875 34.875-53.882813 59.140624-48.066406zm-138.828124 127.09375c4.472656-20.605469 17.035156-38.546876 34.867187-49.792969 7.773437-4.882813 16.335937-8.386719 25.308594-10.347657-.773438 16.703126 3.707031 33.226563 12.808593 47.253907-.765624 1.753906-1.355468 3.578125-1.765624 5.449219-1.675782 7.570312-.238282 15.496093 3.988281 22 8.820312 13.546874 26.898437 17.476562 40.546875 8.820312 6.566406-4.15625 11.199218-10.761719 12.867187-18.351562 1.667969-7.589844.230469-15.53125-3.984375-22.054688-8.730468-13.378906-26.527344-17.375-40.136718-9.015625-5.789063-11.144531-8.359376-23.675781-7.429688-36.199219.242188 0 .496094-.058594.738281-.058594 27.148438-.078124 52.476563 13.632813 67.257813 36.402344 11.394531 17.640625 15.261718 39.109375 10.738281 59.617188-4.523437 20.511718-17.0625 38.359375-34.820313 49.570312-37.082031 23.550782-86.203124 12.902344-110.207031-23.886718-11.414062-17.554688-15.296875-38.960938-10.777343-59.40625zm92.851562-3.300782c2.300781-2.410156 2.960938-5.953125 1.675781-9.03125 5.664063-2.851562 12.5625-.9375 15.949219 4.421875 1.785156 2.75 2.390625 6.101563 1.679688 9.300781-.707032 3.238282-2.683594 6.058594-5.480469 7.832032-5.867188 3.734375-13.644531 2.054687-17.441407-3.769532-1.214843-1.886718-1.882812-4.070312-1.933593-6.3125 2.078125-.09375 4.042969-.964843 5.507812-2.441406zm-87.628906 265.382813-61.273438-101.28125c1.339844-1.84375 2.285156-3.945313 2.769532-6.171875l4.039062-18.210938 23.199219 5.035156c4.335937.960938 8.878906.152344 12.617187-2.25l53.890625-34.277343c.917969.375 1.78125.839843 2.703125 1.222656zm-180.84375-169.183594c-1.335938-2.210937-3.613282-3.683594-6.171875-3.992187-2.5625-.3125-5.125.570312-6.949219 2.394531l-40.457031 40.457031c-1.574219 1.574219-2.457031 3.710938-2.457031 5.933594v179.117187c0 13.90625-11.273438 25.179688-25.179688 25.179688-13.910156 0-25.183594-11.273438-25.183594-25.179688v-419.671875c0-13.90625 11.273438-25.179687 25.183594-25.179687 13.90625 0 25.179688 11.273437 25.179688 25.179687v145.542969c0 3.394531 2.042968 6.453125 5.179687 7.753906 3.136719 1.296875 6.746094.578125 9.148437-1.820312l169.292969-169.296875c4.742188-4.699219 11.144531-7.34375 17.820313-7.359375 6.742187-.042969 13.21875 2.628906 17.96875 7.414062 4.753906 4.78125 7.382812 11.277344 7.296875 18.015625.003906 6.625-2.683594 12.964844-7.445313 17.570313l-127.414062 127.386719c-2.730469 2.730468-3.246094 6.96875-1.25 10.273437l21.351562 35.351563-42.535156 27.085937zm25.179687 93.8125-3.753906 16.894531-36.636719-13.796875 11.808594-44.226562 75.003906-47.714844h.085938l.082031-.078125 88.492187-56.285156c5.972657 22.207031 19.773438 41.5 38.863282 54.324218l-45.960938 29.222657-23.183594-5.035157c-9.035156-1.976562-17.96875 3.722657-19.976562 12.75l-4.039062 18.214844-18.378907-3.988281c-9.035156-1.976563-17.96875 3.722656-19.976562 12.75l-4.039063 18.214844-17.265625-3.753907-1.097656-.242187c-9.046875-2-18 3.707031-20.011719 12.75zm139.699219 155.277344c-8.820312-.03125-16.996094-4.632813-21.605469-12.152344l-81.800781-135.320313c8.5625 1.109376 16.566406-4.484374 18.464844-12.910156l4.039062-18.210937 18.386719 3.984375c.558594.097656 1.117187.164062 1.679687.195312l71.152344 117.632813-3.132812 12.867187c-.980469 4.082032-.382813 8.386719 1.679687 12.046875l11.75 21.066407c-4.644531 6.804687-12.371093 10.855468-20.613281 10.800781zm122.375-162.253907-20.25 12.28125c-3.808594 2.300782-6.539062 6.027344-7.585938 10.351563-1.050781 4.324219-.328124 8.890625 2.003907 12.679687l9.820312 15.8125-16.058593 9.730469c-3.808594 2.300781-6.542969 6.027344-7.589844 10.355469s-.324219 8.890625 2.007812 12.683594l9.820313 15.804687-16.0625 9.742188c-3.820313 2.292969-6.5625 6.015625-7.617188 10.339843-1.058593 4.324219-.339843 8.890626 1.992188 12.683594l9.132812 14.683594-36.191406 15.105469-22.277344-39.953125 45.644531-187.507813c8.511719 5.195313 17.78125 9.027344 27.476563 11.355469 7.425781 1.773438 15.03125 2.671875 22.664063 2.679688 5.308593-.007813 10.609374-.457032 15.847656-1.335938zm74.453125-128.519531c-9.851563 39.941407-48.566406 65.75-89.222656 59.484375 11.761719-2.316406 22.992187-6.804687 33.109375-13.234375 40.128906-25.332031 55.496094-76.332031 36.042968-119.617187 18.890626 19.359375 26.46875 47.089844 20.050782 73.367187zm0 0"/></svg>