<svg height="512pt" viewBox="0 0 512.00001 512" width="512pt" xmlns="http://www.w3.org/2000/svg"><path d="m460.800781 110.933594v42.15625l-25.601562-3.328125v-38.828125c-.023438-51.585938-38.417969-95.097656-89.597657-101.546875 4.238282-.585938 8.515626-.871094 12.796876-.851563 56.535156.046875 102.355468 45.863282 102.402343 102.398438zm0 0" fill="#37474f"/><path d="m435.199219 110.933594v38.828125l-8.53125-1.109375v-37.71875c-.054688-37.679688-30.585938-68.214844-68.269531-68.265625-4.292969.007812-8.578126.40625-12.796876 1.195312-32.164062 6.1875-55.425781 34.316407-55.46875 67.070313v37.71875l-34.132812 4.4375v-42.15625c.023438-51.585938 38.417969-95.097656 89.601562-101.546875 51.179688 6.449219 89.574219 49.960937 89.597657 101.546875zm0 0" fill="#607d8b"/><path d="m290.132812 469.332031c0 18.851563-15.28125 34.132813-34.132812 34.132813h-213.332031c-18.851563 0-34.132813-15.28125-34.132813-34.132813v-426.664062c0-18.851563 15.28125-34.132813 34.132813-34.132813 18.851562 0 34.132812 15.28125 34.132812 34.132813v392.53125h179.199219c18.851562 0 34.132812 15.28125 34.132812 34.132812zm0 0" fill="#9d27b0"/><path d="m503.464844 175.019531v195.070313c.050781 8.117187-5.621094 15.148437-13.566406 16.8125-47.484376 9.546875-95.871094 13.894531-144.296876 12.96875-39.875-.785156-79.597656-5.128906-118.699218-12.96875-7.945313-1.664063-13.621094-8.695313-13.570313-16.8125v-195.070313c-.050781-8.117187 5.625-15.148437 13.570313-16.8125 86.796875-17.457031 176.199218-17.457031 262.996094 0 7.945312 1.664063 13.617187 8.695313 13.566406 16.8125zm0 0" fill="#ff9801"/><path d="m477.867188 175.019531v195.070313c.050781 8.117187-5.625 15.148437-13.570313 16.8125-39.101563 7.839844-78.824219 12.183594-118.695313 12.96875-39.875-.785156-79.597656-5.128906-118.699218-12.96875-7.945313-1.664063-13.621094-8.695313-13.570313-16.8125v-195.070313c-.050781-8.117187 5.625-15.148437 13.570313-16.8125 39.101562-7.839843 78.824218-12.183593 118.699218-12.96875 39.871094.785157 79.59375 5.128907 118.695313 12.96875 7.945313 1.664063 13.621094 8.695313 13.570313 16.8125zm0 0" fill="#fec108"/><path d="m383.898438 281.601562 7.449218 36.871094c.714844 3.515625-.1875 7.164063-2.457031 9.941406-2.269531 2.777344-5.664063 4.386719-9.25 4.386719h-42.480469c-3.582031 0-6.976562-1.609375-9.242187-4.382812-2.269531-2.773438-3.175781-6.417969-2.464844-9.929688l7.484375-37.023437c.742188-3.351563-.066406-6.863282-2.203125-9.550782-12.023437-14.597656-10.636719-36.027343 3.171875-48.953124 13.808594-12.925782 35.285156-12.894532 49.054688.066406 13.773437 12.964844 15.101562 34.398437 3.035156 48.964844-2.113282 2.722656-2.882813 6.253906-2.097656 9.609374zm0 0" fill="#607d8b"/><path d="m42.667969 512h213.332031c23.5625 0 42.667969-19.101562 42.667969-42.667969 0-23.5625-19.105469-42.664062-42.667969-42.664062h-170.667969v-384c0-23.566407-19.101562-42.667969-42.664062-42.667969-23.566407 0-42.667969 19.101562-42.667969 42.667969v426.664062c.0273438 23.554688 19.113281 42.640625 42.667969 42.667969zm-25.601563-469.332031c0-14.140625 11.460938-25.601563 25.601563-25.601563 14.136719 0 25.597656 11.460938 25.597656 25.601563v392.53125c0 4.714843 3.820313 8.535156 8.535156 8.535156h179.199219c14.136719 0 25.601562 11.460937 25.601562 25.597656 0 14.140625-11.464843 25.601563-25.601562 25.601563h-213.332031c-14.140625 0-25.601563-11.460938-25.601563-25.601563zm0 0"/><path d="m512 174.976562c.007812-12.179687-8.550781-22.6875-20.480469-25.148437-7.390625-1.492187-14.804687-2.679687-22.1875-3.917969v-34.976562c0-61.265625-49.664062-110.933594-110.933593-110.933594-61.265626 0-110.933594 49.667969-110.933594 110.933594v34.988281c-7.414063 1.234375-14.828125 2.421875-22.183594 3.914063-11.929688 2.460937-20.484375 12.960937-20.480469 25.140624v195.132813c-.007812 12.179687 8.550781 22.6875 20.480469 25.144531 43.816406 8.867188 88.410156 13.34375 133.117188 13.363282 44.707031-.019532 89.300781-4.496094 133.121093-13.363282 11.929688-2.457031 20.488281-12.964844 20.480469-25.144531zm-247.464844-64.042968c0-51.839844 42.023438-93.867188 93.863282-93.867188 51.84375 0 93.867187 42.027344 93.867187 93.867188v32.28125c-5.683594-.851563-11.375-1.484375-17.066406-2.140625v-30.140625c0-42.414063-34.382813-76.800782-76.800781-76.800782-42.414063 0-76.796876 34.386719-76.796876 76.800782v30.140625c-5.691406.65625-11.386718 1.328125-17.066406 2.140625zm153.597656 28.347656c-39.742187-3.574219-79.722656-3.574219-119.464843 0v-28.347656c0-32.988282 26.742187-59.734375 59.730469-59.734375 32.992187 0 59.734374 26.746093 59.734374 59.734375zm76.800782 230.828125c.03125 4.050781-2.789063 7.566406-6.75 8.414063-85.648438 17.378906-173.917969 17.378906-259.566406 0-3.960938-.847657-6.785157-4.363282-6.75-8.414063v-195.132813c-.035157-4.050781 2.789062-7.566406 6.75-8.414062 85.648437-17.375 173.917968-17.375 259.566406 0 3.960937.847656 6.78125 4.363281 6.75 8.414062zm0 0"/><path d="m402.773438 249.171875c.023437-19.566406-12.777344-36.839844-31.507813-42.515625-18.726563-5.671875-38.960937 1.589844-49.804687 17.882812-10.84375 16.289063-9.734376 37.757813 2.730468 52.84375.453125.707032.59375 1.570313.382813 2.382813l-7.492188 37.035156c-1.214843 6.019531.335938 12.269531 4.226563 17.023438 3.890625 4.753906 9.707031 7.511719 15.851562 7.507812h42.480469c6.140625 0 11.957031-2.757812 15.847656-7.511719 3.886719-4.753906 5.4375-11 4.222657-17.019531l-7.449219-36.90625c-.222657-.8125-.125-1.675781.273437-2.417969 6.628906-7.9375 10.253906-17.957031 10.238282-28.304687zm-27.238282 34.136719 7.449219 36.871094c.203125 1.003906-.054687 2.042968-.703125 2.835937s-1.617188 1.25-2.640625 1.25h-42.480469c-1.023437 0-1.992187-.457031-2.640625-1.25-.648437-.792969-.90625-1.832031-.703125-2.835937l7.515625-37.027344c1.28125-5.886719-.195312-12.035156-4.007812-16.699219-6.15625-7.515625-7.859375-17.734375-4.464844-26.835937 3.390625-9.101563 11.359375-15.71875 20.933594-17.375 1.523437-.246094 3.0625-.375 4.605469-.375 6.488281-.027344 12.765624 2.277343 17.691406 6.5 6.101562 5.191406 9.617187 12.796874 9.617187 20.804687.015625 6.328125-2.191406 12.460937-6.238281 17.324219-3.8125 4.707031-5.261719 10.898437-3.933594 16.8125zm0 0"/><path d="m247.464844 179.199219c-4.710938 0-8.53125 3.820312-8.53125 8.535156v102.398437c0 4.714844 3.820312 8.535157 8.53125 8.535157 4.714844 0 8.535156-3.820313 8.535156-8.535157v-102.398437c0-4.714844-3.820312-8.535156-8.535156-8.535156zm0 0"/><path d="m247.464844 315.734375c-4.710938 0-8.53125 3.820313-8.53125 8.53125v34.132813c0 4.714843 3.820312 8.535156 8.53125 8.535156 4.714844 0 8.535156-3.820313 8.535156-8.535156v-34.132813c0-4.710937-3.820312-8.53125-8.535156-8.53125zm0 0"/></svg>