<svg height="512pt" viewBox="0 0 512 512.00093" width="512pt" xmlns="http://www.w3.org/2000/svg"><path d="m460.800781 8.535156-8.703125.253906c-2.304687.054688-4.59375.371094-6.828125.9375-8.019531 1.882813-15.085937 6.613282-19.882812 13.3125l-166.910157 232.960938h-4.949218l-10.328125-14.421875-156.585938-218.539063c-6.195312-8.652343-16.070312-13.921874-26.707031-14.25l-8.707031-.253906c-3.390625 0-6.769531.402344-10.066407 1.191406-19.121093 4.671876-32.578124 21.792969-32.597656 41.472657v418.132812c.015625 9.050781 3.601563 17.730469 9.984375 24.152344 3.257813 3.191406 7.117188 5.714844 11.347657 7.421875 4.046874 1.722656 8.402343 2.59375 12.800781 2.5625 18.851562 0 34.132812-15.285156 34.132812-34.136719v-342.78125l92.757813 129.449219 46.847656 23.210938 56.320312 27.902343 17.40625 8.621094 38.316407-40.277344h.085937l81.066406-113.152343 25.597657-35.753907v342.78125c.015625 9.050781 3.605469 17.730469 9.984375 24.152344 3.261718 3.191406 7.117187 5.714844 11.351562 7.421875 4.042969 1.722656 8.402344 2.59375 12.796875 2.5625 18.851563 0 34.136719-15.285156 34.136719-34.136719v-418.132812c0-11.316407-4.496094-22.167969-12.5-30.167969-8-8.003906-18.851562-12.496094-30.167969-12.496094zm0 0" fill="#ff9801"/><path d="m503.46875 51.199219v418.132812c0 18.851563-15.285156 34.136719-34.136719 34.136719-4.394531.03125-8.753906-.839844-12.796875-2.5625 12.902344-5.164062 21.355469-17.671875 21.332032-31.574219v-418.132812c-.019532-19.679688-13.476563-36.800781-32.597657-41.472657 2.234375-.566406 4.523438-.882812 6.828125-.9375l8.703125-.253906c11.316407 0 22.167969 4.492188 30.167969 12.496094 8.003906 8 12.5 18.851562 12.5 30.167969zm0 0" fill="#f57c00"/><path d="m307.199219 274.328125v97.390625c-.015625 38.496094-9.1875 76.429688-26.757813 110.679688l-5.597656 10.9375c-3.261719 6.257812-9.742188 10.164062-16.796875 10.132812h-89.429687c-7.050782.03125-13.53125-3.875-16.792969-10.132812l-5.597657-10.9375c-17.570312-34.25-26.742187-72.183594-26.757812-110.679688v-97.390625c.125-10.242187 8.527344-18.445313 18.773438-18.328125h150.183593c10.246094-.117188 18.648438 8.085938 18.773438 18.328125zm0 0" fill="#9d27b0"/><path d="m307.199219 326.230469c12.1875-9.285157 26.558593-15.277344 41.730469-17.410157 4.222656-.695312 8.542968.453126 11.859374 3.160157 5.421876 5.914062 8.4375 13.648437 8.449219 21.671875.035157 26.449218-8.933593 52.117187-25.429687 72.789062-10.316406 14.535156-26.457032 23.851563-44.203125 25.515625l-12.371094 35.839844h.082031c3.277344.511719 6.585938.765625 9.898438.769531 30.050781-.726562 58.042968-15.433594 75.691406-39.765625 21.925781-27.621093 33.542969-62.019531 32.855469-97.28125-.386719-17.910156-7.949219-34.910156-20.992188-47.1875-10.714843-9.226562-24.765625-13.613281-38.828125-12.117187-5.894531.515625-11.722656 1.601562-17.40625 3.242187h-.085937c-7.332031 2.066407-14.449219 4.839844-21.25 8.277344zm0 0" fill="#673ab7"/><path d="m460.5625 0-8.738281.257812c-13.285157.445313-25.613281 7.023438-33.375 17.816407l-162.449219 226.730469-162.441406-226.714844c-7.765625-10.804688-20.105469-17.394532-33.40625-17.832032l-8.953125-.257812c-28.265625.0273438-51.1718752 22.933594-51.199219 51.199219v418.132812c0 23.566407 19.101562 42.667969 42.667969 42.667969 23.5625 0 42.664062-19.101562 42.664062-42.667969v-316.226562l67.613281 94.363281h-14.703124c-14.953126-.105469-27.167969 11.910156-27.308594 26.859375v97.402344c.070312 39.832031 9.558594 79.085937 27.699218 114.550781l5.597657 10.9375c4.6875 9.136719 14.121093 14.851562 24.386719 14.78125h89.429687c10.273437.078125 19.714844-5.640625 24.40625-14.78125l5.597656-10.9375c1.613281-3.132812 3.0625-6.339844 4.53125-9.539062 1.546875.101562 3.105469.355468 4.652344.355468 32.699219-.753906 63.183594-16.691406 82.464844-43.109375 23.136719-29.269531 35.359375-65.679687 34.578125-102.980469-.539063-20.183593-9.144532-39.308593-23.894532-53.09375-11.839843-10.261718-27.269531-15.398437-42.894531-14.285156l79.179688-110.515625v316.21875c0 23.566407 19.101562 42.667969 42.664062 42.667969 23.566407 0 42.667969-19.101562 42.667969-42.667969v-418.132812c-.027344-13.609375-5.464844-26.652344-15.113281-36.253907-9.648438-9.601562-22.714844-14.9804682-36.324219-14.945312zm-376.824219 121.582031c-2.160156-3.011719-6.015625-4.289062-9.546875-3.15625-3.527344 1.132813-5.921875 4.417969-5.925781 8.125v342.78125c0 14.140625-11.460937 25.601563-25.597656 25.601563-14.140625 0-25.601563-11.460938-25.601563-25.601563v-418.132812c0-18.753907 15.132813-33.996094 33.886719-34.132813l8.679687.246094c7.980469.265625 15.382813 4.21875 20.042969 10.703125l157.234375 219.453125h-62.964844zm189.105469 356.925781-5.597656 10.9375c-1.808594 3.398438-5.351563 5.511719-9.199219 5.488282h-89.429687c-3.847657.023437-7.390626-2.089844-9.195313-5.488282l-5.597656-10.9375c-16.914063-33.058593-25.761719-69.648437-25.824219-106.777343v-97.402344c.136719-5.527344 4.710938-9.90625 10.242188-9.792969h150.183593c5.527344-.113281 10.105469 4.265625 10.242188 9.792969v97.402344c-.0625 37.128906-8.914063 73.71875-25.824219 106.777343zm42.890625-147.542968c10.058594-7.214844 21.707031-11.898438 33.960937-13.652344 3.746094-.367188 4.941407.648438 5.417969 1.03125 3.695313 4.421875 5.679688 10.019531 5.601563 15.777344-.050782 24.421875-8.410156 48.101562-23.699219 67.140625-6.71875 9.011719-15.859375 15.929687-26.359375 19.945312 3.335938-16.289062 5.035156-32.871093 5.078125-49.496093zm63.410156-40.21875c11.300781 10.792968 17.816407 25.65625 18.101563 41.277344.566406 33.199218-10.425782 65.5625-31.089844 91.554687-15.609375 21.445313-40.007812 34.765625-66.492188 36.300781 2.476563-6.621094 4.601563-13.355468 6.511719-20.15625 17.789063-3.46875 33.625-13.492187 44.375-28.082031 17.722657-22.316406 27.3125-50.007813 27.175781-78.507813-.117187-10.382812-4.246093-20.3125-11.527343-27.714843-5.015625-4.09375-11.496094-5.945313-17.917969-5.121094-11.484375 1.246094-22.574219 4.90625-32.546875 10.734375v-21.75c4.695313-2.164062 9.542969-3.980469 14.507813-5.4375l.289062-.074219h.128906l.289063-.078125c5.117187-1.480468 10.367187-2.46875 15.675781-2.945312 11.753906-1.273438 23.511719 2.34375 32.519531 10zm115.789063 178.585937c0 14.140625-11.460938 25.601563-25.601563 25.601563-14.136719 0-25.597656-11.460938-25.597656-25.601563v-342.78125c0-3.707031-2.394531-6.992187-5.925781-8.125-3.53125-1.132812-7.386719.144531-9.546875 3.15625l-105.035157 146.628907c-2.558593.785156-5.179687 1.570312-7.851562 2.558593-1.902344-13.40625-13.40625-23.355469-26.949219-23.300781h-13.335937l157.253906-219.480469c4.652344-6.464843 12.039062-10.40625 20-10.675781l8.457031-.246094c18.851563 0 34.132813 15.28125 34.132813 34.132813zm0 0"/><path d="m153.601562 311.945312c-4.714843 0-8.535156 3.820313-8.535156 8.53125v54.992188c0 4.710938 3.820313 8.53125 8.535156 8.53125 4.710938 0 8.53125-3.820312 8.53125-8.53125v-54.992188c0-4.710937-3.820312-8.53125-8.53125-8.53125zm0 0"/><path d="m162.132812 290.132812c0 4.714844-3.820312 8.535157-8.53125 8.535157-4.714843 0-8.535156-3.820313-8.535156-8.535157 0-4.710937 3.820313-8.53125 8.535156-8.53125 4.710938 0 8.53125 3.820313 8.53125 8.53125zm0 0"/></svg>