<svg height="512pt" viewBox="-16 0 512 512.00924" width="512pt" xmlns="http://www.w3.org/2000/svg"><path d="m336.132812 24.671875c-1.34375-2.230469-2.949218-4.292969-4.777343-6.144531-6.421875-6.378906-15.101563-9.96875-24.152344-9.984375-4.394531-.035157-8.753906.835937-12.796875 2.558593-12.90625 5.164063-21.359375 17.675782-21.335938 31.574219v316.585938l-25.597656-45.480469-25.6875-45.570312-18.429687-32.765626-118.101563-209.496093c-6.050781-10.757813-17.4375-17.417969-29.78125-17.40625h-12.800781c-2.207031.003906-4.410156.230469-6.570313.683593-15.996093 3.136719-27.542968 17.148438-27.5625 33.449219v426.667969c.015626 9.050781 3.601563 17.726562 9.984376 24.148438 1.457031 1.371093 2.996093 2.652343 4.605468 3.839843 5.738282 3.992188 12.554688 6.136719 19.542969 6.144531 1.457031.015626 2.914063-.097656 4.351563-.34375h.085937l29.695313-105.214843v-247.894531l82.6875 146.773437 18.519531 32.769531 88.148437 156.5c4.808594 8.597656 13.128906 14.675782 22.78125 16.640625 2.300782.515625 4.644532.769531 7 .769531h11.261719c18.851563 0 34.136719-15.28125 34.136719-34.132812v-128.597656zm0 0" fill="#ff9801"/><path d="m341.339844 340.746094v128.597656c0 18.851562-15.285156 34.132812-34.136719 34.132812h-11.261719c-2.355468 0-4.699218-.253906-7-.769531 15.644532-3.472656 26.78125-17.339843 26.796875-33.363281v-128.597656l-5.207031-316.074219c-1.34375-2.230469-2.949219-4.292969-4.777344-6.144531-3.261718-3.195313-7.117187-5.714844-11.347656-7.425782 4.042969-1.722656 8.402344-2.59375 12.796875-2.558593 9.050781.015625 17.730469 3.605469 24.152344 9.984375 1.828125 1.851562 3.433593 3.914062 4.777343 6.144531zm0 0" fill="#f57c00"/><path d="m277.054688 190.789062-55.269532 77.421876-43.773437 61.355468-42.328125 59.308594-27.730469-19.800781 51.539063-72.277344 43.863281-61.351563 37.886719-53.078124zm0 0" fill="#cfd8dc"/><path d="m390.832031 46.515625c-3.890625 18.988281-10.804687 37.222656-20.480469 54.015625v.085938c-.597656 1.109374-1.28125 2.21875-1.878906 3.328124-5.273437 9.355469-11.054687 18.414063-17.320312 27.136719-4.183594 5.886719-8.535156 11.519531-12.886719 16.808594-4.777344 5.890625-9.726563 11.351563-14.675781 16.386719-5.574219 5.929687-11.535156 11.488281-17.835938 16.636718-10.601562 9.628907-23.144531 16.875-36.777344 21.25-6.378906 2.199219-13.402343 1.484376-19.203124-1.960937-.082032-.085937-.253907-.171875-.339844-.257813-5.230469-4.332031-8.238282-10.785156-8.191406-17.578124-2.046876-23.210938 13.054687-62.378907 40.53125-100.863282 36.953124-51.796875 82.433593-82.6875 101.632812-68.949218.769531.679687 1.535156 1.277343 2.304688 1.960937 5.972656 6.230469 7.507812 17.578125 5.121093 32zm0 0" fill="#02a9f4"/><path d="m446.382812 86.195312c-12.195312-1.582031-24.574218-1.089843-36.609374 1.453126-5.167969-14.210938-11.503907-27.96875-18.941407-41.132813 2.386719-14.421875.851563-25.769531-5.121093-32 24.300781 20.121094 44.839843 44.390625 60.671874 71.679687zm0 0" fill="#00bcd4"/><path d="m471.128906 160.949219c-14.585937-5.574219-29.757812-9.464844-45.226562-11.605469-3.328125-21.046875-8.730469-41.714844-16.128906-61.695312 12.035156-2.542969 24.414062-3.035157 36.609374-1.453126 13.273438 22.964844 21.695313 48.40625 24.746094 74.753907zm0 0" fill="#00838f"/><path d="m472.152344 173.832031c.902344 23.679688-2.210938 47.339844-9.214844 69.972657h-.085938c-10.316406-6.246094-21-11.859376-32-16.808594.742188-25.980469-.914062-51.976563-4.949218-77.652344 15.46875 2.140625 30.640625 6.03125 45.226562 11.605469.511719 4.265625.855469 8.53125 1.023438 12.882812zm0 0" fill="#00bcd4"/><path d="m329.5625 239.199219c-12.1875-4.210938-24.765625-7.183594-37.546875-8.875l-.085937.085937c-5.972657-5.035156-12.457032-9.730468-18.859376-14.167968-3.15625-2.21875-6.398437-4.351563-9.554687-6.484376l.082031-.085937 5.378906-7.507813c13.632813-4.375 26.175782-11.621093 36.777344-21.25l.085938.085938c5.460937 1.707031 13.3125 4.097656 22.527344 7.082031 2.066406 16.960938 2.46875 34.082031 1.195312 51.117188zm0 0" fill="#00bcd4"/><path d="m462.9375 243.804688c-5.78125 19.332031-14.90625 37.5-26.964844 53.675781-3.667968-2.730469-7.339844-5.375-10.921875-7.851563 3.316407-20.726562 5.257813-41.648437 5.800781-62.632812 11 4.949218 21.683594 10.5625 32 16.808594zm0 0" fill="#00838f"/><path d="m435.972656 297.480469c-4.710937 6.332031-9.996094 12.21875-15.785156 17.578125 1.109375-5.203125 2.898438-13.90625 4.863281-25.429688 3.582031 2.476563 7.253907 5.121094 10.921875 7.851563zm0 0" fill="#b0d3f0"/><path d="m425.050781 289.628906c-1.964843 11.523438-3.753906 20.226563-4.863281 25.429688-7.359375 6.96875-15.625 12.910156-24.578125 17.664062-10.207031-8.894531-21.335937-16.675781-33.195313-23.210937 6.011719-16.167969 10.664063-32.808594 13.910157-49.746094 16.859375 8.910156 33.132812 18.886719 48.726562 29.863281zm0 0" fill="#00838f"/><path d="m329.5625 239.199219c-.808594 12.179687-2.40625 24.292969-4.777344 36.265625l-1.367187.257812c-.757813-4.039062-2.019531-7.96875-3.753907-11.691406-6.582031-13.160156-16.066406-24.65625-27.734374-33.621094l.085937-.085937c12.78125 1.691406 25.359375 4.664062 37.546875 8.875zm0 0" fill="#00838f"/><path d="m362.414062 309.511719c-4.070312 11.207031-8.828124 22.152343-14.25 32.769531-2.308593-.339844-4.59375-.851562-6.824218-1.535156-6.5-1.800782-12.585938-4.84375-17.921875-8.960938-4.265625-2.988281-7.203125-7.515625-8.191407-12.628906-1.367187-9.472656 5.886719-17.066406 8.019532-25.769531.15625-.648438.269531-1.304688.34375-1.964844 13.410156 4.96875 26.394531 11.019531 38.824218 18.089844zm0 0" fill="#00838f"/><path d="m395.609375 332.722656c-3.722656 2.058594-7.570313 3.882813-11.519531 5.460938-11.375 4.628906-23.800782 6.042968-35.925782 4.097656 5.421876-10.617188 10.179688-21.5625 14.25-32.769531 11.859376 6.535156 22.988282 14.316406 33.195313 23.210937zm0 0" fill="#00bcd4"/><path d="m409.773438 87.648438c-13.589844 2.765624-26.820313 7.089843-39.421876 12.882812 9.675782-16.792969 16.589844-35.027344 20.480469-54.015625 7.4375 13.164063 13.773438 26.921875 18.941407 41.132813zm0 0" fill="#00838f"/><path d="m425.902344 149.34375c-15.574219-2.222656-31.285156-3.308594-47.019532-3.242188-2.132812-13.941406-5.125-27.734374-8.957031-41.304687l-1.453125-.851563c.597656-1.109374 1.28125-2.21875 1.878906-3.328124v-.085938c12.601563-5.792969 25.832032-10.117188 39.421876-12.882812 7.398437 19.980468 12.800781 40.648437 16.128906 61.695312zm0 0" fill="#00bcd4"/><path d="m430.851562 226.996094c-.542968 20.984375-2.484374 41.90625-5.800781 62.632812-15.59375-10.976562-31.867187-20.953125-48.726562-29.863281 3.480469-17.441406 5.535156-35.136719 6.144531-52.910156 16.296875 6.230469 33.195312 12.972656 48.382812 20.140625zm0 0" fill="#00bcd4"/><g fill="#00838f"><path d="m378.882812 146.101562c-13.558593-.113281-27.117187.488282-40.617187 1.789063 4.351563-5.289063 8.703125-10.921875 12.886719-16.808594 6.265625-8.722656 12.046875-17.78125 17.320312-27.136719l1.453125.851563c3.832031 13.570313 6.824219 27.363281 8.957031 41.304687zm0 0"/><path d="m430.851562 226.996094c-15.1875-7.167969-32.085937-13.910156-48.382812-20.140625.691406-20.316407-.507812-40.660157-3.585938-60.753907 15.734376-.066406 31.445313 1.019532 47.019532 3.242188 4.035156 25.675781 5.691406 51.671875 4.949218 77.652344zm0 0"/><path d="m328.367188 188.082031c-9.214844-2.984375-17.066407-5.375-22.527344-7.082031l-.085938-.085938c6.300782-5.148437 12.261719-10.707031 17.835938-16.636718l.085937.082031c2.160157 7.78125 3.730469 15.710937 4.691407 23.722656zm0 0"/><path d="m382.46875 206.855469c-.609375 17.773437-2.664062 35.46875-6.144531 52.910156-15.007813-8.105469-30.644531-14.984375-46.761719-20.566406 1.273438-17.035157.871094-34.15625-1.195312-51.117188 15.105468 4.867188 34.304687 11.351563 54.101562 18.773438zm0 0"/></g><path d="m382.46875 206.855469c-19.796875-7.421875-38.996094-13.90625-54.101562-18.773438-.960938-8.011719-2.53125-15.941406-4.691407-23.722656l-.085937-.082031c4.949218-5.035156 9.898437-10.496094 14.675781-16.386719 13.5-1.300781 27.058594-1.902344 40.617187-1.789063 3.078126 20.09375 4.277344 40.4375 3.585938 60.753907zm0 0" fill="#00bcd4"/><path d="m376.324219 259.765625c-3.246094 16.9375-7.898438 33.578125-13.910157 49.746094-12.429687-7.070313-25.414062-13.121094-38.824218-18.089844.921875-5.199219.867187-10.523437-.171875-15.699219l1.367187-.257812c2.371094-11.972656 3.96875-24.085938 4.777344-36.265625 16.117188 5.582031 31.753906 12.460937 46.761719 20.566406zm0 0" fill="#00bcd4"/><path d="m125.574219 373.6875c11.507812 8.214844 14.175781 24.203125 5.960937 35.710938l-59.492187 83.339843c-8.214844 11.507813-24.203125 14.179688-35.710938 5.964844-11.507812-8.214844-14.175781-24.203125-5.960937-35.710937l59.496094-83.34375c8.214843-11.507813 24.199218-14.175782 35.707031-5.960938zm0 0" fill="#02a9f4"/><path d="m92.683594 21.761719c-7.578125-13.429688-21.792969-21.7382815-37.210938-21.7539065h-12.800781c-23.554687.03125-42.640625 19.1171875-42.66796875 42.6679685v426.667969c-.01171875 11.316406 4.48046875 22.175781 12.48437475 30.179688 8.003907 8.003906 18.863281 12.496093 30.183594 12.484374 1.425781-.011718 2.851563-.117187 4.265625-.3125 1.390625.191407 2.792969.296876 4.199219.3125 1.90625 0 3.808593-.160156 5.691406-.476562 8.945313-1.460938 16.9375-6.441406 22.1875-13.832031l59.492187-83.34375c4.777344-6.734375 6.925782-14.980469 6.042969-23.1875l32.632813-45.730469 81.570312 144.8125c7.570313 13.421875 21.777344 21.734375 37.1875 21.757812h11.261719c23.554687-.027343 42.640625-19.113281 42.667969-42.664062v-118.257812c2.882812.375 5.789062.570312 8.695312.589843 9.839844-.019531 19.585938-1.914062 28.714844-5.582031 4.007812-1.605469 7.921875-3.445312 11.714844-5.511719l.1875-.101562.410156-.203125c9.242188-4.925782 17.808594-11.027344 25.480469-18.152344.246093-.195312.480469-.402344.699219-.621094l.214843-.1875c6.15625-5.746094 11.808594-12.007812 16.894531-18.714844 26.695313-37.578124 40.007813-83.027343 37.8125-129.066406-.160156-4.265625-.519531-8.378906-.988281-12.476562-.007812-.242188-.027343-.484375-.0625-.726563v-.289062c-3.171875-27.492188-11.953125-54.042969-25.792969-78.011719-16.28125-28.140625-37.433593-53.164062-62.472656-73.898438l-2.3125-1.960937c-.070312-.070313-.164062-.078125-.242187-.136719-.074219-.0625-.296875-.308594-.476563-.4375-12.75-9.105468-30.96875-4.617187-50.296875 7.679688-.253906-.28125-.425781-.519532-.707031-.808594-12.210938-12.1875-30.554688-15.820312-46.492188-9.210938-15.933593 6.613282-26.316406 22.167969-26.3125 39.417969v49.238281c-12.269531 18.847657-21.753906 39.367188-28.160156 60.925782-2.542968 8.746094-3.800781 17.816406-3.730468 26.925781l-28.414063 39.796875zm-75.613282 20.914062c0-14.136719 11.460938-25.601562 25.601563-25.601562h12.800781c9.257813.011719 17.792969 5.003906 22.347656 13.066406l115.429688 204.800781-32.886719 46.078125-76.125-135.183593c-1.90625-3.378907-5.847656-5.046876-9.601562-4.0625-3.75.984374-6.363281 4.375-6.367188 8.25v245.199218l-44.839843 62.820313c-3.257813 4.605469-5.3125 9.953125-5.972657 15.558593-.25-1.40625-.378906-2.832031-.386719-4.257812zm85.847657 318.769531c-6.804688 1.585938-12.949219 5.25-17.578125 10.480469v-189.363281l64.082031 113.742188zm21.671875 43.042969-59.492188 83.304688c-3.5 5.070312-9.464844 7.859375-15.597656 7.296875-6.136719-.558594-11.496094-4.382813-14.019531-10.007813-2.523438-5.621093-1.820313-12.164062 1.839843-17.121093l59.496094-83.347657c2.625-3.695312 6.617188-6.1875 11.09375-6.917969.941406-.15625 1.894532-.238281 2.847656-.238281 6.402344.007813 12.257813 3.59375 15.171876 9.292969 2.917968 5.695312 2.398437 12.542969-1.339844 17.738281zm182.613281 90.453125h-11.261719c-9.261718-.003906-17.800781-4.996094-22.347656-13.0625l-85.488281-151.765625 32.835937-46.011719 44.699219 79.359376c1.511719 2.679687 4.351563 4.335937 7.429687 4.335937.734376-.003906 1.460938-.097656 2.167969-.28125 3.75-.984375 6.367188-4.375 6.367188-8.253906v-126.292969c12.71875 8.976562 23.117187 20.851562 30.335937 34.644531 3.382813 7.066407 4.492188 15.011719 3.171875 22.734375-.027343.324219-.078125.644532-.152343.964844-.808594 2.65625-1.878907 5.230469-3.191407 7.679688-3.847656 6.417968-5.589843 13.875-4.984375 21.332031 1.269532 7.296875 5.363282 13.800781 11.394532 18.101562 4.449218 3.488281 9.375 6.324219 14.625 8.421875v122.496094c0 14.136719-11.460938 25.597656-25.601563 25.597656zm86.1875-424.839844c1.707031 3.730469 3.15625 7.628907 4.710937 11.46875-3.449218.90625-6.921874 1.933594-10.425781 3.082032 2.105469-4.941406 4.007813-9.804688 5.714844-14.550782zm47.675781 24.140626c9.25 16.910156 15.828125 35.148437 19.507813 54.066406-8.964844-2.667969-18.082031-4.785156-27.308594-6.332032-2.855469-16.089843-6.882813-31.953124-12.046875-47.460937 6.574219-.773437 13.210938-.863281 19.804688-.273437zm-44.714844 227.996093c-7.457031-6.058593-15.335937-11.578125-23.578124-16.523437 3.746093-10.816406 6.925781-21.824219 9.523437-32.972656 11.09375 6.28125 22.289063 13.277343 33.375 20.875-1.015625 5.75-2.117187 11.390624-3.3125 16.867187-4.949219 4.417969-10.308594 8.351563-16.007813 11.753906zm-53.757812-166.164062c10.238281-.851563 19.726562-1.3125 28.796875-1.425781 1.738281 13.273437 2.632813 26.640624 2.679687 40.023437-11.742187-4.265625-24.371093-8.578125-38.101562-13.089844-.804688-5.246093-1.78125-10.167969-2.925781-14.773437 3.175781-3.4375 6.375-7.003906 9.523437-10.734375zm61.625-58.410157c4.703125 13.726563 8.453125 27.761719 11.222656 42-9.625-1.046874-19.449218-1.703124-29.421875-1.875-1.84375-10.589843-4.132812-21.179687-6.945312-31.660156 8.144531-3.457031 16.542969-6.285156 25.121093-8.464844zm-18.398438 157.550782c2.148438-11.964844 3.652344-24.035156 4.507813-36.164063 12.039063 4.726563 22.535156 9.132813 31.820313 13.328125-.648438 16.378906-2.082032 30.933594-3.601563 42.566406-10.871094-7.1875-21.820313-13.757812-32.726563-19.730468zm-53.144531 30.804687c.070313-2.34375-.019531-4.695312-.265625-7.03125.296875-.539062.53125-1.113281.703125-1.707031.109375-.519531 2.300781-10.734375 3.941407-26.238281 10.082031 3.929687 19.953124 8.375 29.574218 13.320312-2.410156 11.167969-5.425781 22.195313-9.035156 33.03125-7.902344-4.078125-16.207031-7.871093-24.917969-11.375zm85.667969-128.851562c2.667969 18.769531 4.027344 37.703125 4.0625 56.660156-9.25-4.019531-19.703125-8.289063-31.363281-12.800781.25-15.394532-.5625-30.792969-2.429688-46.078125 10.195313.289062 20.136719 1 29.730469 2.191406zm-48.386719 89.769531c-10.269531-5.082031-20.808593-9.601562-31.570312-13.542969.566406-11.027343.488281-22.078125-.238281-33.097656 12.796874 4.265625 24.472656 8.371094 35.460937 12.414063-.605469 11.457031-1.824219 22.875-3.652344 34.203124zm-49.757812 1.195312c-.851563-1.21875-1.609375-2.484374-2.507813-3.652343.921875.265625 1.871094.589843 2.792969.855469-.085937.953124-.179687 1.839843-.285156 2.769531zm6.914062 58.4375c.554688-1.144531 1.125-2.40625 1.707031-3.660156 8.003907 3.28125 15.617188 6.824219 22.84375 10.628906-2.570312 6.515626-5.328124 12.820313-8.269531 18.921876-5.386719-1.511719-10.425781-4.050782-14.847656-7.476563-2.453125-1.640625-4.191406-4.148437-4.863281-7.023437.050781-4.050782 1.238281-8.007813 3.429687-11.417969zm39.542969 15.359376c4.582031 2.867187 8.824219 5.8125 12.84375 8.796874-5.828125 2.160157-11.957031 3.402344-18.167969 3.679688 1.859375-4.082031 3.617188-8.246094 5.324219-12.476562zm67.761719-37.179688c1.707031-11.496094 3.484375-26.804688 4.449219-44.46875 4.914062 2.476562 9.519531 4.925781 13.726562 7.355469-4.535156 13.0625-10.636719 25.523437-18.175781 37.113281zm5.019531-63.148438c.308594-20.660156-.867188-41.320312-3.515625-61.8125 9.21875 1.765626 18.292969 4.222657 27.144531 7.34375.203125 2.355469.46875 4.6875.5625 7.085938.75 19.09375-1.261718 38.199219-5.972656 56.71875-5.5625-3.089844-11.65625-6.246094-18.183594-9.359375zm-73.429688-97.167968c.980469 4.394531 1.792969 8.789062 2.558594 13.191406-3.890625.070312-7.890625.222656-11.945312.429688.488281-.675782 1-1.324219 1.484375-2.007813 2.773437-3.847656 5.417969-7.722656 7.902343-11.613281zm-67.53125 72.753906c3.011719-2.039062 6.046876-4.316406 9.105469-6.714844 3.683594 1.152344 7.992188 2.492188 12.847657 4.027344 1.113281 11.058594 1.480468 22.175781 1.101562 33.28125-8.546875-2.472656-17.261719-4.332031-26.078125-5.5625-5.800781-4.679688-11.730469-8.988281-17.476563-12.980469l-1.097656-.742187c7.640625-2.851563 14.898438-6.652344 21.597656-11.308594zm-33.9375 25.824219v103.714843l-32.648437-57.96875zm166.007813-146.203125c-5.171875.121094-10.332031.570312-15.445313 1.339844-4.441406-11.449219-9.632812-22.597657-15.539062-33.363282.230469-1.800781.425781-3.558594.542969-5.265625 11.316406 11.429688 21.507812 23.914063 30.441406 37.289063zm-123.34375-59.734375c6.167969.03125 12.117187 2.285156 16.753906 6.351562-15.765625 12.984375-29.976562 27.75-42.351562 43.996094v-24.746094c0-14.136719 11.460937-25.601562 25.597656-25.601562zm-54.398437 140.238281c7.839843-25.472656 19.957031-49.425781 35.839843-70.828125 14.238281-20.707031 31.644531-39.046875 51.574219-54.355469h.136719c.164062-.09375.25-.246094.394531-.351562 8.898438-7.539063 19.753906-12.398438 31.308594-14.011719 2.210937-.085937 4.394531.511719 6.253906 1.707031l.308594.257813c5.671875 4.402343 6.253906 17.917969 1.457031 35.59375-7.832031 25.472656-19.953125 49.425781-35.839844 70.824219-4.007812 5.625-8.15625 11-12.378906 16.144531-.078125.085937-.136719.171875-.207031.257812-12.300782 15.433594-26.691406 29.074219-42.761719 40.53125-15.203125 10.328125-28.277344 14.175781-34.242187 10.128907-.050782 0-.121094-.050782-.179688-.09375-5.878906-4.230469-6.511719-17.9375-1.664062-35.804688zm-9.320313 48.71875.070313.09375c.109374.109375.289062.238281.433593.367188.148438.125.367188.363281.582031.519531 2.363282 1.671875 5 2.917969 7.789063 3.683593l-37.316406 52.292969-78.28125 109.679688c-1.820313-2.226563-3.914063-4.210938-6.230469-5.914063-2.355469-1.640625-4.910156-2.972656-7.605469-3.96875l115.695313-162.0625c1.359375 1.992188 2.996094 3.78125 4.863281 5.308594zm0 0"/></svg>