<svg height="511pt" viewBox="0 0 511 511.9642" width="511pt" xmlns="http://www.w3.org/2000/svg"><path d="m267.488281 479.128906c-52.722656 31.636719-118.386719 32.464844-171.894531 2.171875-53.503906-30.296875-86.578125-87.03125-86.578125-148.515625v-153.601562c-.042969-87.746094 66.457031-161.226563 153.773437-169.910156 87.316407-8.6875 166.988282 50.253906 184.230469 136.289062l-66.898437 13.652344c-10.265625-51.664063-58.050782-87.113282-110.472656-81.953125-52.417969 5.160156-92.375 49.246093-92.367188 101.921875v153.601562c-.003906 34.035156 16.902344 65.847656 45.113281 84.886719 28.210938 19.042969 64.039063 22.824219 95.601563 10.085937zm0 0" fill="#9d27b0"/><path d="m503.949219 349.851562c0 84.828126-68.769531 153.597657-153.601563 153.597657-4.265625 0-8.53125-.167969-12.714844-.511719-65.75-5.441406-120.671874-52.28125-136.433593-116.34375-15.761719-64.066406 11.167969-131.039062 66.886719-166.363281l116.992187-11.523438 20.738281-2.046875c12.195313 4.679688 23.730469 10.933594 34.304688 18.601563 40.09375 28.832031 63.851562 75.203125 63.828125 124.589843zm0 0" fill="#f57c00"/><path d="m478.347656 349.851562c-.027344 79.828126-61.167968 146.34375-140.714844 153.085938-65.75-5.441406-120.671874-52.28125-136.433593-116.34375-15.761719-64.066406 11.167969-131.039062 66.886719-166.363281l116.992187-11.523438c10.417969 4.367188 20.296875 9.921875 29.441406 16.554688 40.09375 28.832031 63.851563 75.203125 63.828125 124.589843zm0 0" fill="#ff9801"/><path d="m413.75 196.25s-.339844.597656-1.109375 1.707031c-5.359375-.089843-10.699219-.660156-15.957031-1.707031-42.664063-8.535156-42.664063-34.132812-187.730469 8.535156 0 0 68.265625-59.734375 128-59.734375 33.84375-.871093 64.585937 19.621094 76.796875 51.199219zm0 0" fill="#00695c"/><path d="m412.640625 197.957031c-17.140625 25.066407-45.328125 40.320313-75.6875 40.960938-51.203125 0-59.734375-25.601563-128-34.132813 145.066406-42.667968 145.066406-17.070312 187.730469-8.535156 5.257812 1.046875 10.597656 1.617188 15.957031 1.707031zm0 0" fill="#009688"/><path d="m314.347656 452.789062c-37.523437-14.269531-64.671875-47.359374-71.332031-86.949218-.664063-4.605469-4.894531-7.832032-9.511719-7.25-4.617187.582031-7.917968 4.757812-7.417968 9.386718 7.476562 45.871094 38.828124 84.285157 82.269531 100.800782.960937.355468 1.972656.535156 2.996093.539062 4.132813.007813 7.675782-2.945312 8.410157-7.011718.738281-4.066407-1.542969-8.074219-5.414063-9.515626zm0 0"/><path d="m243.085938 332.785156c0 4.710938-3.820313 8.53125-8.535157 8.53125-4.710937 0-8.53125-3.820312-8.53125-8.53125 0-4.714844 3.820313-8.535156 8.53125-8.535156 4.714844 0 8.535157 3.820312 8.535157 8.535156zm0 0"/><path d="m450.496094 222.480469c5.496094-13.550781 12.640625-26.371094 21.273437-38.175781 2.582031-3.574219 2.015625-8.527344-1.304687-11.425782-3.320313-2.898437-8.300782-2.792968-11.496094.246094-10.898438 9.425781-24.5625 15.054688-38.9375 16.042969-12.191406-26.933594-36.933594-46.078125-66.0625-51.125-20.867188-88.507813-104.738281-147.34375-195.0625-136.828125-90.328125 10.511718-158.445312 87.03125-158.425781 177.96875v153.601562c-.050781 63.640625 33.6875 122.523438 88.617187 154.667969 54.925782 32.140625 122.789063 32.707031 178.246094 1.488281 73.371094 43.828125 168.167969 23.121094 216.578125-47.3125 48.410156-70.429687 33.777344-166.351562-33.425781-219.148437zm-14.277344-10.121094c-3.746094-2.34375-7.59375-4.46875-11.492188-6.484375 5.476563-.65625 10.878907-1.828125 16.136719-3.5-1.683593 3.390625-3.226562 6.726562-4.644531 9.984375zm-232.644531-14.179687-.21875.1875c-.683594.625-1.261719 1.355468-1.707031 2.167968-.121094.203125-.1875.433594-.292969.65625-.324219.683594-.550781 1.40625-.679688 2.148438-.054687.292968-.09375.566406-.121093.855468-.070313.925782.011718 1.859376.238281 2.765626v.21875.050781c.3125.949219.785156 1.835937 1.398437 2.621093.179688.21875.367188.425782.566406.625.503907.539063 1.078126 1.011719 1.707032 1.40625.238281.144532.457031.308594.707031.433594.855469.441406 1.785156.730469 2.738281.855469h.121094c14.304688 1.683594 28.398438 4.808594 42.078125 9.328125-60.6875 47.65625-79.28125 131.53125-44.425781 200.371094-28.324219 8.191406-58.851563 2.585937-82.417969-15.125-23.570313-17.714844-37.441406-45.480469-37.449219-74.960938v-153.601562c-.003906-47.019532 34.78125-86.785156 81.382813-93.039063 46.597656-6.253906 90.636719 22.9375 103.03125 68.292969-23.890625 11.859375-46.265625 26.546875-66.65625 43.742188zm42.335937 5.210937c82.277344-21.332031 102.996094-13.882813 124.722656-6.03125 7.929688 3.066406 16.089844 5.492187 24.40625 7.253906.332032.066407.648438.101563.980469.171875-15.375 16.214844-36.695312 25.460938-59.042969 25.597656-19.074218-.046874-37.863281-4.648437-54.800781-13.421874-11.746093-5.410157-23.878906-9.945313-36.292969-13.570313zm154.453125-15.1875c-.675781-.121094-1.324219-.179687-2.015625-.316406-7.476562-1.609375-14.816406-3.808594-21.945312-6.578125-23.28125-8.421875-45.519532-16.410156-124.808594 3.046875 23.976562-15.027344 56.089844-30.773438 85.359375-30.773438 25.878906-.921875 50.195313 12.355469 63.417969 34.621094zm-382.816406 144.582031v-153.601562c-.035156-81.234375 60.070313-149.949219 140.585937-160.722656 80.519532-10.773438 156.574219 39.722656 177.898438 118.105468-17.214844.601563-34.179688 4.316406-50.066406 10.976563-15.769532-52.730469-67.8125-85.925781-122.273438-77.992188-54.460937 7.933594-94.871094 54.597657-94.941406 109.632813v153.601562c-.085938 35.613282 16.972656 69.089844 45.835938 89.953125 28.863281 20.863281 66.003906 26.5625 99.792968 15.3125 9.976563 15.367188 22.484375 28.925781 37 40.105469-50.242187 24.824219-109.746094 21.929688-157.339844-7.660156s-76.523437-81.671875-76.492187-137.710938zm332.800781 162.132813c-63.71875.042969-119.996094-41.527344-138.683594-102.449219-18.6875-60.917969 4.601563-126.898438 57.386719-162.589844 2.132813.910156 4.21875 1.816406 6.257813 2.714844 19.101562 9.703125 40.214844 14.789062 61.644531 14.855469 26.859375-.113281 52.515625-11.167969 71.046875-30.617188 7.609375 3.277344 14.917969 7.214844 21.835938 11.777344-1.449219 4.136719-2.660157 7.925781-3.652344 11.261719-2.640625-1.386719-5.824219-1.269532-8.359375.308594-2.535157 1.582031-4.039063 4.386718-3.953125 7.371093-3.699219-.101562-7.03125 2.222657-8.21875 5.726563-1.488282 4.472656.925781 9.304687 5.394531 10.796875l8.761719 2.917969 2.910156 8.746093c1.285156 3.980469 5.289062 6.425781 9.417969 5.753907 4.128906-.671876 7.148437-4.257813 7.105469-8.441407h.109374c4.1875.003907 7.757813-3.035156 8.429688-7.167969.671875-4.132812-1.757812-8.144531-5.734375-9.464843l-2.40625-.800781c.675781-2.894532 2.160156-8.722657 4.601563-16.214844 46.382812 39.34375 63.273437 103.460937 42.292968 160.550781-20.976562 57.089844-75.363281 95.011719-136.1875 94.964844zm0 0"/></svg>