<svg height="512pt" viewBox="0 0 512.00037 512" width="512pt" xmlns="http://www.w3.org/2000/svg"><path d="m299.863281 58.539062c-31.96875-32.058593-75.390625-50.054687-120.664062-50.003906h-136.53125c-18.851563 0-34.132813 15.28125-34.132813 34.132813v426.664062c-.027344 13.902344 8.425782 26.410157 21.332032 31.574219 4.046874 1.722656 8.402343 2.59375 12.800781 2.5625 9.054687.007812 17.742187-3.582031 24.148437-9.988281 6.402344-6.402344 9.996094-15.089844 9.984375-24.148438v-119.464843h102.398438c7.996093-.003907 15.980469-.574219 23.894531-1.707032l97.960938-49.578125c65.546874-66.785156 65.011718-173.914062-1.191407-240.042969zm-223.0625 223.0625v-204.800781h102.398438c56.554687 0 102.402343 45.84375 102.402343 102.398438 0 56.554687-45.847656 102.402343-102.402343 102.402343zm0 0" fill="#2296f3"/><path d="m299.863281 58.539062c-31.96875-32.058593-75.390625-50.054687-120.664062-50.003906h-25.597657c68.757813-.128906 130.863282 41.058594 157.496094 104.449219 26.632813 63.394531 12.578125 136.578125-35.640625 185.597656l-97.964843 49.578125c-7.914063 1.132813-15.898438 1.703125-23.890626 1.707032h25.597657c7.996093-.003907 15.980469-.574219 23.894531-1.707032l97.960938-49.578125c65.546874-66.785156 65.011718-173.914062-1.191407-240.042969zm0 0" fill="#1566c0"/><path d="m503.464844 400.980469c.085937 52.226562-34.898438 96.34375-78.25 100.097656-6.128906.671875-12.316406.613281-18.429688-.171875-.511718-.171875-1.109375-.339844-1.621094-.511719-5.378906-1.878906-11.179687-4.011719-11.179687-5.972656 0-63.0625 12.800781-126.039063 12.800781-189.015625 1.441406-.933594 2.953125-1.761719 4.523438-2.472656 4.371094-1.898438 9.171875-2.605469 13.90625-2.046875 43.351562 3.753906 78.335937 47.871093 78.25 100.09375zm0 0" fill="#ff9801"/><path d="m477.867188 400.980469c.085937 50.007812-31.914063 92.503906-72.703126 99.414062-5.378906-1.878906-11.179687-4.011719-11.179687-5.972656 0-63.0625 12.800781-126.039063 12.800781-189.015625 1.441406-.933594 2.953125-1.761719 4.523438-2.472656 37.800781 9.898437 66.644531 50.601562 66.558594 98.046875zm0 0" fill="#fec108"/><path d="m294 304c-8.019531-2.910156-16.59375-3.972656-25.082031-3.113281-43.320313 3.753906-78.34375 47.863281-78.25 100.113281-.085938 52.25 34.9375 96.347656 78.25 100.113281 6.136719.613281 12.324219.535157 18.441406-.230469 4.371094-1.65625 12.800781-5.035156 12.800781-7.546874 0-64.109376-6.160156-125.257813-6.160156-189.335938zm0 0" fill="#fec108"/><path d="m365.832031 308.515625c6.898438-5.394531 15.601563-7.949219 24.320313-7.144531 5.648437.417968 11.222656 1.527344 16.597656 3.304687 30.882812 9.386719 53.589844 52.179688 53.570312 96.324219-.015624 44.140625-22.6875 86.953125-53.570312 96.3125-5.375 1.78125-10.949219 2.890625-16.597656 3.304688-8.511719-.679688-16.789063-3.109376-24.320313-7.132813zm0 0" fill="#f57c00"/><path d="m328.292969 497.75c-7.824219 2.605469-16.101563 3.582031-24.320313 2.867188-5.644531-.414063-11.214844-1.523438-16.585937-3.304688-30.882813-9.386719-53.597657-52.171875-53.574219-96.3125.027344-44.144531 22.691406-86.972656 53.574219-96.359375 5.371093-1.773437 10.945312-2.882813 16.585937-3.304687 8.585938-.679688 22.027344 4.378906 24.320313 11.410156 0 58.460937 17.066406 116.90625 17.066406 175.394531 0 3.226563-11.65625 6.015625-17.066406 9.609375zm0 0" fill="#f57c00"/><path d="m293.136719 401c0 51.660156 24.011719 98.789062 53.929687 98.226562 29.917969.554688 53.949219-46.566406 53.933594-98.226562-.019531-51.664062-24.015625-98.792969-53.933594-98.230469-29.917968-.5625-53.953125 46.558594-53.929687 98.230469zm0 0" fill="#fec108"/><path d="m42.667969 512c11.316406.011719 22.175781-4.480469 30.179687-12.484375s12.496094-18.863281 12.484375-30.183594v-110.933593h93.867188c3.507812 0 7.050781-.167969 10.574219-.375-5.082032 13.75-7.667969 28.296874-7.636719 42.957031-.09375 56.722656 37.707031 104.441406 85.964843 108.621093 3.0625.300782 6.117188.453126 9.128907.453126 3.753906.003906 7.507812-.234376 11.230469-.71875 1.5-.226563 2.910156-.863282 4.070312-1.839844 3.558594.789062 7.167969 1.339844 10.804688 1.636718 1.960937.144532 3.914062.222657 5.84375.222657 7.441406.039062 14.835937-1.15625 21.886718-3.535157.558594-.242187 1.082032-.550781 1.570313-.910156 4.3125 1.804688 8.929687 2.769532 13.601562 2.847656h1.351563c4.769531-.066406 9.484375-1.039062 13.890625-2.867187.496093.371094 1.03125.683594 1.597656.929687 7.046875 2.378907 14.441406 3.570313 21.878906 3.535157 1.9375 0 3.882813-.078125 5.859375-.222657 3.628906-.304687 7.234375-.851562 10.789063-1.636718 1.160156.976562 2.570312 1.613281 4.070312 1.839844 3.722657.484374 7.472657.722656 11.230469.71875 2.992188 0 6.023438-.144532 9.042969-.445313 48.34375-4.1875 86.1875-51.90625 86.050781-108.59375.101562-56.722656-37.699219-104.4375-85.964844-108.621094-6.773437-.683593-13.605468-.597656-20.359375.257813-1.5.234375-2.910156.875-4.070312 1.851562-3.550781-.792968-7.152344-1.339844-10.777344-1.640625-9.375-.792969-18.8125.332031-27.734375 3.3125-.554688.242188-1.078125.550781-1.5625.914063-1.910156-.796875-3.882812-1.441406-5.894531-1.929688.1875-10.128906 2.984375-33.28125 14.574219-38.195312 4.199218-1.917969 6.113281-6.828125 4.320312-11.082032-1.792969-4.253906-6.648438-6.308593-10.953125-4.636718-5.511719 2.394531-10.230469 6.304687-13.609375 11.273437-.714844-2.398437-1.605469-4.734375-2.671875-7-.296875-.613281-.699219-1.148437-1.046875-1.703125 21.347656-55.105468 14.144531-117.191406-19.257812-165.941406-33.398438-48.75-88.699219-77.8867188-147.792969-77.875h-136.53125c-23.554688.0273438-42.6406252 19.113281-42.667969 42.667969v426.664062c.0273438 23.554688 19.113281 42.640625 42.667969 42.667969zm156.535156-111.019531c-.078125-43.324219 26.648437-81.457031 61.277344-89.984375-21.136719 19.421875-35.226563 53.503906-35.210938 89.992187.019531 36.492188 14.089844 70.605469 35.140625 89.996094-34.558594-8.519531-61.277344-46.652344-61.207031-90.003906zm136.457031-134.585938c1.570313 9.542969 2.507813 19.183594 2.804688 28.851563-1.972656.476562-3.90625 1.101562-5.785156 1.867187-.5-.375-1.039063-.691406-1.613282-.9375-4.425781-1.503906-9.003906-2.527343-13.652344-3.054687 6.886719-8.332032 12.996094-17.277344 18.246094-26.726563zm-31.019531 225.714844c-5.027344-.371094-9.984375-1.363281-14.761719-2.960937-26.667968-8.082032-47.550781-46.804688-47.523437-88.160157.023437-41.351562 20.855469-80.058593 47.785156-88.222656 4.703125-1.546875 9.574219-2.515625 14.507813-2.886719 3.253906-.242187 6.523437-.203125 9.769531.113282-18.132813 19.300781-29.796875 54.527343-29.78125 91.007812.019531 36.480469 11.648437 71.679688 29.78125 91.007812-3.25.316407-6.519531.351563-9.777344.101563zm42.28125-1.425781h-.382813c-7.085937-.382813-13.726562-3.578125-18.449218-8.875-15.8125-15.519532-26.453125-48-26.453125-80.820313 0-32.808593 10.597656-65.285156 26.453125-80.808593 4.804687-5.371094 11.574218-8.574219 18.773437-8.882813h.742188c7.09375.378906 13.746093 3.574219 18.472656 8.875 15.8125 15.519531 26.457031 48.007813 26.457031 80.828125 0 32.816406-10.609375 65.296875-26.457031 80.816406-4.84375 5.535156-11.816406 8.753906-19.171875 8.851563zm148.011719-89.675782c.066406 43.324219-26.660156 81.46875-61.285156 89.992188 21.128906-19.421875 35.222656-53.503906 35.207031-90-.015625-36.5-14.089844-70.605469-35.132813-89.992188 34.5625 8.515626 61.289063 46.660157 61.210938 90zm-105.421875-91.128906c5.023437.378906 9.984375 1.375 14.761719 2.960938 26.660156 8.089844 47.53125 46.804687 47.515624 88.160156-.015624 41.351562-20.855468 80.066406-47.785156 88.226562-4.703125 1.546876-9.574218 2.515626-14.507812 2.882813-3.25.242187-6.519532.203125-9.761719-.109375 18.132813-19.296875 29.789063-54.519531 29.78125-91s-11.65625-71.679688-29.78125-91.007812c3.25-.316407 6.519531-.355469 9.777344-.113282zm-372.445313-267.210937c0-14.140625 11.460938-25.601563 25.601563-25.601563h136.53125c52.484375-.113281 101.765625 25.242188 132.1875 68.011719s38.203125 97.640625 20.875 147.183594c-5.460938-2.011719-11.390625-2.394531-17.066407-1.101563-11.195312 1.835938-19.511718 11.363282-19.8125 22.707032-.035156 4.710937 3.753907 8.554687 8.464844 8.59375 2.289063.113281 4.523438-.734376 6.160156-2.34375 1.632813-1.609376 2.519532-3.828126 2.441407-6.121094 0-4.378906 4.992187-5.839844 6.519531-6.1875 2.261719-.484375 4.605469-.394532 6.824219.253906-7.671875 16.488281-18.101563 31.542969-30.839844 44.519531-.394531.480469-.738281 1.003907-1.015625 1.5625-.5.09375-.953125.246094-1.441406.359375-1.167969-.960937-2.574219-1.585937-4.070313-1.808594-37.078125-4.75-73.160156 14.21875-90.273437 47.453126-6.289063.769531-12.617188 1.167968-18.953125 1.183593h-102.398438c-4.714843 0-8.535156 3.820313-8.535156 8.535157v119.464843c0 14.140625-11.460937 25.601563-25.597656 25.601563-14.140625 0-25.601563-11.460938-25.601563-25.601563zm0 0"/><path d="m76.800781 290.132812h102.398438c61.265625 0 110.933593-49.664062 110.933593-110.933593 0-61.265625-49.667968-110.933594-110.933593-110.933594h-102.398438c-4.714843 0-8.535156 3.820313-8.535156 8.535156v204.800781c0 4.710938 3.820313 8.53125 8.535156 8.53125zm8.53125-204.800781h93.867188c51.84375 0 93.867187 42.027344 93.867187 93.867188 0 51.84375-42.023437 93.867187-93.867187 93.867187h-93.867188zm0 0"/><path d="m360.429688 346.050781c-2.160157-4.101562-7.199219-5.730469-11.351563-3.664062-4.152344 2.066406-5.894531 7.070312-3.921875 11.269531 11.96875 30.828125 11.824219 65.042969-.410156 95.769531-1.136719 2.886719-.617188 6.164063 1.355468 8.558594 1.976563 2.394531 5.09375 3.527344 8.144532 2.960937 3.050781-.570312 5.554687-2.746093 6.535156-5.691406 22.605469-62.0625.605469-107.308594-.351562-109.203125zm0 0"/></svg>