<svg height="512pt" viewBox="0 0 512 512.00105" width="512pt" xmlns="http://www.w3.org/2000/svg"><path d="m336.640625 452.269531-3.839844-362.753906c-31.03125-50.375-85.984375-81.035156-145.152343-80.980469-47.101563 0-98.21875 19.113282-129.109376 50.003906-32.058593 31.964844-50.054687 75.390626-50.003906 120.660157v153.601562c0 94.292969 84.820313 170.667969 179.113282 170.667969 29.238281.039062 57.988281-7.484375 83.457031-21.847656l11.859375 11.863281c12.121094 12.085937 31.316406 13.328125 44.894531 2.902344 13.574219-10.421875 17.332031-29.289063 8.78125-44.117188zm-46.589844-238.335937v72.019531l-4.78125 77.910156c-2.683593 8.480469-6.472656 16.570313-11.261719 24.0625l-13.910156-13.910156c-13.339844-13.335937-34.960937-13.335937-48.300781 0-13.335937 13.339844-13.335937 34.960937 0 48.300781l7.765625 7.765625c-10.292969 3.410157-21.070312 5.140625-31.914062 5.117188-56.574219 0-110.847657-45.820313-110.847657-102.398438v-153.601562c0-56.574219 54.273438-102.398438 110.847657-102.398438 27.167968-.035156 53.238281 10.742188 72.449218 29.953125 19.210938 19.210938 29.988282 45.277344 29.953125 72.445313zm0 0" fill="#ffeb3a"/><path d="m458.242188 372.054688h-148.480469c-50.859375-10.15625-45.058594-39.253907-45.058594-39.253907 25.601563-17.066406 25.601563-51.199219 25.601563-51.199219v-18.433593c0-31.144531-2.730469-63.914063 5.207031-94.378907 4.777343-18.175781 15.957031-41.898437 37.289062-43.6875h102.398438c21.25 1.789063 32.515625 25.511719 37.292969 43.6875 7.9375 30.464844 5.203124 63.234376 5.203124 94.378907v18.433593s0 34.132813 25.601563 51.199219c0 0 5.804687 29.097657-45.054687 39.253907zm0 0" fill="#4e342e"/><path d="m432.640625 372.054688h-122.878906c-50.859375-10.15625-45.058594-39.253907-45.058594-39.253907 25.601563-17.066406 25.601563-51.199219 25.601563-51.199219v-18.433593c0-31.144531-2.730469-63.914063 5.207031-94.378907 4.777343-18.175781 15.957031-41.898437 37.289062-43.6875h76.800781c21.246094 1.789063 32.511719 25.511719 37.289063 43.6875 7.9375 30.464844 5.207031 63.234376 5.207031 94.378907v18.433593s0 34.132813 25.597656 51.199219c0 0 5.804688 29.097657-45.054687 39.253907zm0 0" fill="#795548"/><path d="m469.335938 418.132812v17.066407c-.03125 9.414062-7.652344 17.039062-17.066407 17.070312h-25.601562c9.414062-.03125 17.039062-7.65625 17.066406-17.070312v-17.066407c0-11.433593-12.542969-21.160156-29.78125-24.402343 4.191406-.800781 8.449219-1.199219 12.714844-1.195313 23.550781 0 42.667969 11.433594 42.667969 25.597656zm0 0" fill="#c52828"/><path d="m443.734375 418.132812v17.066407c-.027344 9.414062-7.652344 17.039062-17.066406 17.070312h-110.933594c-9.414063-.03125-17.039063-7.65625-17.066406-17.070312v-17.066407c0-11.433593 12.542969-21.160156 29.78125-24.402343h.171875c4.191406-.800781 8.445312-1.199219 12.714844-1.195313 10.421874-.195312 20.71875 2.335938 29.863281 7.335938 7.21875 3.375 12.09375 10.332031 12.800781 18.261718 0-11.433593 12.546875-21.160156 29.78125-24.402343h.171875c17.238281 3.242187 29.78125 12.96875 29.78125 24.402343zm0 0" fill="#f44335"/><path d="m469.335938 409.601562v8.53125c0-14.164062-19.117188-25.597656-42.667969-25.597656s-42.667969 11.433594-42.667969 25.597656c0-14.164062-19.113281-25.597656-42.664062-25.597656-23.554688 0-42.667969 11.433594-42.667969 25.597656v-8.53125h.171875c.851562-19.285156 4.691406-30.039062 10.921875-37.546874 7.421875-9.132813 18.347656-13.398438 31.574219-22.1875 16.296874-10.835938 22.183593-32.085938 24.320312-46.078126h36.691406c2.132813 13.992188 8.019532 35.242188 24.320313 46.078126 13.226562 8.789062 24.148437 13.054687 31.574219 22.1875 6.226562 7.507812 10.066406 18.261718 10.921874 37.546874zm0 0" fill="#bfa885"/><path d="m409.601562 76.800781v55.46875c0 2.355469-1.910156 4.265625-4.265624 4.265625l-6.828126 1.277344c-9.023437 1.648438-18.144531 2.703125-27.308593 3.160156-9.160157-.453125-18.28125-1.507812-27.304688-3.160156l-6.828125-1.277344c-2.355468 0-4.265625-1.910156-4.265625-4.265625v-93.953125c.023438-1.753906 1.113281-3.316406 2.753907-3.9375 1.640624-.621094 3.492187-.175781 4.671874 1.121094 2.625 4.480469 4.527344 9.347656 5.628907 14.421875 3.757812 12.03125 8.023437 26.878906 12.546875 26.878906 4.691406 0 9.042968-12.375 12.796875-25.855469 2.484375-10.800781 5.558593-21.453124 9.21875-31.914062.753906-1.230469 2.097656-1.980469 3.539062-1.980469 1.445313 0 2.785157.75 3.542969 1.980469 3.625 10.101562 6.617188 20.417969 8.960938 30.890625 3.839843 13.824219 8.277343 26.878906 13.140624 26.878906zm0 0" fill="#fec108"/><path d="m435.199219 38.316406v93.953125c0 2.355469-1.910157 4.265625-4.265625 4.265625l-6.824219 1.277344c-17.449219 3.140625-35.210937 4.199219-52.910156 3.160156 9.164062-.457031 18.285156-1.511718 27.308593-3.160156l6.828126-1.277344c2.355468 0 4.265624-1.910156 4.265624-4.265625v-55.46875c7.082032 0 13.480469-36.609375 18.089844-41.300781 1.191406-1.296875 3.054688-1.742188 4.703125-1.121094 1.652344.617188 2.761719 2.175782 2.804688 3.9375zm0 0" fill="#ff9801"/><path d="m435.199219 174.335938v81.664062c0 28.277344-22.921875 51.199219-51.199219 51.199219s-51.199219-22.921875-51.199219-51.199219v-81.664062zm0 0" fill="#ffe0b2"/><path d="m443.734375 230.402344c-42.667969 0-59.734375-42.667969-59.734375-42.667969s-17.066406 42.667969-59.730469 42.667969v-75.375h119.464844zm0 0" fill="#795548"/><path d="m384 149.941406c-13.960938-.003906-27.898438-1.265625-41.632812-3.773437l-6.296876-1.101563c-6.675781-.519531-11.824218-6.101562-11.800781-12.796875v-93.9375c-.027343-5.136719 3.058594-9.78125 7.804688-11.75 4.898437-2 10.523437-.851562 14.242187 2.910157 4.261719 6.042968 7.171875 12.933593 8.535156 20.199218 1.015626 3.320313 2.5 8.191406 3.984376 12.347656 2.875-7.816406 5.972656-19.628906 7.679687-26.34375 1.433594-7.226562 3.664063-14.273437 6.648437-21.007812 2.289063-3.820312 6.417969-6.160156 10.875-6.160156 4.457032 0 8.585938 2.339844 10.875 6.160156 2.992188 6.734375 5.222657 13.78125 6.648438 21.007812 1.757812 6.742188 4.8125 18.519532 7.679688 26.335938 1.484374-4.15625 2.96875-9.039062 3.984374-12.359375 1.355469-7.257813 4.25-14.144531 8.492188-20.1875 3.71875-3.761719 9.335938-4.910156 14.234375-2.910156 4.742187 1.976562 7.816406 6.621093 7.78125 11.757812v93.9375c.019531 6.71875-5.167969 12.308594-11.871094 12.796875l-6.253906 1.136719c-13.730469 2.492187-27.65625 3.746094-41.609375 3.738281zm-42.664062-21.335937 4.085937.742187c25.515625 4.648438 51.660156 4.648438 77.175781 0l4.070313-.707031v-64.851563c-4.265625 12.925782-8.449219 21.546876-17.066407 21.546876-12.21875 0-17.066406-16.386719-24.59375-45.339844-.316406-1.226563-.65625-2.558594-1.007812-3.863282-.339844 1.328126-.679688 2.636719-.996094 3.855469-7.535156 28.960938-12.410156 45.347657-24.601562 45.347657-8.652344 0-12.851563-8.636719-17.066406-21.539063zm0 0"/><path d="m309.761719 380.585938c-.574219.003906-1.144531-.050782-1.707031-.160157-58.566407-11.691406-52.054688-47.785156-51.761719-49.289062.441406-2.222657 1.746093-4.179688 3.632812-5.433594 21.546875-14.371094 21.804688-43.804687 21.804688-44.101563v-18.433593c0-6.269531-.113281-12.59375-.230469-18.960938-1.628906-25.996093.292969-52.097656 5.707031-77.574219 7.902344-30.074218 24.242188-48.308593 44.824219-50.03125 4.699219-.398437 8.828125 3.089844 9.222656 7.785157.394532 4.695312-3.089844 8.824219-7.789062 9.222656-18.394532 1.542969-26.929688 26.628906-29.746094 37.347656-4.960938 23.980469-6.683594 48.515625-5.121094 72.953125.113282 6.457032.230469 12.894532.230469 19.257813v18.433593c0 1.511719-.3125 35.710938-25.734375 55.644532.714844 5.972656 5.972656 19.976562 38.324219 26.453125 4.265625.886719 7.179687 4.851562 6.753906 9.1875-.425781 4.339843-4.050781 7.660156-8.410156 7.699219zm0 0"/><path d="m458.242188 380.585938c-4.375-.019532-8.023438-3.347657-8.453126-7.699219-.425781-4.355469 2.507813-8.324219 6.796876-9.195313 32.265624-6.449218 37.546874-20.367187 38.296874-26.453125-25.402343-19.941406-25.703124-54.117187-25.703124-55.628906v-18.441406c0-6.363281.113281-12.800781.222656-19.257813 1.566406-24.441406-.15625-48.984375-5.121094-72.96875-2.183594-8.347656-10.820312-35.738281-29.746094-37.332031-4.695312-.398437-8.183594-4.527344-7.785156-9.222656.394531-4.695313 4.523438-8.183594 9.21875-7.785157 29.253906 2.464844 41.097656 35.839844 44.824219 50.019532 5.390625 25.488281 7.277343 51.589844 5.609375 77.585937-.121094 6.367188-.222656 12.691407-.222656 18.960938v18.433593c0 .273438.425781 29.867188 21.792968 44.101563 1.886719 1.253906 3.195313 3.210937 3.636719 5.433594.304687 1.527343 6.824219 37.597656-51.753906 49.289062-.53125.105469-1.074219.160157-1.613281.160157zm0 0"/><path d="m443.734375 238.933594c-24.339844-.359375-46.835937-13.050782-59.734375-33.699219-12.894531 20.648437-35.390625 33.339844-59.730469 33.699219-4.714843 0-8.535156-3.820313-8.535156-8.53125 0-4.714844 3.820313-8.535156 8.535156-8.535156 36.46875 0 51.660157-36.933594 51.804688-37.308594 1.292969-3.246094 4.433593-5.375 7.925781-5.375 3.496094 0 6.636719 2.128906 7.929688 5.375.605468 1.511718 15.5625 37.308594 51.804687 37.308594 4.710937 0 8.535156 3.820312 8.535156 8.535156 0 4.710937-3.824219 8.53125-8.535156 8.53125zm0 0"/><path d="m384 315.734375c-32.972656-.039063-59.695312-26.757813-59.730469-59.734375v-26.195312c0-4.714844 3.820313-8.535157 8.53125-8.535157 4.714844 0 8.535157 3.820313 8.535157 8.535157v26.195312c0 23.566406 19.101562 42.667969 42.664062 42.667969 23.566406 0 42.667969-19.101563 42.667969-42.667969v-26.195312c0-4.714844 3.820312-8.535157 8.53125-8.535157 4.714843 0 8.535156 3.820313 8.535156 8.535157v26.195312c-.039063 32.976562-26.757813 59.695312-59.734375 59.734375zm0 0"/><path d="m366.933594 264.535156c-4.710938 0-8.53125-3.820312-8.53125-8.535156v-8.53125c0-4.714844 3.820312-8.535156 8.53125-8.535156 4.714844 0 8.535156 3.820312 8.535156 8.535156v8.53125c0 4.714844-3.820312 8.535156-8.535156 8.535156zm0 0"/><path d="m401.066406 264.535156c-4.710937 0-8.53125-3.820312-8.53125-8.535156v-8.53125c0-4.714844 3.820313-8.535156 8.53125-8.535156 4.714844 0 8.535156 3.820312 8.535156 8.535156v8.53125c0 4.714844-3.820312 8.535156-8.535156 8.535156zm0 0"/><path d="m469.335938 426.667969c-4.714844 0-8.535157-3.820313-8.535157-8.535157 0-2.976562-.085937-5.699218-.152343-8.265624-.898438-20.175782-5.265626-27.898438-8.96875-32.359376-5.0625-5.363281-11.035157-9.789062-17.640626-13.074218-3.769531-2.226563-7.816406-4.617188-12.089843-7.457032-18.507813-12.3125-25.464844-34.988281-28.03125-51.898437-.523438-3.046875.640625-6.132813 3.039062-8.074219 2.402344-1.945312 5.664063-2.441406 8.53125-1.296875 2.867188 1.144531 4.894531 3.75 5.300781 6.808594 1.703126 11.042969 6.59375 30.941406 20.605469 40.261719 4.003907 2.660156 7.78125 4.890625 11.316407 6.960937 8.363281 4.257813 15.878906 10 22.1875 16.949219 8.878906 12.367188 13.382812 27.339844 12.796874 42.554688.085938 2.84375.171876 5.742187.171876 8.910156-.007813 4.707031-3.828126 8.515625-8.53125 8.515625zm0 0"/><path d="m298.667969 426.667969c-4.714844 0-8.535157-3.820313-8.535157-8.535157 0-3.078124.09375-5.910156.179688-8.574218.855469-20.128906 4.855469-33.28125 12.886719-42.957032 6.277343-6.914062 13.761719-12.632812 22.082031-16.871093 3.535156-2.082031 7.332031-4.308594 11.324219-6.972657 14.023437-9.316406 18.9375-29.214843 20.617187-40.257812.40625-3.0625 2.433594-5.664062 5.300782-6.808594 2.867187-1.144531 6.128906-.648437 8.53125 1.292969 2.398437 1.945313 3.5625 5.03125 3.039062 8.074219-2.558594 16.878906-9.523438 39.59375-28.03125 51.898437-4.265625 2.851563-8.335938 5.234375-12.109375 7.460938-6.566406 3.277343-12.511719 7.675781-17.5625 13.003906-3.761719 4.53125-8.132813 12.253906-9.019531 32.539063-.085938 2.617187-.171875 5.273437-.171875 8.15625.007812 2.265624-.890625 4.441406-2.492188 6.046874-1.601562 1.601563-3.773437 2.503907-6.039062 2.503907zm0 0"/><path d="m384 426.667969c-4.710938 0-8.53125-3.820313-8.53125-8.535157 0-8.054687-14.601562-17.066406-34.132812-17.066406-19.535157 0-34.136719 9.011719-34.136719 17.066406 0 4.714844-3.820313 8.535157-8.53125 8.535157-4.714844 0-8.535157-3.820313-8.535157-8.535157 0-19.140624 22.496094-34.132812 51.203126-34.132812 28.703124 0 51.199218 14.992188 51.199218 34.132812 0 4.714844-3.820312 8.535157-8.535156 8.535157zm0 0"/><path d="m469.335938 426.667969c-4.714844 0-8.535157-3.820313-8.535157-8.535157 0-8.054687-14.601562-17.066406-34.132812-17.066406s-34.132813 9.011719-34.132813 17.066406c0 4.714844-3.820312 8.535157-8.535156 8.535157-4.710938 0-8.53125-3.820313-8.53125-8.535157 0-19.140624 22.492188-34.132812 51.199219-34.132812s51.199219 14.992188 51.199219 34.132812c0 4.714844-3.820313 8.535157-8.53125 8.535157zm0 0"/><path d="m469.335938 460.800781h-170.667969c-4.714844 0-8.535157-3.820312-8.535157-8.53125v-42.667969c0-4.738281 3.839844-8.578124 8.578126-8.578124 4.734374 0 8.574218 3.839843 8.574218 8.578124.003906.417969-.027344.832032-.085937 1.246094v32.886719h153.601562v-32.945313c-.058593-.394531-.085937-.792968-.085937-1.1875-.015625-2.257812.867187-4.425781 2.453125-6.027343 1.585937-1.601563 3.75-2.503907 6.003906-2.507813h.164063c4.710937 0 8.53125 3.820313 8.53125 8.535156v42.667969c0 2.261719-.898438 4.433594-2.5 6.03125-1.597657 1.601563-3.769532 2.5-6.03125 2.5zm0 0"/><path d="m290.050781 294.488281c4.710938 0 8.53125-3.824219 8.53125-8.535156v-106.753906c.039063-29.429688-11.636719-57.671875-32.449219-78.484375-20.8125-20.808594-49.050781-32.484375-78.484374-32.445313-63.597657 0-119.378907 51.839844-119.378907 110.929688v153.601562c0 59.09375 55.78125 110.933594 119.378907 110.933594 11.765624.023437 23.453124-1.855469 34.621093-5.554687 2.808594-.933594 4.933594-3.257813 5.613281-6.140626.679688-2.878906-.179687-5.910156-2.277343-8l-7.757813-7.738281c-9.964844-10.027343-9.964844-26.222656 0-36.25 10.15625-9.632812 26.070313-9.632812 36.226563 0l13.90625 13.910157c1.828125 1.820312 4.378906 2.714843 6.941406 2.441406 2.566406-.277344 4.867187-1.699219 6.261719-3.867188 5.199218-8.121094 9.304687-16.894531 12.210937-26.085937 1.054688-4.351563-1.429687-8.777344-5.691406-10.144531-4.265625-1.363282-8.855469.800781-10.523437 4.953124-1.386719 4.335938-3.078126 8.566407-5.058594 12.664063l-5.972656-5.972656c-16.023438-16.675781-42.414063-17.554688-59.507813-1.976563-17.09375 15.574219-18.667969 41.933594-3.546875 59.433594-5.105469.839844-10.269531 1.261719-15.445312 1.261719-54.527344 0-102.3125-43.863281-102.3125-93.867188v-153.601562c0-50.003907 47.785156-93.863281 102.3125-93.863281 24.90625-.039063 48.804687 9.839843 66.414062 27.453124 17.613281 17.609376 27.488281 41.507813 27.453125 66.410157v106.753906c0 2.261719.898437 4.433594 2.5 6.035156 1.601563 1.597657 3.769531 2.5 6.035156 2.5zm0 0"/><path d="m187.648438 512c28.5.007812 56.585937-6.800781 81.921874-19.855469l7.371094 7.371094c15.152344 15.113281 39.15625 16.660156 56.125 3.621094 16.96875-13.035157 21.652344-36.628907 10.957032-55.160157-2.441407-3.902343-7.535157-5.164062-11.515626-2.855468-3.980468 2.308594-5.414062 7.359375-3.238281 11.414062 5.792969 10.023438 4.140625 22.691406-4.039062 30.890625-10.144531 9.652344-26.082031 9.652344-36.230469 0l-11.863281-11.863281c-2.710938-2.714844-6.898438-3.285156-10.238281-1.398438-24.195313 13.613282-51.488282 20.769532-79.25 20.769532-92.464844 0-170.582032-74.238282-170.582032-162.132813v-153.601562c-.105468-43.019531 17-84.292969 47.507813-114.625 28.859375-28.859375 77.175781-47.507813 123.074219-47.507813 56.246093-.199218 108.519531 28.96875 137.890624 76.9375 2.554688 3.8125 7.671876 4.921875 11.574219 2.507813 3.90625-2.414063 5.203125-7.484375 2.933594-11.476563-32.464844-53.011718-90.234375-85.246094-152.398437-85.035156-50.199219 0-103.234376 20.609375-135.140626 52.507812-33.71875 33.523438-52.625 79.144532-52.507812 126.691407v153.601562c0 97.136719 85.933594 179.199219 187.648438 179.199219zm0 0"/></svg>