<svg height="512pt" viewBox="-1 0 512 512.00007" width="512pt" xmlns="http://www.w3.org/2000/svg"><path d="m358.398438 217.601562v-126.578124l-71.59375-44.261719c-30.382813-24.777344-68.398438-38.28125-107.605469-38.226563h-136.53125c-18.851563 0-34.132813 15.28125-34.132813 34.132813v426.664062c0 18.851563 15.28125 34.132813 34.132813 34.132813 18.851562 0 34.132812-15.28125 34.132812-34.132813v-119.464843h103.851563l82.941406 137.128906c6.214844 10.222656 17.308594 16.46875 29.269531 16.46875 5.472657.046875 10.871094-1.273438 15.703125-3.839844l15.957032-43.007812c-.671876-1.722657-1.5-3.378907-2.476563-4.949219l-56.320313-93.183594-14.761718-24.40625c16.53125-7.636719 31.714844-17.894531 44.972656-30.375zm-114.6875 41.214844c-5.1875 4.222656-10.792969 7.910156-16.722657 11.007813h-.085937c-14.703125 7.753906-31.078125 11.796875-47.703125 11.777343h-102.398438v-204.800781h102.398438c54.59375-.09375 99.617187 42.746094 102.230469 97.277344zm0 0" fill="#ff9801"/><path d="m332.800781 358.398438h51.199219v92.246093h-51.199219zm0 0" fill="#283593"/><path d="m409.601562 494.933594c0 4.710937-3.820312 8.53125-8.535156 8.53125h-85.332031c-4.714844 0-8.535156-3.820313-8.535156-8.53125.023437-23.820313 16.472656-44.476563 39.679687-49.835938 3.769532-.933594 7.640625-1.394531 11.519532-1.363281 28.261718.042969 51.160156 22.941406 51.203124 51.199219zm0 0" fill="#0377bc"/><path d="m452.695312 216.492188-43.4375 119.464843c-4.914062 13.480469-17.734374 22.449219-32.085937 22.441407h-37.460937c-14.359376.042968-27.195313-8.9375-32.085938-22.441407l-43.433594-119.464843c-3.808594-10.457032-2.285156-22.113282 4.085938-31.234376 6.371094-9.125 16.789062-14.570312 27.914062-14.589843h124.417969c11.140625-.007813 21.585937 5.425781 27.976563 14.554687 6.390624 9.128906 7.921874 20.800782 4.109374 31.269532zm0 0" fill="#0377bc"/><path d="m324.265625 129.792969h68.269531v40.875h-68.269531zm0 0" fill="#283593"/><path d="m332.800781 358.398438h25.597657v92.246093h-25.597657zm0 0" fill="#3f51b5"/><path d="m324.265625 129.792969h42.667969v40.875h-42.667969zm0 0" fill="#3f51b5"/><path d="m435.199219 72.535156c0 35.328125-34.386719 64-76.800781 64-3.851563.003906-7.699219-.253906-11.519532-.769531-36.949218-4.609375-65.277344-31.148437-65.277344-63.230469 0-32.597656 21.757813-59.480468 65.277344-63.40625 3.828125-.417968 7.671875-.617187 11.519532-.59375 51.203124 0 76.800781 28.671875 76.800781 64zm0 0" fill="#0377bc"/><g fill="#2296f3"><path d="m386.476562 494.933594c0 4.710937-3.824218 8.53125-8.535156 8.53125h-62.207031c-4.714844 0-8.535156-3.820313-8.535156-8.53125.023437-23.820313 16.472656-44.476563 39.679687-49.835938 23.214844 5.332032 39.648438 26.019532 39.597656 49.835938zm0 0"/><path d="m429.566406 216.492188-43.433594 119.464843c-4.914062 13.480469-17.734374 22.449219-32.085937 22.441407h-14.335937c-14.359376.042968-27.195313-8.9375-32.085938-22.441407l-43.433594-119.464843c-3.808594-10.457032-2.285156-22.113282 4.085938-31.234376 6.371094-9.125 16.789062-14.570312 27.914062-14.589843h101.292969c11.140625-.007813 21.585937 5.425781 27.976563 14.554687 6.390624 9.128906 7.921874 20.800782 4.105468 31.269532zm0 0"/><path d="m412.074219 72.535156c0 32.082032-28.332031 58.621094-65.195313 63.230469-36.949218-4.609375-65.277344-31.148437-65.277344-63.230469 0-32.597656 21.757813-59.480468 65.277344-63.40625 43.4375 3.925782 65.195313 30.890625 65.195313 63.40625zm0 0"/></g><path d="m261.972656 204.886719c-.277344-.070313-.566406-.101563-.851562-.085938-13.058594-.035156-24.625 8.414063-28.558594 20.863281-3.9375 12.449219.671875 26.011719 11.375 33.488282 10.707031 7.476562 25.023438 7.132812 35.359375-.847656zm0 0" fill="#3f51b5"/><path d="m454.828125 204.886719c.277344-.070313.566406-.101563.851563-.085938 13.058593-.035156 24.621093 8.414063 28.558593 20.863281 3.933594 12.449219-.671875 26.011719-11.375 33.488282-10.707031 7.476562-25.027343 7.132812-35.359375-.847656zm0 0" fill="#3f51b5"/><path d="m337.101562 213.332031h42.664063c11.785156 0 21.335937 9.550781 21.335937 21.335938 0 11.78125-9.550781 21.332031-21.335937 21.332031h-42.664063c-11.78125 0-21.335937-9.550781-21.335937-21.332031 0-11.785157 9.554687-21.335938 21.335937-21.335938zm0 0" fill="#00bcd4"/><path d="m42.667969 512c11.316406.011719 22.175781-4.480469 30.179687-12.484375s12.496094-18.863281 12.484375-30.183594v-110.933593h90.507813l80.457031 133.035156c7.800781 12.730468 21.636719 20.515625 36.566406 20.566406 4.847657.007812 9.65625-.824219 14.21875-2.457031 2.605469 1.585937 5.597657 2.4375 8.652344 2.457031h85.332031c9.425782 0 17.066406-7.640625 17.066406-17.066406-.011718-19.523438-9.570312-37.804688-25.597656-48.949219v-82.0625c11.472656-4.402344 20.492188-13.539063 24.746094-25.070313l24.875-68.34375c11.273438 4.425782 23.992188 3.125 34.132812-3.5 22.980469 23.347657 21.621094 53.675782-4.011718 90.316407l-1.648438-2.902344c-1.503906-2.648437-4.308594-4.292969-7.355468-4.316406l-29.429688-.238281h-.058594c-3.027344 0-5.828125 1.605468-7.355468 4.214843l-6.394532 10.898438c-2.210937 4.046875-.808594 9.117187 3.167969 11.453125 3.976563 2.335937 9.089844 1.085937 11.542969-2.820313l3.867187-6.679687 19.625.136718 9.679688 17.066407-9.910157 16.929687-20.90625-.171875h-.066406c-4.714844-.015625-8.550781 3.789063-8.566406 8.5-.019531 4.714844 3.785156 8.550781 8.496094 8.566407l25.839844.171874h.070312c3.023438 0 5.824219-1.605468 7.355469-4.214843l14.90625-25.394531c1.539062-2.632813 1.558593-5.882813.050781-8.535157l-3.675781-6.484375c43.679687-57.769531 29.636719-95.8125 6.765625-118.714844 6.757812-10.761718 7.707031-24.183593 2.535156-35.792968-5.171875-11.605469-15.785156-19.875-28.304688-22.046875-3.667968-20.222657-21.320312-34.902344-41.875-34.816407h-19.566406v-26.878906c25.0625-11.007812 41.632813-35.367187 42.667969-62.71875 0-44.066406-33.460937-72.535156-85.335937-72.535156-34.449219 0-60.714844 12.621094-74.511719 33.988281-30.472657-22.015625-67.09375-33.9023435-104.6875-33.988281h-136.53125c-23.554688.0273438-42.6406252 19.113281-42.667969 42.667969v426.664062c.0273438 23.554688 19.113281 42.640625 42.667969 42.667969zm197.117187-277.332031c.035156-9.253907 6.039063-17.421875 14.859375-20.214844.386719 1.671875.878907 3.316406 1.464844 4.929687l12.800781 35.117188c-2.476562.996094-5.121094 1.507812-7.789062 1.5-5.660156 0-11.085938-2.246094-15.085938-6.25-4-4-6.25-9.425781-6.25-15.082031zm21.460938-54.339844c-3.460938 4.984375-5.8125 10.652344-6.902344 16.621094-12.523438 2.167969-23.140625 10.433593-28.316406 22.042969-5.175782 11.609374-4.226563 25.03125 2.53125 35.796874-2.566406 2.570313-4.96875 5.300782-7.195313 8.175782-13.058593 6.652344-27.507812 10.113281-42.164062 10.101562h-93.867188v-187.734375h93.867188c48.082031-.136719 88.414062 36.242188 93.226562 84.082031-4.355469 2.917969-8.132812 6.621094-11.144531 10.914063zm-28.175782 95.808594c3.871094-2.148438 7.605469-4.539063 11.179688-7.15625 9.464844 4.871093 20.574219 5.414062 30.472656 1.492187l11.144532 30.667969c-11.546876 10.207031-24.511719 18.691406-38.484376 25.191406-2.203124 1.019531-3.871093 2.925781-4.578124 5.25-.710938 2.320313-.398438 4.832031.855468 6.910157l7.238282 11.945312c-2.085938.632812-3.851563 2.035156-4.933594 3.925781l-1.648438 2.894531c-22.296875-31.976562-26.042968-59.164062-11.246094-81.121093zm25.300782 90.96875h2.5625l20.667968 34.164062c-.660156-.21875-1.339843-.359375-2.03125-.40625h-.070312l-20.90625.167969-9.914062-16.894531zm28.851562 10.453125c2.144532.535156 4.410156.210937 6.316406-.90625 4.0625-2.382813 5.425782-7.609375 3.046876-11.671875l-6.394532-10.898438c-1.53125-2.609375-4.328125-4.214843-7.355468-4.214843h-.058594l-12.246094.085937-7.457031-12.347656c10.300781-5.445313 20.03125-11.902344 29.054687-19.269531l7.449219 20.480468c4.234375 11.53125 13.230469 20.679688 24.6875 25.105469v74.980469zm113.886719 117.375h-85.375c0-23.5625 19.101563-42.667969 42.664063-42.667969 23.566406 0 42.667968 19.105469 42.667968 42.667969zm-42.667969-59.734375c-5.78125.019531-11.53125.878906-17.066406 2.5625v-70.828125h34.132812v70.828125c-5.546874-1.6875-11.308593-2.546875-17.109374-2.5625zm118.570313-200.53125c0 11.78125-9.550781 21.332031-21.332031 21.332031-2.65625 0-5.292969-.507812-7.757813-1.5l12.800781-35.117188c.585938-1.617187 1.074219-3.265624 1.46875-4.941406 8.796875 2.820313 14.78125 10.984375 14.820313 20.226563zm-35.410157-44.554688c4.839844 6.820313 6 15.589844 3.097657 23.433594l-43.453125 119.464844c-3.695313 10.109375-13.308594 16.839843-24.074219 16.855469h-37.546875c-10.757812-.019532-20.363281-6.75-24.0625-16.855469l-11.628906-31.980469c-.0625-.1875-.121094-.359375-.199219-.539062l-31.519531-86.945313c-2.851563-7.84375-1.703125-16.582031 3.078125-23.417969 4.785156-6.839844 12.597656-10.917968 20.941406-10.929687h124.398437c8.363282-.054688 16.214844 4.03125 20.96875 10.914062zm-57.601562-27.980469h-51.199219v-20.410156c16.773438 4.457032 34.425781 4.457032 51.199219 0zm-25.601562-145.066406c42.105468 0 68.269531 21.257813 68.269531 55.46875 0 21.511719-15.191407 40.164063-37.285157 49.355469l-.261718.136719c-19.683594 7.988281-41.707032 7.988281-61.390625 0l-.289063-.121094c-22.085937-9.207031-37.308594-27.859375-37.308594-49.371094 0-34.210937 26.1875-55.46875 68.265626-55.46875zm-341.332032 25.601563c0-14.140625 11.460938-25.601563 25.601563-25.601563h136.53125c35.101562.070313 69.234375 11.523438 97.28125 32.632813-2.296875 7.390625-3.449219 15.09375-3.414063 22.835937 1.035156 27.351563 17.605469 51.710938 42.667969 62.71875v26.878906h-19.5c-2.46875.023438-4.929687.265626-7.355469.71875-7.988281-54.398437-54.699218-94.679687-109.679687-94.585937h-102.398438c-4.714843 0-8.535156 3.820313-8.535156 8.535156v204.800781c0 4.710938 3.820313 8.53125 8.535156 8.53125h102.398438c10.28125-.0625 20.507812-1.550781 30.378906-4.417968-6.585937 22.003906-2.320313 50.867187 25.53125 87.789062l-3.683594 6.484375c-1.507812 2.652344-1.484375 5.90625.058594 8.535157l14.898437 25.394531c1.53125 2.609375 4.328126 4.214843 7.355469 4.214843h.070313l25.835937-.203124c3.882813-.0625 7.21875-2.773438 8.074219-6.5625l26.394531 43.664062c-9.75 10.765625-15.214843 24.730469-15.359375 39.253906-10.832031 2.546875-22.070312-2.164062-27.847656-11.675781l-82.941406-137.128906c-1.542969-2.570313-4.316406-4.144531-7.3125-4.148438h-103.851563c-4.714843 0-8.535156 3.820313-8.535156 8.535157v119.464843c0 14.140625-11.460937 25.601563-25.597656 25.601563-14.140625 0-25.601563-11.460938-25.601563-25.601563zm0 0"/><path d="m341.367188 68.265625c0 4.714844-3.820313 8.535156-8.53125 8.535156-4.714844 0-8.535157-3.820312-8.535157-8.535156 0-4.710937 3.820313-8.53125 8.535157-8.53125 4.710937 0 8.53125 3.820313 8.53125 8.53125zm0 0"/><path d="m392.566406 68.265625c0 4.714844-3.820312 8.535156-8.53125 8.535156-4.714844 0-8.535156-3.820312-8.535156-8.535156 0-4.710937 3.820312-8.53125 8.535156-8.53125 4.710938 0 8.53125 3.820313 8.53125 8.53125zm0 0"/><path d="m337.066406 204.800781c-10.671875 0-20.53125 5.691407-25.863281 14.933594-5.335937 9.238281-5.335937 20.625 0 29.867187 5.332031 9.238282 15.191406 14.933594 25.863281 14.933594h42.667969c16.492187 0 29.867187-13.375 29.867187-29.867187 0-16.496094-13.375-29.867188-29.867187-29.867188zm55.46875 29.867188c0 7.066406-5.734375 12.796875-12.800781 12.796875h-42.667969c-7.070312 0-12.800781-5.730469-12.800781-12.796875 0-7.070313 5.730469-12.800781 12.800781-12.800781h42.667969c7.066406 0 12.800781 5.730468 12.800781 12.800781zm0 0"/><path d="m375.464844 281.601562h-34.132813c-4.710937 0-8.53125 3.820313-8.53125 8.53125 0 4.714844 3.820313 8.535157 8.53125 8.535157h34.132813c4.714844 0 8.535156-3.820313 8.535156-8.535157 0-4.710937-3.820312-8.53125-8.535156-8.53125zm0 0"/><path d="m375.464844 315.734375h-34.132813c-4.710937 0-8.53125 3.820313-8.53125 8.53125 0 4.714844 3.820313 8.535156 8.53125 8.535156h34.132813c4.714844 0 8.535156-3.820312 8.535156-8.535156 0-4.710937-3.820312-8.53125-8.535156-8.53125zm0 0"/></svg>