<svg height="512pt" viewBox="0 0 512.27009 512" width="512pt" xmlns="http://www.w3.org/2000/svg"><path d="m503.738281 51.355469v366.933593c0 47.128907-38.207031 85.335938-85.335937 85.335938h-273.066406l139.777343-102.402344h99.15625c9.414063-.027344 17.039063-7.652344 17.066407-17.066406v-176.726562l-34.132813-190.207032h102.398437c9.058594-.011718 17.746094 3.582032 24.148438 9.984375 6.40625 6.40625 10 15.09375 9.988281 24.148438zm0 0" fill="#558b30"/><path d="m478.136719 51.355469v366.933593c0 47.128907-38.203125 85.335938-85.332031 85.335938h-247.46875l139.777343-102.402344h99.15625c9.414063-.027344 17.039063-7.652344 17.066407-17.066406v-176.726562l-34.132813-190.207032h76.800781c9.054688-.011718 17.746094 3.582032 24.148438 9.984375 6.402344 6.40625 9.996094 15.09375 9.984375 24.148438zm0 0" fill="#8bc34a"/><path d="m367.203125 17.222656h51.199219c28.277344 0 51.199218 22.925782 51.199218 51.199219v85.335937c0 28.277344-22.921874 51.199219-51.199218 51.199219h-51.199219c-28.277344 0-51.199219-22.921875-51.199219-51.199219v-85.335937c0-28.273437 22.921875-51.199219 51.199219-51.199219zm0 0" fill="#cddc39"/><path d="m409.871094 204.957031v76.800781s17.066406 25.597657 34.132812 25.597657c0 0-34.132812 34.136719-51.199218 0-17.066407 34.136719-51.203126 0-51.203126 0 17.070313 0 34.136719-25.597657 34.136719-25.597657v-76.800781zm0 0" fill="#f44335"/><path d="m503.738281 315.890625v85.332031c-9.238281.039063-18.234375-2.960937-25.601562-8.53125-10.742188-8.058594-17.066407-20.703125-17.066407-34.132812 0-13.429688 6.324219-26.078125 17.066407-34.136719 7.367187-5.570313 16.363281-8.570313 25.601562-8.53125zm0 0" fill="#4e342e"/><path d="m478.136719 324.421875v68.269531c-10.742188-8.058594-17.066407-20.703125-17.066407-34.132812 0-13.429688 6.324219-26.078125 17.066407-34.136719zm0 0" fill="#795548"/><path d="m130.828125 9.714844c64.398437-7.855469 125.835937 29.273437 148.824219 89.941406 3.992187 10.273438 2.667968 21.851562-3.539063 30.957031s-16.503906 14.570313-27.523437 14.609375h-1.621094c-14.085938-.214844-26.59375-9.058594-31.488281-22.269531-13.078125-33.167969-48.277344-51.960937-83.113281-44.375h1.65625c-36.328126 7.808594-60.875 41.808594-56.863282 78.746094 4.011719 36.9375 35.289063 64.871093 72.441406 64.699219 71.214844-.007813 131.222657 53.15625 139.792969 123.851562 8.574219 70.695312-36.988281 136.660156-106.136719 153.671875-69.152343 17.011719-140.117187-20.285156-165.324218-86.886719-3.992188-10.273437-2.667969-21.855468 3.539062-30.960937 6.207032-9.105469 16.503906-14.570313 27.523438-14.609375h1.621094c14.085937.214844 26.59375 9.0625 31.488281 22.273437 13.378906 34.03125 49.996093 52.78125 85.429687 43.742188 35.433594-9.035157 58.597656-43.035157 54.042969-79.320313-4.558594-36.28125-35.40625-63.496094-71.976563-63.496094-74.5.109376-136.191406-57.84375-140.738281-132.207031s49.625-139.398437 123.589844-148.367187" fill="#fec108"/><path d="m384.269531 401.222656c5.574219 7.367188 8.570313 16.363282 8.535157 25.601563 0 23.5625-19.105469 42.667969-42.667969 42.667969s-42.667969-19.105469-42.667969-42.667969c-.035156-9.238281 2.960938-18.234375 8.535156-25.601563zm0 0" fill="#795548"/><path d="m469.601562 8.691406h-102.398437c-32.972656.035156-59.695313 26.757813-59.734375 59.730469v85.335937c.039062 32.972657 26.761719 59.695313 59.734375 59.734376v65.578124c-5.539063 7.535157-16.980469 19.753907-25.601563 19.753907-3.449218 0-6.558593 2.078125-7.878906 5.265625-1.320312 3.191406-.59375 6.859375 1.847656 9.300781 2.109376 2.105469 21.195313 20.480469 41.148438 17.289063 6.144531-1.027344 11.789062-4.023438 16.085938-8.535157v62.011719c0 4.714844-3.820313 8.535156-8.535157 8.535156h-88.386719c.707032-3.484375 1.347657-6.980468 1.800782-10.53125 5.519531-42.605468-7.558594-85.527344-35.90625-117.816406-28.34375-32.285156-69.210938-50.8125-112.175782-50.851562-32.785156.1875-60.414062-24.433594-63.988281-57.027344-3.574219-32.589844 18.066407-62.613282 50.113281-69.53125.667969-.140625 1.3125-.359375 1.929688-.648438 29.734375-4.714844 58.761719 11.828125 69.855469 39.816406 6.183593 16.460938 21.835937 27.441407 39.421875 27.65625h1.65625c13.742187.09375 26.625-6.664062 34.355468-18.023437 7.890626-11.472656 9.640626-26.089844 4.683594-39.097656-24.378906-64.34375-89.539062-103.722657-157.839844-95.394531-.679687.082031-1.347656.242187-1.988281.476562-77.515625 11.296875-133.128906 80.574219-127.394531 158.699219 5.734375 78.128906 70.859375 138.542969 149.195312 138.40625 32.269532-.003907 59.492188 24.015625 63.511719 56.03125 4.015625 32.015625-16.429687 62.015625-47.695312 69.984375-31.269531 7.96875-63.582031-8.585938-75.378907-38.617188-6.179687-16.46875-21.835937-27.453125-39.421874-27.664062h-1.621094c-13.746094-.097656-26.632813 6.664062-34.363282 18.027344-7.886718 11.472656-9.636718 26.085937-4.675781 39.09375 21.292969 56.191406 74.214844 94.132812 134.269531 96.253906.363282.101562.734376.175781 1.109376.222656h273.066406c51.816406-.058594 93.804687-42.050781 93.867187-93.867188v-366.933593c.011719-11.316407-4.480469-22.175781-12.484375-30.179688-8.003906-8.003906-18.863281-12.496093-30.183594-12.484375zm25.601563 382.789063c-15.054687-3.832031-25.589844-17.390625-25.589844-32.921875 0-15.535156 10.535157-29.089844 25.589844-32.921875zm-110.078125-87.894531c-4.609375 9.207031-9.542969 10.027343-11.15625 10.289062-5.113281.308594-10.191406-1.015625-14.503906-3.777344 9.195312-6.316406 17.121094-14.308594 23.355468-23.5625.945313-1.414062 1.449219-3.078125 1.449219-4.777344v-68.265624h17.066407v68.265624c.003906 1.683594.503906 3.332032 1.433593 4.734376 6.238281 9.265624 14.171875 17.269531 23.382813 23.585937-4.308594 2.777344-9.394532 4.09375-14.507813 3.753906-1.621093-.261719-6.5625-1.066406-11.179687-10.289062-1.441406-2.898438-4.398438-4.726563-7.636719-4.726563-3.234375 0-6.191406 1.828125-7.636719 4.726563zm-.855469 123.238281c0 18.851562-15.28125 34.132812-34.132812 34.132812-18.851563 0-34.132813-15.28125-34.132813-34.132812-.003906-6.003907 1.601563-11.894531 4.648438-17.066407h58.96875c3.046875 5.171876 4.652344 11.0625 4.648437 17.066407zm-358.355469-17.203125c-3.027343-7.753906-1.992187-16.507813 2.761719-23.339844 4.570313-6.722656 12.191407-10.71875 20.320313-10.65625h1.621094c10.578124.214844 19.9375 6.917969 23.542968 16.867188 14.957032 38.03125 55.882813 58.984374 95.480469 48.882812 39.601563-10.105469 65.488281-48.101562 60.398437-88.648438-5.09375-40.550781-39.570312-70.96875-80.4375-70.96875-69.984374.105469-127.941406-54.324218-132.222656-124.179687-4.277344-69.855469 46.601563-130.957031 116.078125-139.390625.550781-.0625 1.089844-.179688 1.613281-.347656 59.449219-5.769532 115.394532 28.992187 136.558594 84.84375 3.027344 7.761718 1.988282 16.519531-2.773437 23.355468-4.5625 6.703126-12.160157 10.695313-20.265625 10.652344h-1.628906c-10.574219-.234375-19.925782-6.929687-23.554688-16.863281-14.640625-37.015625-53.914062-57.996094-92.824219-49.59375-.902343.191406-1.765625.53125-2.558593 1.003906-39.085938 10.84375-64.15625 48.882813-58.714844 89.074219 5.445312 40.191406 39.734375 70.191406 80.292968 70.246094 66.902344-.011719 123.277344 49.933594 131.328126 116.34375 8.050781 66.414062-34.753907 128.382812-99.71875 144.359375-64.964844 15.976562-131.628907-19.070313-155.296876-81.640625zm392.488282 85.46875h-199.851563c34.269531-18.082032 60.292969-48.628906 72.707031-85.332032h10.589844c-6.769531 19.210938-1.507812 40.605469 13.398438 54.484376 14.90625 13.878906 36.621094 17.605468 55.300781 9.484374 18.679687-8.117187 30.769531-26.535156 30.789063-46.902343-.027344-7.082031-1.539063-14.078125-4.4375-20.539063 7.988281-4.507812 12.941406-12.957031 12.972656-22.128906v-53.402344c1.261718.183594 2.53125.285156 3.804687.308594 18.125 0 34.414063-15.726562 36.359375-17.671875 2.441406-2.441406 3.171875-6.109375 1.851563-9.300781-1.320313-3.1875-4.433594-5.265625-7.882813-5.265625-8.535156 0-20.035156-12.21875-25.601562-19.773438v-65.558593c32.976562-.039063 59.695312-26.761719 59.734375-59.734376v-76.800781c0-4.714843-3.820313-8.535156-8.535157-8.535156-4.710937 0-8.53125 3.820313-8.53125 8.535156v76.800781c-.027343 23.550782-19.113281 42.636719-42.667968 42.664063h-51.199219c-23.550781-.027344-42.636719-19.113281-42.667969-42.664063v-85.335937c.03125-23.550781 19.117188-42.636719 42.667969-42.664063h102.398437c6.796876-.015624 13.316407 2.679688 18.117188 7.480469 4.804688 4.804688 7.5 11.324219 7.484375 18.117188v256.769531c-24.625 4.140625-42.660156 25.460938-42.660156 50.433594 0 24.96875 18.035156 46.289062 42.660156 50.429687v9.300781c-.046875 42.398438-34.402344 76.753907-76.800781 76.800782zm0 0"/><path d="m429.4375 70.925781-8.535156 8.53125-17.066406 17.066407c-2.21875 2.144531-3.105469 5.316406-2.324219 8.300781.777343 2.980469 3.109375 5.3125 6.09375 6.09375s6.15625-.109375 8.296875-2.328125l2.5-2.5v5c0 4.714844 3.820312 8.535156 8.535156 8.535156 4.710938 0 8.53125-3.820312 8.53125-8.535156v-22.066406l6.035156-6.035157c3.234375-3.347656 3.1875-8.667969-.105468-11.960937-3.289063-3.292969-8.613282-3.335938-11.960938-.101563zm0 0"/><path d="m364.710938 79.464844-8.53125-8.53125c-3.351563-3.234375-8.671876-3.1875-11.964844.101562-3.289063 3.292969-3.335938 8.613282-.101563 11.964844l6.03125 6.03125v22.058594c0 4.714844 3.820313 8.535156 8.535157 8.535156 4.710937 0 8.53125-3.820312 8.53125-8.535156v-5l2.5 2.5c3.347656 3.234375 8.671874 3.1875 11.964843-.105469 3.289063-3.289063 3.335938-8.613281.101563-11.960937zm0 0"/></svg>