<svg height="512pt" viewBox="0 0 512 512" width="512pt" xmlns="http://www.w3.org/2000/svg"><path d="m204.800781 292.863281v-198.996093c.027344-9.414063 7.652344-17.039063 17.066407-17.066407h76.800781c18.851562 0 34.132812-15.28125 34.132812-34.132812 0-18.851563-15.28125-34.132813-34.132812-34.132813h-256c-18.851563 0-34.132813 15.28125-34.132813 34.132813 0 18.851562 15.28125 34.132812 34.132813 34.132812h76.796875c9.414062.027344 17.039062 7.652344 17.070312 17.066407v375.464843c0 18.851563 15.28125 34.132813 34.132813 34.132813 18.851562 0 34.132812-15.28125 34.132812-34.132813zm0 0" fill="#ff5722"/><path d="m213.949219 298.488281c-20.46875-10.84375-37.613281-27.039062-49.605469-46.855469-1.523438-2.601562-4.316406-4.1875-7.332031-4.167968h-25.085938c-3.082031-.027344-5.9375 1.609375-7.472656 4.277344-1.535156 2.671874-1.515625 5.960937.058594 8.609374 15.023437 25.4375 24.160156 53.921876 26.734375 83.355469 5.035156 56.675781 24.429687 89.386719 62.761718 86.730469zm0 0" fill="#673ab7"/><path d="m503.464844 363.179688c.109375 40.292968-15.539063 79.03125-43.601563 107.945312l-25.515625-.085938-192.511718-.683593c-11.445313-11.851563-20.84375-25.519531-27.820313-40.445313h-.085937c-3.722657-7.804687-6.777344-15.914062-9.128907-24.234375-7.851562-27.757812-7.851562-57.148437 0-84.90625 2.394531-8.335937 5.445313-16.46875 9.128907-24.320312 7.117187-14.886719 16.566406-28.542969 27.992187-40.449219h218.535156c27.671875 28.8125 43.089844 67.230469 43.007813 107.179688zm0 0" fill="#6a1b9a"/><path d="m457.386719 222.632812-25.683594-.082031-186.371094-.511719c19.9375-33.097656 54.660157-54.496093 93.183594-57.429687 4.222656-.484375 8.46875-.714844 12.714844-.683594 43.359375-.894531 83.867187 21.507813 106.15625 58.707031zm0 0" fill="#6a1b9a"/><path d="m477.867188 363.179688c.101562 40.25-15.511719 78.949218-43.519532 107.859374l-192.511718-.683593c-11.445313-11.851563-20.84375-25.519531-27.820313-40.445313h-.085937c-3.722657-7.804687-6.777344-15.914062-9.128907-24.234375-7.851562-27.757812-7.851562-57.148437 0-84.90625 2.394531-8.335937 5.445313-16.46875 9.128907-24.320312 7.117187-14.886719 16.566406-28.542969 27.992187-40.449219h192.9375c27.667969 28.8125 43.085937 67.230469 43.007813 107.179688zm0 0" fill="#9d27b0"/><path d="m431.703125 222.550781-186.371094-.511719c19.9375-33.097656 54.660157-54.496093 93.183594-57.429687 38.636719 3.011719 73.394531 24.621094 93.1875 57.941406zm0 0" fill="#9d27b0"/><path d="m377.683594 137.386719c.023437 7.03125-2.753906 13.78125-7.714844 18.761719-4.964844 4.976562-11.707031 7.777343-18.738281 7.777343-4.480469.023438-8.894531-1.125-12.796875-3.328125-8.472656-4.628906-13.742188-13.515625-13.742188-23.167968 0-9.65625 5.269532-18.539063 13.742188-23.167969 3.902344-2.203125 8.316406-3.351563 12.796875-3.328125 14.609375 0 26.453125 11.84375 26.453125 26.453125zm0 0" fill="#4527a0"/><path d="m469.332031 238.933594c-.070312 9.394531-7.667969 16.996094-17.066406 17.066406h-204.800781c-9.414063-.027344-17.035156-7.652344-17.066406-17.066406.070312-9.398438 7.671874-16.996094 17.066406-17.066406h204.800781c9.414063.027343 17.039063 7.652343 17.066406 17.066406zm0 0" fill="#4527a0"/><path d="m469.332031 486.398438c-.070312 9.398437-7.667969 17-17.066406 17.066406h-204.800781c-9.414063-.027344-17.035156-7.652344-17.066406-17.066406.070312-9.394532 7.671874-16.996094 17.066406-17.066407h204.800781c9.414063.03125 17.039063 7.652344 17.066406 17.066407zm0 0" fill="#4527a0"/><g fill="#673ab7"><path d="m352.085938 137.386719c-.007813 9.640625-5.234376 18.519531-13.652344 23.210937-8.472656-4.628906-13.742188-13.515625-13.742188-23.167968 0-9.65625 5.269532-18.539063 13.742188-23.167969 8.429687 4.636719 13.664062 13.503906 13.652344 23.125zm0 0"/><path d="m443.734375 238.933594c-.070313 9.394531-7.671875 16.996094-17.066406 17.066406h-179.203125c-9.414063-.027344-17.035156-7.652344-17.066406-17.066406.070312-9.398438 7.671874-16.996094 17.066406-17.066406h179.203125c9.414062.027343 17.039062 7.652343 17.066406 17.066406zm0 0"/><path d="m443.734375 486.398438c-.070313 9.398437-7.671875 17-17.066406 17.066406h-179.203125c-9.414063-.027344-17.035156-7.652344-17.066406-17.066406.070312-9.394532 7.671874-16.996094 17.066406-17.066407h179.203125c9.414062.03125 17.039062 7.652344 17.066406 17.066407zm0 0"/></g><path d="m459.863281 479.660156c-3.4375-.003906-6.535156-2.066406-7.863281-5.234375s-.625-6.820312 1.777344-9.273437c54.652344-55.652344 54.902344-144.753906.5625-200.710938-2.160156-2.179687-2.984375-5.351562-2.160156-8.308594.828124-2.957031 3.175781-5.242187 6.15625-5.984374 2.976562-.742188 6.125.171874 8.242187 2.394531 60.792969 62.621093 60.5 162.3125-.65625 224.574219-1.601563 1.621093-3.78125 2.535156-6.058594 2.542968zm0 0"/><path d="m241.835938 478.890625c-2.296876.011719-4.5-.914063-6.101563-2.558594-11.84375-12.078125-21.628906-26.019531-28.964844-41.261719-.191406-.296874-.363281-.609374-.519531-.929687-17.070312-35.542969-20.503906-76.113281-9.652344-114.019531 2.515625-8.683594 5.738282-17.148438 9.636719-25.304688 7.523437-15.585937 17.503906-29.863281 29.558594-42.28125 3.285156-3.382812 8.6875-3.460937 12.070312-.175781 3.382813 3.285156 3.460938 8.691406.175781 12.070313-10.792968 11.09375-19.722656 23.851562-26.453124 37.785156-3.492188 7.296875-6.375 14.863281-8.621094 22.632812-7.40625 25.894532-7.40625 53.34375 0 79.238282 2.125 7.441406 4.855468 14.691406 8.167968 21.683593.210938.328125.398438.671875.5625 1.023438 6.578126 13.910156 15.433594 26.621093 26.207032 37.609375 2.40625 2.453125 3.105468 6.113281 1.769531 9.28125-1.332031 3.167968-4.433594 5.226562-7.871094 5.222656zm0 0"/><path d="m236.21875 378.121094c-4.710938 0-8.53125-3.820313-8.53125-8.535156.003906-30.925782 10.6875-60.90625 30.25-84.863282 1.90625-2.4375 4.984375-3.648437 8.042969-3.167968 3.058593.480468 5.613281 2.578124 6.683593 5.480468 1.070313 2.90625.480469 6.160156-1.535156 8.507813-17.171875 20.84375-26.503906 47.039062-26.375 74.042969 0 4.714843-3.820312 8.535156-8.535156 8.535156zm0 0"/><path d="m457.386719 231.167969c-3.085938.003906-5.9375-1.660157-7.449219-4.351563-20.714844-34.570312-58.417969-55.332031-98.707031-54.359375-40.085938-.964843-77.640625 19.554688-98.480469 53.8125-2.339844 4.097657-7.554688 5.519531-11.648438 3.183594-4.097656-2.335937-5.519531-7.554687-3.183593-11.648437 23.890625-39.574219 67.097656-63.371094 113.3125-62.414063 46.460937-.972656 89.855469 23.117187 113.597656 63.0625 2.304687 4.109375.84375 9.304687-3.261719 11.613281-1.273437.726563-2.714844 1.105469-4.179687 1.101563zm0 0"/><path d="m351.1875 172.433594c-19.320312 0-34.984375-15.664063-34.984375-34.988282 0-19.320312 15.664063-34.984374 34.984375-34.984374 19.324219 0 34.988281 15.664062 34.988281 34.984374-.039062 19.308594-15.679687 34.949219-34.988281 34.988282zm0-52.96875c-9.894531 0-17.917969 8.023437-17.917969 17.921875 0 9.898437 8.023438 17.921875 17.917969 17.921875 9.898438 0 17.921875-8.023438 17.921875-17.921875-.027344-9.886719-8.035156-17.890625-17.921875-17.921875zm0 0"/><path d="m209.808594 439.117188c-27.828125 0-60.210938-17.425782-67.054688-94.652344-2.648437-33.007813-14.238281-64.671875-33.527344-91.589844-2.085937-2.542969-2.523437-6.0625-1.121093-9.042969 1.402343-2.976562 4.390625-4.882812 7.683593-4.898437h46.34375c3.355469 0 6.394532 1.96875 7.773438 5.027344 11.054688 20.070312 27.792969 36.433593 48.113281 47.027343 4.058594 2.285157 5.535157 7.410157 3.308594 11.507813s-7.328125 5.648437-11.460937 3.484375c-21.816407-11.566407-40.085938-28.84375-52.855469-49.980469h-25.121094c15.679687 26.535156 25.199219 56.25 27.863281 86.953125 7.277344 82.167969 42.214844 79.761719 53.664063 78.976563 3.070312-.257813 6.039062 1.15625 7.773437 3.703124 1.734375 2.542969 1.960938 5.828126.59375 8.585938-1.367187 2.761719-4.113281 4.570312-7.1875 4.734375-1.570312.113281-3.175781.164063-4.789062.164063zm0 0"/><path d="m452.265625 264.535156h-204.800781c-14.136719 0-25.597656-11.464844-25.597656-25.601562 0-14.140625 11.460937-25.601563 25.597656-25.601563h204.800781c14.140625 0 25.601563 11.460938 25.601563 25.601563 0 14.136718-11.460938 25.601562-25.601563 25.601562zm-204.800781-34.136718c-4.710938 0-8.53125 3.820312-8.53125 8.535156 0 4.710937 3.820312 8.53125 8.53125 8.53125h204.800781c4.714844 0 8.535156-3.820313 8.535156-8.53125 0-4.714844-3.820312-8.535156-8.535156-8.535156zm0 0"/><path d="m452.265625 512h-204.800781c-14.136719 0-25.597656-11.460938-25.597656-25.601562 0-14.136719 11.460937-25.597657 25.597656-25.597657h204.800781c14.140625 0 25.601563 11.460938 25.601563 25.597657 0 14.140624-11.460938 25.601562-25.601563 25.601562zm-204.800781-34.132812c-4.710938 0-8.53125 3.820312-8.53125 8.53125 0 4.714843 3.820312 8.535156 8.53125 8.535156h204.800781c4.714844 0 8.535156-3.820313 8.535156-8.535156 0-4.710938-3.820312-8.53125-8.535156-8.53125zm0 0"/><path d="m136.535156 275.882812c-4.714844 0-8.535156 3.820313-8.535156 8.53125v184.917969c0 23.566407 19.101562 42.667969 42.667969 42.667969 23.5625 0 42.664062-19.101562 42.664062-42.667969v-62.890625c0-4.710937-3.820312-8.53125-8.53125-8.53125-4.714843 0-8.535156 3.820313-8.535156 8.53125v62.890625c0 14.140625-11.460937 25.601563-25.597656 25.601563-14.140625 0-25.601563-11.460938-25.601563-25.601563v-184.917969c0-4.710937-3.820312-8.53125-8.53125-8.53125zm0 0"/><path d="m42.667969 85.332031h76.796875c4.714844 0 8.535156 3.820313 8.535156 8.535157v151.378906c0 4.714844 3.820312 8.535156 8.535156 8.535156 4.710938 0 8.53125-3.820312 8.53125-8.535156v-151.378906c0-14.140626-11.460937-25.601563-25.601562-25.601563h-76.796875c-14.140625 0-25.601563-11.460937-25.601563-25.597656 0-14.140625 11.460938-25.601563 25.601563-25.601563h256c14.136719 0 25.597656 11.460938 25.597656 25.601563 0 14.136719-11.460937 25.597656-25.597656 25.597656h-76.800781c-14.140626 0-25.601563 11.460937-25.601563 25.601563v198.996093c0 4.714844 3.820313 8.535157 8.535156 8.535157 4.710938 0 8.53125-3.820313 8.53125-8.535157v-198.996093c0-4.714844 3.820313-8.535157 8.535157-8.535157h76.800781c23.5625 0 42.664062-19.101562 42.664062-42.664062 0-23.566407-19.101562-42.667969-42.664062-42.667969h-256c-23.566407 0-42.667969 19.101562-42.667969 42.667969 0 23.5625 19.101562 42.664062 42.667969 42.664062zm0 0"/></svg>