<svg height="512pt" viewBox="0 0 512.1548 512" width="512pt" xmlns="http://www.w3.org/2000/svg"><path d="m88.148438 379.75v.085938c1.246093 1.261718 2.558593 2.460937 3.925781 3.585937 32.59375 27.105469 80.988281 22.675781 108.117187-9.898437l1.453125-1.792969-26.199219-21.761719-1.449218 1.707031c-15.1875 17.628907-41.699219 19.839844-59.59375 4.96875-17.894532-14.871093-20.578125-41.335937-6.027344-59.496093 2.882812-3.476563 4.265625-7.960938 3.839844-12.457032-.367188-4.53125-2.550782-8.71875-6.058594-11.605468-7.269531-5.996094-18.015625-5.007813-24.066406 2.21875-1.941406 2.3125-3.710938 4.765624-5.289063 7.335937 0 0-17.128906 66.09375 11.347657 97.109375zm0 0" fill="#f44335"/><path d="m315.734375 8.636719c-4.398437-.035157-8.753906.839843-12.800781 2.558593-4.234375 1.710938-8.089844 4.234376-11.347656 7.425782-5.554688 5.617187-9.019532 12.964844-9.816407 20.820312l-.167969 236.289063v57.171875c0 56.554687-45.847656 102.402344-102.402343 102.402344-4.28125.019531-8.558594-.265626-12.800781-.855469-22.582032-2.738281-43.585938-12.988281-59.644532-29.097657-7.523437-7.460937-13.800781-16.074218-18.605468-25.515624v-.085938c-7.476563-14.480469-11.367188-30.546875-11.347657-46.847656v-290.132813c0-18.851562-15.28125-34.132812-34.132812-34.132812-4.398438-.035157-8.753907.839843-12.800781 2.558593-4.234376 1.710938-8.089844 4.234376-11.351563 7.425782-6.378906 6.421875-9.964844 15.097656-9.980469 24.148437v290.132813c-.03125 89.296875 68.816406 163.503906 157.863282 170.15625 4.183593.339844 8.449218.511718 12.800781.511718 94.242187-.03125 170.632812-76.421874 170.667969-170.667968v-290.132813c0-18.851562-15.28125-34.132812-34.132813-34.132812zm0 0" fill="#8bc34a"/><path d="m349.867188 42.769531v290.132813c-.035157 94.246094-76.425782 170.636718-170.667969 170.667968-4.351563 0-8.617188-.171874-12.800781-.511718 89.027343-6.695313 157.851562-80.875 157.867187-170.15625v-290.132813c.023437-13.898437-8.429687-26.40625-21.332031-31.574219 4.046875-1.71875 8.402344-2.59375 12.800781-2.558593 9.050781 0 17.734375 3.597656 24.136719 9.996093 6.398437 6.402344 9.996094 15.085938 9.996094 24.136719zm0 0" fill="#558b30"/><path d="m410.820312 93.628906c-65.46875-54.460937-186.394531-29.292968-254.464843 21.4375l-5.195313-2.382812c-15.917968-7.257813-29.324218-19.078125-38.519531-33.960938-2.226563-1.824218-3.394531-4.640625-3.109375-7.507812.285156-2.863282 1.984375-5.394532 4.523438-6.742188 76.390624-40.039062 210.691406-42.429687 296.765624 29.15625zm0 0" fill="#cfd8dc"/><path d="m493.566406 380.09375c-.855468 2.746094-3.03125 4.878906-5.792968 5.6875-2.761719.804688-5.742188.175781-7.945313-1.675781-3.945313-1.527344-7.765625-3.351563-11.433594-5.464844-11.53125-6.417969-21.453125-15.378906-29.011719-26.195313l-3.246093-4.695312c20.085937-42.8125 28.957031-90.03125 25.773437-137.214844-3.074218-46.421875-18.773437-90.027344-51.117187-116.90625 86.101562 71.59375 108.203125 204.117188 82.773437 286.464844zm0 0" fill="#607d8b"/><path d="m468.394531 378.640625c-11.53125-6.417969-21.453125-15.378906-29.011719-26.195313l-3.246093-4.695312c20.085937-42.8125 28.957031-90.03125 25.773437-137.214844 19.371094 58.453125 20.566406 121.257813 6.484375 168.105469zm0 0" fill="#cfd8dc"/><path d="m410.820312 93.628906c-24.925781-20.734375-109.226562 34.882813-167.867187 93.464844l-4.191406-1.816406c-33.808594-14.734375-62.484375-39.167969-82.40625-70.203125 68.070312-50.738281 188.996093-75.90625 254.464843-21.445313zm0 0" fill="#f44335"/><path d="m436.097656 347.742188c-34.15625-13.933594-63.402344-37.691407-84.039062-68.265626l-2.558594-3.789062c46.933594-68.265625 86.253906-161.339844 61.320312-182.082031 65.476563 54.492187 62.78125 177.988281 25.277344 254.136719zm0 0" fill="#f44335"/><path d="m349.5 275.730469c-44.945312-15.898438-82.734375-47.335938-106.546875-88.636719 58.605469-58.582031 142.941406-114.199219 167.867187-93.464844 24.925782 20.734375-14.394531 113.785156-61.320312 182.101563zm0 0" fill="#cfd8dc"/><path d="m397.210938 83.3125 22.3125-26.835938c6.042968-7.222656 16.785156-8.207031 24.039062-2.203124 7.183594 6.058593 8.167969 16.761718 2.210938 24.03125l-22.324219 26.835937zm0 0" fill="#607d8b"/><path d="m194.324219 327.226562 81.308593-97.75 26.242188 21.828126-81.308594 97.75zm0 0" fill="#607d8b"/><path d="m202.351562 330.914062 13.121094 10.914063c7.246094 6.027344 8.234375 16.789063 2.207032 24.035156-6.027344 7.246094-16.789063 8.234375-24.035157 2.207031l-13.121093-10.914062c-7.246094-6.027344-8.234376-16.789062-2.207032-24.035156s16.789063-8.234375 24.035156-2.207032zm0 0" fill="#f44335"/><path d="m452.335938 83.730469c8.96875-10.890625 7.492187-26.972657-3.3125-36.042969-5.21875-4.34375-11.949219-6.433594-18.710938-5.8125s-13 3.902344-17.34375 9.121094l-17.398438 20.90625c-11.792968-7.730469-24.230468-14.441406-37.171874-20.050782v-9.082031c.011718-17.277343-10.398438-32.855469-26.367188-39.457031-15.96875-6.597656-34.339844-2.917969-46.53125 9.328125-4.765625 4.878906-8.3125 10.816406-10.34375 17.328125-60.21875-6.824219-120.789062 3.730469-164.980469 26.90625-5.066406 2.609375-8.476562 7.589844-9.082031 13.253906-.582031 5.199219 1.238281 10.378906 4.941406 14.070313 10.050782 15.859375 24.503906 28.445312 41.589844 36.226562l3.082031 1.40625c20.71875 31.449219 50.128907 56.195313 84.660157 71.226563l1.824218.792968c7.71875 12.894532 16.816406 24.914063 27.128906 35.839844l-73.882812 88.859375c-.453125 0-.851562-.050781-1.339844 0-6.949218.621094-13.339844 4.070313-17.671875 9.535157-4.335937 5.46875-6.234375 12.476562-5.257812 19.382812-12.40625 14.140625-33.925781 15.542969-48.0625 3.136719s-15.542969-33.925781-3.136719-48.0625c8.9375-10.914063 7.417969-26.992188-3.414062-36.035157-7.371094-6.011718-17.464844-7.453124-26.222657-3.738281v-220c0-23.5625-19.101562-42.664062-42.664062-42.664062-23.566407 0-42.667969 19.101562-42.667969 42.664062v290.132813c0 98.972656 80.230469 179.203125 179.199219 179.203125s179.199219-80.230469 179.199219-179.203125v-31.195313c19.578124 22.980469 44.25 41.074219 72.046874 52.847657l1.945313 2.773437c10.765625 15.378906 25.78125 27.292969 43.207031 34.277344 2.867188 1.976562 6.269532 3.039062 9.753906 3.035156 7.488282-.003906 14.105469-4.875 16.339844-12.023437 25.097656-81.191407 5.886719-202.238282-66.757812-277.945313zm-42.582032 37.214843c-.09375 1.167969-.308594 2.480469-.46875 3.726563-.1875 1.496094-.34375 2.9375-.617187 4.53125-.226563 1.351563-.570313 2.835937-.851563 4.269531-.339844 1.707032-.648437 3.300782-1.074218 5.058594-.359376 1.519531-.855469 3.140625-1.246094 4.71875-.488282 1.828125-.949219 3.617188-1.511719 5.523438-.503906 1.703124-1.101563 3.460937-1.65625 5.203124-.621094 1.945313-1.21875 3.875-1.917969 5.898438-.632812 1.816406-1.355468 3.71875-2.039062 5.597656-.769532 2.070313-1.511719 4.121094-2.339844 6.261719-.757812 1.945313-1.613281 3.96875-2.429688 5.972656-.855468 2.160157-1.757812 4.269531-2.714843 6.519531-.855469 2.074219-1.867188 4.199219-2.824219 6.308594-1.015625 2.25-2.023438 4.496094-3.105469 6.824219-1.023437 2.160156-2.117187 4.363281-3.191406 6.554687-1.078125 2.191407-2.28125 4.640626-3.484375 6.996094-1.203125 2.355469-2.355469 4.507813-3.558594 6.777344s-2.558594 4.769531-3.863281 7.183594c-1.304687 2.414062-2.5625 4.609375-3.910156 6.921875-1.347657 2.3125-2.773438 4.863281-4.222657 7.320312-1.382812 2.332031-2.824218 4.675781-4.265624 7.03125-1.441407 2.355469-3.03125 4.933594-4.601563 7.417969-1.492187 2.34375-3.027344 4.707031-4.574219 7.0625-1.039062 1.582031-2.089844 3.160156-3.148437 4.738281-38.230469-15.035156-70.617188-41.957031-92.382813-76.800781 1.324219-1.289062 2.636719-2.558594 3.960938-3.832031 2.097656-2.003907 4.191406-4.011719 6.289062-5.972657 2.097656-1.960937 4.265625-3.867187 6.347656-5.769531 2.082032-1.902343 4.140626-3.726562 6.214844-5.539062 2.074219-1.808594 4.265625-3.660157 6.390625-5.460938s4.070313-3.410156 6.101563-5.117187c2.03125-1.707032 4.265625-3.414063 6.425781-5.121094 1.96875-1.570312 3.949219-3.148438 5.90625-4.652344 2.15625-1.707031 4.265625-3.242187 6.40625-4.820312 1.910156-1.417969 3.824219-2.851563 5.699219-4.207032 2.136718-1.542968 4.269531-2.996093 6.332031-4.445312 1.820313-1.273438 3.652344-2.558594 5.445313-3.761719 2.117187-1.417969 4.179687-2.742187 6.246093-4.070312 1.707031-1.101563 3.414063-2.230469 5.121094-3.269531 2.089844-1.289063 4.113281-2.476563 6.136719-3.679688 1.578125-.929688 3.179687-1.902344 4.71875-2.78125 2.027344-1.152344 3.984375-2.183594 5.972656-3.234375 1.433594-.777344 2.910156-1.59375 4.308594-2.304687 1.953125-.996094 3.8125-1.867188 5.691406-2.753907 1.296875-.613281 2.628906-1.28125 3.882812-1.835937 1.859376-.851563 3.609376-1.519532 5.367188-2.226563 1.144531-.453125 2.339844-.980469 3.414062-1.382812 1.707032-.648438 3.351563-1.132813 4.984376-1.648438.980468-.304687 2.019531-.679687 2.949218-.945312 1.625-.445313 3.089844-.714844 4.566406-1.015625.792969-.160156 1.707032-.402344 2.425782-.519532 1.34375-.183593 2.703125-.289062 4.058594-.316406.609374 0 1.308593-.144531 1.878906-.128906 1.179687.046875 2.351562.203125 3.5.46875.410156.085938.921875.085938 1.304687.199219 1.089844.335937 2.113281.859375 3.027344 1.542969.15625.109374.394531.152343.539063.28125 1.015624.875 1.839843 1.945312 2.433593 3.148437.21875.4375.332031 1.042969.519531 1.527344.425782.988281.765626 2.011719 1.015626 3.054687.144531.710938.171874 1.597656.273437 2.382813.183594 1.167969.304687 2.34375.367187 3.523437 0 .945313-.050781 2.054688-.078124 3.082032-.023438 1.285156-.015626 2.558593-.144532 4.007812zm-204.425781 259.566407c.53125 0 1.050781 0 1.578125-.070313 6.761719-.621094 13-3.902344 17.34375-9.121094 4.339844-5.21875 6.429688-11.953124 5.808594-18.714843-.042969-.449219-.1875-.851563-.257813-1.3125l43.265625-52.011719v33.621094c.015625 35.675781-20.199218 68.269531-52.160156 84.109375-31.964844 15.839843-70.144531 12.183593-98.519531-9.433594 6.097656 1.390625 12.328125 2.105469 18.582031 2.125 2.621094 0 5.257812-.117187 7.894531-.359375 21.84375-1.9375 42.085938-12.273438 56.464844-28.832031zm220.765625-318.574219c1.445312-1.742188 3.527344-2.828125 5.777344-3.023438 2.269531-.226562 4.535156.476563 6.273437 1.953126 1.742188 1.472656 2.808594 3.589843 2.960938 5.863281.230469 2.210937-.453125 4.421875-1.894531 6.113281l-16.632813 19.992188c-2.089844-1.878907-4.042969-3.882813-6.21875-5.691407l-.078125-.078125-.101562-.066406c-2.175782-1.808594-4.496094-3.363281-6.726563-5.121094zm-128.519531-37.242188c7.3125-7.355468 18.34375-9.574218 27.933593-5.613281 9.585938 3.957031 15.835938 13.3125 15.824219 23.6875v2.246094c-15.925781-5.597656-32.308593-9.804687-48.964843-12.570313 1.257812-2.875 3.019531-5.5 5.207031-7.75zm-177.65625 49.546876c-.5-.835938-1.136719-1.582032-1.875-2.210938 37.503906-18.234375 78.773437-27.378906 120.472656-26.699219 25.230469-.050781 50.363281 3.0625 74.820313 9.265625-1.296876 0-2.621094.144532-3.925782.171875-3.976562.066407-7.96875.253907-11.988281.527344-2.5625.171875-5.121094.316406-7.679687.5625-4.320313.417969-8.636719 1.007813-12.972657 1.648437-2.261719.332032-4.511719.589844-6.765625.980469-5.582031.964844-11.144531 2.132813-16.691406 3.414063-.980469.230468-1.972656.390625-2.953125.632812-6.535156 1.601563-13.023437 3.464844-19.429687 5.511719-1.828126.589844-3.601563 1.28125-5.410157 1.894531-4.550781 1.550782-9.0625 3.148438-13.507812 4.914063-2.3125.914062-4.558594 1.910156-6.828125 2.882812-3.863282 1.65625-7.679688 3.339844-11.460938 5.121094-2.371094 1.136719-4.675781 2.3125-6.996094 3.5-3.566406 1.832031-7.070312 3.730469-10.511718 5.699219-2.277344 1.285156-4.511719 2.597656-6.699219 3.933594-3.414063 2.082031-6.683594 4.265624-9.933594 6.460937-1.382812.9375-2.875 1.78125-4.265625 2.738281l-.667968-.296875c-14.355469-6.554687-26.441407-17.222656-34.730469-30.652343zm48.238281 43.050781c1.324219-.90625 2.5625-1.828125 3.953125-2.714844 1.527344-.988281 3.046875-1.988281 4.597656-2.953125 2.953125-1.824219 5.972657-3.582031 9.054688-5.308594 1.410156-.792968 2.789062-1.609375 4.265625-2.378906 4.421875-2.371094 8.945312-4.652344 13.570312-6.828125l.332032-.160156c4.796874-2.210938 9.703124-4.265625 14.667968-6.210938 1.425782-.566406 2.875-1.058593 4.308594-1.597656 3.585938-1.339844 7.1875-2.628906 10.839844-3.824219 1.707031-.570312 3.507812-1.109375 5.265625-1.644531 3.453125-1.058594 6.929687-2.050781 10.433593-2.980469 1.765626-.46875 3.542969-.929687 5.324219-1.363281 3.738281-.914063 7.492188-1.707031 11.257813-2.476563 1.492187-.296874 2.984375-.628906 4.480468-.902343 10.433594-1.917969 20.980469-3.167969 31.570313-3.746094 1.402344-.078125 2.792969-.078125 4.183594-.121094 3.789062-.136719 7.550781-.195312 11.28125-.128906 1.707031 0 3.414062.105469 5.121093.179687 3.410157.144532 6.808594.375 10.1875.699219 1.707032.164063 3.414063.324219 5.121094.539063 3.480469.425781 6.910156.988281 10.296875 1.621094 1.433594.265624 2.886719.476562 4.269531.785156 8.75 1.863281 17.300782 4.558594 25.539063 8.054687l-.246094.085938c-2.289062.648437-4.636719 1.398437-7.023437 2.253906-.394532.136719-.804688.296875-1.195313.441406-2.082031.765625-4.191406 1.589844-6.324219 2.484375-.554687.230469-1.101562.453125-1.644531.691406-5.121093 2.175782-10.308593 4.710938-15.652343 7.542969l-1.535157.855469c-2.414062 1.304688-4.839843 2.652344-7.289062 4.070312-.296875.167969-.597657.332032-.851563.511719-2.816406 1.636719-5.660156 3.34375-8.535156 5.117188l-.75.480469c-2.570312 1.613281-5.144531 3.273437-7.722656 4.972656l-1.398438.929687c-5.644531 3.757813-11.28125 7.703125-16.914062 11.847657l-1.476563 1.132812c-2.472656 1.839844-4.941406 3.695312-7.398437 5.574219l-1.058594.800781c-2.78125 2.148438-5.542969 4.324219-8.285156 6.519531l-1.175782.9375c-2.304687 1.859375-4.597656 3.738281-6.878906 5.632813l-1.84375 1.542968c-5.1875 4.355469-10.238281 8.757813-15.179687 13.175782l-2.109375 1.914062c-1.847656 1.707032-3.671875 3.382813-5.46875 5.035156l-1.878906 1.703126c-2.21875 2.101562-4.398438 4.1875-6.535157 6.257812l-.605469.578125c-29.25-12.929687-54.457031-33.535156-72.945312-59.628906zm108.375 124.449219c4.226562 3.8125 8.597656 7.445312 13.117188 10.90625l-68.710938 82.617187-13.125-10.894531zm-91.648438 96.835937c3.015626-3.621094 8.394532-4.113281 12.015626-1.101563l13.125 10.914063c3.625 3.015625 4.117187 8.394531 1.105468 12.019531-3.015625 3.625-8.394531 4.121094-12.019531 1.105469l-13.082031-10.914063c-1.75-1.441406-2.851563-3.519531-3.066406-5.773437-.214844-2.257813.476562-4.503906 1.921874-6.25zm-96.238281-57.804687c3.035157-3.601563 8.398438-4.101563 12.046875-1.125 3.585938 3.035156 4.089844 8.378906 1.136719 12.03125-12.726563 15.242187-15.476563 36.472656-7.054687 54.453124 8.421874 17.980469 26.496093 29.460938 46.351562 29.4375 12.253906-.011718 24.097656-4.410156 33.390625-12.398437.203125.179687.347656.390625.554687.5625l12.664063 10.503906c-25.132813 23.515625-63.851563 24.613281-90.273437 2.5625-.742188-.605469-1.453126-1.265625-2.152344-1.9375-6.574219-13.007812-9.992188-27.382812-9.976563-41.960937v-47.699219c.941407-1.382813 1.980469-2.808594 3.3125-4.429687zm205.183594 166.757812c-46.367187 46.355469-116.09375 60.222656-176.667969 35.132812-60.578125-25.089843-100.078125-84.195312-100.09375-149.761718v-290.132813c0-14.136719 11.460938-25.597656 25.601563-25.597656 14.136719 0 25.597656 11.460937 25.597656 25.597656v290.132813c-.046875 17.40625 4.050781 34.574218 11.949219 50.082031l.042968.09375v.054687c.074219.1875.160157.363282.253907.554688 5.207031 10.257812 12.019531 19.617188 20.179687 27.722656 31.753906 31.71875 79.480469 41.199219 120.941406 24.015625 41.460938-17.179687 68.496094-57.640625 68.5-102.523437v-54.140625l13.535157-16.265625c11.875 7.628906 24.496093 14.035156 37.664062 19.113281v51.292969c.109375 43.023437-16.996093 84.296875-47.503906 114.628906zm65.980469-171.800781c1.363281-2.046875 2.738281-4.164063 4.105468-6.273438.398438-.613281.800782-1.210937 1.203126-1.832031 2.457031-3.820312 4.898437-7.722656 7.328124-11.707031.597657-.976563 1.179688-1.957031 1.777344-2.9375 1.949219-3.257813 3.890625-6.558594 5.816406-9.898438.582032-1 1.152344-1.980469 1.707032-2.976562 2.367187-4.15625 4.6875-8.347657 6.957031-12.578125.375-.71875.742187-1.433594 1.125-2.152344 1.898437-3.589844 3.761719-7.203125 5.582031-10.835938.585938-1.160156 1.160156-2.320312 1.707032-3.484374 4.222656-8.589844 8.15625-17.183594 11.699218-25.667969.476563-1.132813.929688-2.261719 1.390625-3.410157 1.433594-3.535156 2.792969-7.035156 4.078125-10.496093.28125-.769531.589844-1.546875.851563-2.304688 1.476562-4.078125 2.808593-8.074219 4.027343-12.015625.308594-.972656.574219-1.929687.855469-2.894531.9375-3.148437 1.773438-6.246094 2.558594-9.273437.230469-.957032.488281-1.921876.710937-2.859376.851563-3.710937 1.585938-7.332031 2.132813-10.820312.09375-.613281.144531-1.1875.230469-1.792969.261718-1.851562.535156-3.710937.699218-5.484375 2.277344 3.410156 4.503907 6.925782 6.484376 10.628906.050781.105469.09375.207032.144531.300782 2.160156 4.0625 4.105469 8.300781 5.921875 12.65625.597656 1.433594 1.109375 2.933594 1.707031 4.394531 1.179687 3.097656 2.3125 6.226563 3.328125 9.4375.554688 1.707031 1.066406 3.515625 1.570312 5.28125.875 3.113281 1.683594 6.261719 2.425782 9.453125.417968 1.800781.851562 3.601562 1.203125 5.429688.699219 3.457031 1.285156 6.960937 1.824219 10.496093.238281 1.585938.527343 3.140625.734374 4.734375.664063 5.121094 1.203126 10.324219 1.542969 15.566406v.527344c.316407 5.121094.460938 10.242188.480469 15.359375 0 1.707031-.0625 3.414063-.085938 5.121094-.058593 3.644531-.164062 7.289063-.359374 10.941406-.109376 1.960938-.253907 3.914063-.410157 5.871094-.265625 3.464844-.59375 6.921875-.980469 10.375-.222656 1.945313-.445312 3.890625-.707031 5.828125-.488281 3.652344-1.078125 7.277344-1.707031 10.898438-.28125 1.636718-.53125 3.292968-.855469 4.921874-1.003906 5.199219-2.113281 10.34375-3.414062 15.410157-.082031.335937-.195313.648437-.28125.984375-1.210938 4.726562-2.558594 9.386718-4.019531 13.949218-.519532 1.640626-1.109376 3.226563-1.703126 4.847657-1.101562 3.226562-2.238281 6.425781-3.414062 9.558593-.710938 1.800782-1.441406 3.558594-2.175781 5.324219-.605469 1.433594-1.253907 2.816407-1.886719 4.222657-29.019531-13.414063-53.867188-34.433594-71.910156-60.824219zm125.636718 101.820312s-.113281.050781-.207031 0c-.707031-.589843-1.503906-1.058593-2.363281-1.390625-14.742188-5.703125-27.453125-15.664062-36.511719-28.613281l-.417969-.589844c.707032-1.527343 1.277344-3.183593 1.960938-4.734375 1.5625-3.558594 3.070312-7.132812 4.488281-10.820312.9375-2.441406 1.816407-4.914063 2.6875-7.40625 1.296875-3.695313 2.5-7.441406 3.644531-11.230469.769532-2.558594 1.519532-5.121094 2.21875-7.679687 1.058594-3.953126 2.003907-7.945313 2.910157-11.949219.554687-2.488281 1.152343-4.957031 1.644531-7.472657.855469-4.53125 1.605469-9.105468 2.289062-13.652343.308594-2.058594.691407-4.089844.957032-6.152344.851562-6.625 1.476562-13.28125 1.867187-19.9375.078125-1.328125.042969-2.652344.101563-3.976563.238281-5.367187.386718-10.726562.316406-16.074218 0-2.425782-.1875-4.820313-.28125-7.238282-.164062-4.265624-.359375-8.445312-.726562-12.636718-.230469-2.652344-.554688-5.265625-.851563-7.902344-.460937-3.917969-.992187-7.789062-1.628906-11.640625-.222657-1.3125-.324219-2.679687-.566407-3.984375 30.023438 64.582031 35.210938 140.800781 18.46875 195.082031zm0 0"/></svg>