<svg height="512pt" viewBox="0 0 512.10205 512" width="512pt" xmlns="http://www.w3.org/2000/svg"><path d="m326.164062 10.222656c-8.621093-2.761718-17.988281-1.988281-26.039062 2.160156-8.050781 4.144532-14.125 11.316407-16.882812 19.941407l-104.023438 325.117187-12.796875-40.019531-91.222656-285.097656c-5.773438-17.9375-24.96875-27.820313-42.921875-22.101563-.855469.253906-1.707032.597656-2.476563.851563-16.507812 6.761719-25.050781 25.074219-19.625 42.070312l136.53125 426.667969c4.523438 14.140625 17.667969 23.738281 32.511719 23.738281 14.847656 0 27.992188-9.597656 32.511719-23.738281l75.777343-236.714844 4.695313-14.679687 18.175781-56.746094 37.886719-118.527344c5.71875-17.953125-4.167969-37.148437-22.101563-42.921875zm0 0" fill="#f44335"/><path d="m348.265625 53.144531-37.886719 118.527344-18.175781 56.746094-4.695313 14.679687-75.777343 236.714844c-2.902344 9.035156-9.433594 16.457031-18.027344 20.488281-8.59375 4.027344-18.476563 4.304688-27.28125.757813 9.398437-3.800782 16.621094-11.589844 19.710937-21.246094l75.777344-236.714844 4.691406-14.679687 18.175782-56.746094 37.886718-118.527344c5.390626-17.015625-3.1875-35.320312-19.710937-42.070312 12.28125-4.972657 26.328125-2.390625 36.035156 6.625 9.710938 9.011719 13.324219 22.832031 9.277344 35.445312zm0 0" fill="#c52828"/><path d="m426.6875 145.132812c0 9.425782-7.640625 17.066407-17.066406 17.066407-9.425782 0-17.066406-7.640625-17.066406-17.066407 0-9.425781 7.640624-17.066406 17.066406-17.066406 9.425781 0 17.066406 7.640625 17.066406 17.066406zm0 0" fill="#ff5722"/><path d="m503.488281 204.867188c0 14.136718-11.460937 25.601562-25.601562 25.601562-14.136719 0-25.601563-11.464844-25.601563-25.601562 0-14.140626 11.464844-25.601563 25.601563-25.601563 14.140625 0 25.601562 11.460937 25.601562 25.601563zm0 0" fill="#fec108"/><path d="m332.820312 200.601562c0 16.492188-13.371093 29.867188-29.867187 29.867188s-29.867187-13.375-29.867187-29.867188c0-16.496093 13.371093-29.867187 29.867187-29.867187s29.867187 13.371094 29.867187 29.867187zm0 0" fill="#fec108"/><path d="m455.785156 355.222656c-5.539062-4.347656-12.332031-6.800781-19.371094-6.996094-1.78125.160157-3.519531.648438-5.121093 1.449219-3.15625-8.617187-6.3125-17.234375-9.382813-25.855469-3.074218-8.359374-6.0625-16.722656-9.132812-25.085937h22.441406c3.074219 8.363281 6.058594 16.726563 9.132812 25.085937 3.753907 10.496094 7.59375 20.90625 11.433594 31.402344zm0 0" fill="#d84315"/><g fill="#795548"><path d="m301.84375 492.183594c4.167969 2.539062 8.679688 4.464844 13.398438 5.71875-1.492188 1.058594-3.128907 1.890625-4.863282 2.472656-6.386718 1.863281-13.226562 1.378906-19.285156-1.363281 6.027344-3.652344 10.746094-9.121094 13.480469-15.617188 1.535156-3.242187 2.988281-6.570312 4.351562-9.984375zm0 0"/><path d="m320.445312 377.496094.171876.085937c-.066407.066407-.160157.097657-.253907.085938 0-.085938.082031-.085938.082031-.171875zm0 0"/><path d="m353.042969 492.183594c3.539062 2.152344 7.25 4.007812 11.09375 5.546875-8.003907 2.464843-16.53125 2.703125-24.660157.683593 4.839844-1.300781 9.425782-3.40625 13.566407-6.230468zm0 0"/><path d="m447.59375 498.074219c-13.425781 4.863281-27.816406 6.472656-41.984375 4.691406 11.484375-1.472656 22.59375-5.058594 32.769531-10.582031l-2.132812-4.949219c2.210937 4.960937 6.289062 8.855469 11.347656 10.839844zm0 0"/></g><path d="m502.035156 496.621094c-5.050781 2.789062-10.792968 4.089844-16.554687 3.753906-4.042969.324219-8.113281-.050781-12.03125-1.109375 2.234375-.363281 4.34375-1.269531 6.144531-2.644531 2.816406-2.304688 1.109375-5.289063.171875-8.019532-4.867187-13.226562-9.644531-26.539062-14.507813-39.765624-7.507812-20.652344-15.019531-47.105469-22.527343-67.753907-3.160157-8.621093-6.230469-17.238281-9.386719-25.859375-1.707031-1.109375-3.5-2.21875-5.292969-3.15625 2.238281-2.238281 5.207031-3.601562 8.363281-3.839844 7.039063.195313 13.832032 2.648438 19.371094 6.996094 3.15625 8.621094 6.230469 17.238282 9.386719 25.859375 7.507813 20.648438 15.019531 47.101563 22.527344 67.753907 4.863281 13.226562 9.644531 26.539062 14.507812 39.765624.9375 2.730469 2.644531 5.714844-.171875 8.019532zm0 0" fill="#4e342e"/><path d="m428.050781 352.066406c-2.394531 2.519532-3.789062 5.828125-3.925781 9.300782.921875 8.617187 1.378906 17.277343 1.367188 25.941406-.496094 3.738281-2.238282 7.195312-4.949219 9.8125-4.070313 3.316406-9.589844 4.226562-14.507813 2.390625-2.425781-.824219-4.660156-2.128907-6.570312-3.839844-3.3125-3.007813-5.835938-6.789063-7.339844-11.007813-1.53125-6.238281-3.703125-12.300781-6.484375-18.089843-1.964844-3.78125-5.476563-6.515625-9.621094-7.5s-8.515625-.113281-11.96875 2.378906c-1.042969.699219-2.015625 1.5-2.898437 2.390625-4.226563 4.992188-9.242188 9.257812-14.847656 12.628906-7.851563 2.699219-16.28125 3.226563-24.40625 1.535156l-1.28125-.425781-.171876-.085937c4.609376-12.289063 9.21875-24.574219 13.824219-36.949219 5.207031-13.910156 10.410157-27.902344 15.617188-41.8125h62.890625c3.070312 8.363281 6.058594 16.726563 9.132812 25.085937 3.070313 8.621094 6.226563 17.238282 9.382813 25.855469-1.199219.621094-2.292969 1.429688-3.242188 2.390625zm0 0" fill="#ff5722"/><path d="m433.34375 355.222656c-1.707031-1.109375-3.5-2.21875-5.292969-3.15625.949219-.960937 2.042969-1.769531 3.242188-2.390625.683593 1.878907 1.367187 3.671875 2.050781 5.546875zm0 0" fill="#ff5722"/><path d="m479.59375 496.621094c-1.800781 1.375-3.910156 2.28125-6.144531 2.644531-6.511719-1.519531-11.960938-5.957031-14.761719-12.03125l2.132812 4.949219c-4.214843 2.371094-8.644531 4.339844-13.226562 5.890625-5.058594-1.984375-9.136719-5.878907-11.347656-10.839844l2.132812 4.949219c-10.175781 5.523437-21.285156 9.109375-32.769531 10.582031-10.664063-1.414063-20.917969-5.015625-30.121094-10.582031-3.503906 2.375-7.324219 4.242187-11.351562 5.546875-3.84375-1.539063-7.554688-3.394531-11.09375-5.546875-4.140625 2.824218-8.726563 4.929687-13.566407 6.230468-5.359374-1.269531-10.484374-3.371093-15.191406-6.230468l7.085938-18.773438c-1.367188 3.414063-2.816406 6.742188-4.355469 9.984375-2.484375 5.84375-6.566406 10.871094-11.773437 14.507813-4.71875-1.253906-9.230469-3.179688-13.398438-5.71875l7.082031-18.773438c-1.363281 3.414063-2.816406 6.742188-4.351562 9.984375-2.734375 6.496094-7.453125 11.964844-13.480469 15.617188-.511719-.171875-1.027344-.425781-1.539062-.597657-3.324219-1.046874-6.507813-2.507812-9.46875-4.351562-3.160157-2.390625-.855469-6.230469.253906-9.21875 7.59375-20.308594 15.191406-40.703125 22.785156-61.011719 5.800781-15.359375 11.519531-30.804687 17.238281-46.164062.09375.011719.1875-.019531.253907-.085938l1.28125.425781c8.125 1.691407 16.554687 1.164063 24.40625-1.535156 5.605468-3.371094 10.621093-7.636718 14.847656-12.628906.882812-.890625 1.855468-1.691406 2.898437-2.390625 3.453125-2.492187 7.824219-3.363281 11.96875-2.378906s7.65625 3.71875 9.621094 7.5c2.78125 5.789062 4.953125 11.851562 6.484375 18.089843 1.503906 4.21875 4.027344 8 7.339844 11.007813 1.910156 1.710937 4.144531 3.015625 6.570312 3.839844 4.917969 1.835937 10.4375.925781 14.507813-2.390625 2.710937-2.617188 4.453125-6.074219 4.949219-9.8125.011718-8.664063-.445313-17.324219-1.367188-25.941406.136719-3.472657 1.53125-6.78125 3.925781-9.300782 1.792969.9375 3.585938 2.046875 5.292969 3.15625 3.15625 8.621094 6.226562 17.238282 9.386719 25.859375 7.507812 20.648438 15.019531 47.101563 22.527343 67.753907 4.863282 13.226562 9.640626 26.539062 14.507813 39.765624.9375 2.730469 2.644531 5.714844-.171875 8.019532zm0 0" fill="#795548"/><path d="m324.285156 492.183594c4.707032 2.859375 9.832032 4.960937 15.191406 6.230468-7.984374 1.960938-16.339843 1.78125-24.234374-.511718 5.207031-3.636719 9.289062-8.664063 11.773437-14.507813 1.539063-3.242187 2.988281-6.570312 4.355469-9.984375zm0 0" fill="#795548"/><path d="m375.488281 492.183594c9.203125 5.566406 19.457031 9.167968 30.121094 10.582031-14.027344 2.027344-28.339844.289063-41.472656-5.035156 4.027343-1.304688 7.847656-3.171875 11.351562-5.546875zm0 0" fill="#795548"/><path d="m473.449219 499.265625c-3.429688.6875-6.914063 1.058594-10.410157 1.109375-5.257812.457031-10.550781-.332031-15.445312-2.300781 4.582031-1.550781 9.011719-3.519531 13.226562-5.890625l-2.132812-4.949219c2.800781 6.074219 8.25 10.511719 14.761719 12.03125zm0 0" fill="#795548"/><path d="m435.21875 298.734375c0-9.425781-19.101562-17.066406-42.664062-17.066406-23.566407 0-42.667969 7.640625-42.667969 17.066406s19.101562 17.066406 42.667969 17.066406c23.5625 0 42.664062-7.640625 42.664062-17.066406zm0 0" fill="#f44335"/><path d="m495.808594 445.933594c-3.707032-10.171875-7.503906-22.042969-11.171875-33.527344-3.730469-11.664062-7.585938-23.722656-11.410157-34.246094l-29.667968-81.472656c-2-16.148438-27.332032-23.554688-51.003906-23.554688-23.671876 0-48.984376 7.398438-51.003907 23.535157l-69.242187 185.226562-.417969 1.039063c-3.421875 5.902344-2.214844 13.398437 2.894531 17.921875 2.867188 2.03125 6.035156 3.605469 9.386719 4.667969.757813.273437 1.492187.535156 2.175781.851562 5.277344 2.335938 10.957032 3.617188 16.726563 3.773438 7.800781.058593 15.324219-2.921876 20.964843-8.3125 8.320313 4.214843 17.5 6.460937 26.828126 6.5625 8.621093-.082032 17.082031-2.3125 24.621093-6.496094 12.644531 6.746094 26.761719 10.265625 41.09375 10.242187 15.042969-.125 29.875-3.535156 43.460938-9.992187 6.558593 4.6875 14.46875 7.105468 22.527343 6.886718 1.152344 0 2.332032 0 3.515626-.128906l1.707031-.101562c6.96875.238281 13.835937-1.71875 19.628906-5.597656 4.78125-4.191407 6.058594-11.121094 3.089844-16.742188zm-79.25-71.808594c.757812 3.902344.941406 7.890625.546875 11.84375-.199219 1.789062-.96875 3.464844-2.195313 4.78125-1.789062 1.230469-4.082031 1.488281-6.101562.679688-4.117188-1.804688-7.246094-5.304688-8.582032-9.597657-.640624-1.800781-1.160156-3.652343-1.707031-5.496093-1.191406-4.949219-3.054687-9.710938-5.539062-14.15625-3.367188-5.859376-9.027344-10.046876-15.617188-11.554688-6.289062-1.320312-12.84375.046875-18.082031 3.773438-3.132812 2.269531-6.011719 4.875-8.582031 7.773437-2.113281 2.625-4.722657 4.8125-7.683594 6.433594-3.433594 1.292969-7.09375 1.875-10.757813 1.707031l20.480469-54.777344c12.328125 6.210938 26.015625 9.238282 39.816407 8.796875 13.757812.441407 27.410156-2.554687 39.722656-8.710937l8.832031 24.285156c-1.820313-.257812-3.664063-.316406-5.496094-.179688-11.101562.871094-19.746093 9.996094-20.019531 21.128907-.140625 4.445312.167969 8.890625.921875 13.269531zm-24.003906-83.925781c20.027343 0 31.71875 5.742187 33.917968 8.535156-2.199218 2.789063-13.890625 8.53125-33.917968 8.53125-20.027344 0-31.71875-5.742187-33.921876-8.53125 2.203126-2.792969 13.894532-8.535156 33.921876-8.535156zm94.257812 201.566406-1.867188.113281c-4.386718.28125-14.917968.101563-18.457031-8.167968l-23.425781-54.613282c-1.148438-2.878906-3.769531-4.90625-6.84375-5.296875-3.070312-.394531-6.117188.910157-7.953125 3.40625-1.835937 2.492188-2.175781 5.789063-.886719 8.605469l22.417969 52.308594c-20.5 9.253906-44.007813 9.132812-64.410156-.332032l6.910156-27.664062c.800781-2.980469-.070313-6.15625-2.273437-8.3125-2.207032-2.15625-5.402344-2.953125-8.363282-2.089844-2.957031.863282-5.222656 3.257813-5.917968 6.261719l-7.679688 30.722656c-10.460938 5.601563-22.9375 5.996094-33.730469 1.066407.117188-.25.273438-.4375.390625-.683594 3.523438-7.328125 6.316406-14.976563 9.019532-22.367188l14.148437-37.828125c1.648437-4.414062-.59375-9.332031-5.007813-10.980469-4.417968-1.648437-9.332031.59375-10.984374 5.007813l-14.199219 37.941406c-2.558594 7.003907-5.195313 14.25-8.363281 20.8125-2.023438 5.59375-6.222657 10.128907-11.644532 12.578125-5.003906 1.332032-10.324218.722656-14.890625-1.707031-.855469-.359375-1.800781-.699219-2.765625-1.050781-.632812-.230469-1.359375-.496094-2.058594-.769532l38.015626-101.671874c7.976562 1.085937 16.097656.152343 23.621093-2.714844 5.1875-2.464844 9.78125-6.019532 13.464844-10.425782 1.757813-2.007812 3.714844-3.828124 5.839844-5.4375 1.363281-1.066406 3.125-1.496093 4.828125-1.175781 1.988281.546875 3.660156 1.894531 4.625 3.71875 1.664062 3.15625 2.917968 6.515625 3.730468 9.992188.621094 2.175781 1.246094 4.359375 1.976563 6.441406 3.035156 9.246094 10.074219 16.632813 19.160156 20.113281 2.589844.90625 5.3125 1.371094 8.054688 1.367188 5.496093.0625 10.828125-1.886719 14.984375-5.488282 4.152344-3.890624 6.863281-9.078124 7.679687-14.710937.71875-5.636719.554688-11.351563-.484375-16.9375-.578125-3.273437-.847656-6.59375-.8125-9.917969-.140625-2.648437 1.859375-4.921875 4.503906-5.117187 4.195313.277343 8.222657 1.742187 11.617188 4.222656l8.378906 23.039063c3.710938 10.242187 7.515625 22.101562 11.195313 33.605468 3.71875 11.640625 7.570312 23.671875 11.382812 34.132813l14.269531 39.253906c-2.378906.40625-4.785156.65625-7.195312.75zm0 0"/><path d="m435.21875 145.132812c0-14.136718-11.460938-25.597656-25.597656-25.597656-14.140625 0-25.601563 11.460938-25.601563 25.597656 0 14.140626 11.460938 25.601563 25.601563 25.601563 14.136718 0 25.597656-11.460937 25.597656-25.601563zm-34.132812 0c0-4.710937 3.820312-8.53125 8.535156-8.53125 4.710937 0 8.53125 3.820313 8.53125 8.53125 0 4.714844-3.820313 8.535157-8.53125 8.535157-4.714844 0-8.535156-3.820313-8.535156-8.535157zm0 0"/><path d="m477.886719 170.734375c-18.851563 0-34.132813 15.28125-34.132813 34.132813 0 18.851562 15.28125 34.132812 34.132813 34.132812 18.851562 0 34.132812-15.28125 34.132812-34.132812 0-18.851563-15.28125-34.132813-34.132812-34.132813zm0 51.199219c-9.425781 0-17.066407-7.640625-17.066407-17.066406 0-9.425782 7.640626-17.066407 17.066407-17.066407s17.066406 7.640625 17.066406 17.066407c0 9.425781-7.640625 17.066406-17.066406 17.066406zm0 0"/><path d="m302.953125 239c17.625.054688 33.007813-11.941406 37.257813-29.046875s-3.734376-34.902344-19.335938-43.101563l35.523438-111.113281c4.648437-14.519531 1.195312-30.417969-9.054688-41.703125-10.253906-11.285156-25.746094-16.246094-40.644531-13.007812-14.902344 3.234375-26.941407 14.171875-31.589844 28.691406l-95.890625 299.734375-95.886719-299.722656c-7.1875-22.449219-31.207031-34.820313-53.652343-27.636719-22.449219 7.183594-34.820313 31.207031-27.636719 53.652344l136.53125 426.667968c5.652343 17.675782 22.082031 29.671876 40.640625 29.671876s34.988281-11.996094 40.640625-29.671876l78.082031-243.917968c1.660156.277344 3.335938.445312 5.015625.503906zm0-17.066406c-2.777344-.003906-5.53125-.554688-8.097656-1.621094h-.109375c-10.136719-4.195312-15.4375-15.390625-12.261719-25.886719 3.171875-10.5 13.792969-16.878906 24.550781-14.753906 10.761719 2.125 18.15625 12.0625 17.101563 22.980469-1.054688 10.917968-10.214844 19.253906-21.183594 19.28125zm-99.351563 255.285156c-3.398437 10.597656-13.25 17.789062-24.382812 17.789062-11.128906 0-20.984375-7.191406-24.378906-17.789062l-136.53125-426.667969c-2.792969-8.710937-.726563-18.25 5.417968-25.023437 6.148438-6.773438 15.441407-9.753906 24.382813-7.816406 8.9375 1.9375 16.164063 8.496093 18.957031 17.207031l104.023438 325.121093c1.125 3.539063 4.414062 5.945313 8.128906 5.945313 3.71875 0 7.007812-2.40625 8.132812-5.945313l104.023438-325.121093c4.316406-13.464844 18.730469-20.882813 32.195312-16.5625 13.464844 4.316406 20.878907 18.730469 16.5625 32.195312l-35.738281 111.785157c-.484375 0-.945312-.144532-1.441406-.144532-16.933594.042969-31.84375 11.171875-36.695313 27.398438-4.855468 16.222656 1.496094 33.710937 15.628907 43.042968zm0 0"/><path d="m349.886719 230.46875c-4.753907-.027344-8.640625 3.777344-8.722657 8.53125-.046874 2.246094.8125 4.414062 2.382813 6.019531s3.71875 2.511719 5.964844 2.515625c4.25 3.253906 7.625 7.519532 9.8125 12.40625 2.121093 4.214844 7.257812 5.914063 11.472656 3.792969s5.914063-7.257813 3.792969-11.472656c-2.515625-5.121094-11.902344-21.792969-24.703125-21.792969zm0 0"/><path d="m414.332031 263.6875c4.207031 2.113281 9.332031.417969 11.449219-3.789062 2.199219-4.765626 5.421875-8.988282 9.4375-12.363282 4.714844 0 8.535156-3.820312 8.535156-8.535156 0-4.710938-3.820312-8.53125-8.535156-8.53125-12.796875 0-22.140625 16.671875-24.746094 21.785156-2.089844 4.222656-.363281 9.339844 3.859375 11.433594zm0 0"/><path d="m395.054688 181.765625c-9.601563 9.601563-11.035157 50.671875-11.035157 74.300781 0 4.714844 3.820313 8.535156 8.535157 8.535156 4.710937 0 8.53125-3.820312 8.53125-8.535156 0-25.882812 2.511718-57.171875 6.035156-62.234375 3.234375-3.347656 3.1875-8.667969-.105469-11.960937-3.292969-3.292969-8.613281-3.335938-11.960937-.105469zm0 0"/></svg>