<svg height="512pt" viewBox="0 0 512.0018 512" width="512pt" xmlns="http://www.w3.org/2000/svg"><path d="m423.171875 17.066406c-5.1875-4.75-11.777344-7.6875-18.773437-8.363281-9.585938-.941406-19.121094 2.214844-26.257813 8.683594-7.132813 6.464843-11.203125 15.648437-11.207031 25.277343v312.664063l-104.191406-158.378906-12.371094-18.773438c-6.316406-9.585937-17.023438-15.351562-28.503906-15.351562-11.476563 0-22.183594 5.765625-28.5 15.351562l-12.375 18.773438-104.191407 158.378906v-312.664063c0-9.628906-4.070312-18.8125-11.207031-25.277343-7.132812-6.46875-16.667969-9.625-26.253906-8.683594-17.804688 2.203125-31.089844 17.472656-30.804688 35.414063v425.214843c.003906 15.066407 9.886719 28.351563 24.320313 32.683594 3.175781.980469 6.488281 1.46875 9.8125 1.449219 11.476562-.007813 22.183593-5.777344 28.503906-15.359375l150.695313-229.035157 150.699218 229.035157c6.320313 9.582031 17.023438 15.351562 28.503906 15.359375 3.324219.019531 6.632813-.46875 9.8125-1.449219 8.917969-2.652344 16.355469-8.855469 20.5625-17.152344zm0 0" fill="#e91e63"/><path d="m485.546875 303.445312-6.652344 165.886719c-.355469 9.203125-5.441406 17.570313-13.449219 22.121094-8.011718 4.554687-17.800781 4.640625-25.890624.234375-3.140626-1.695312-5.902344-4.019531-8.109376-6.824219-3.535156-4.429687-5.566406-9.871093-5.800781-15.53125l-6.65625-165.886719zm0 0" fill="#37474f"/><path d="m486.230469 226.300781h-67.925781l6.316406-158.035156h55.296875zm0 0" fill="#37474f"/><path d="m460.121094 303.445312-6.65625 165.886719c-.367188 9.382813-5.65625 17.878907-13.910156 22.355469-3.140626-1.695312-5.902344-4.019531-8.109376-6.824219-3.535156-4.429687-5.566406-9.871093-5.800781-15.53125l-6.65625-165.886719zm0 0" fill="#607d8b"/><path d="m460.800781 226.300781h-42.496093l6.316406-158.035156h29.867187zm0 0" fill="#607d8b"/><path d="m426.667969 17.066406h51.199219c4.714843 0 8.535156 3.820313 8.535156 8.53125v34.132813c0 4.714843-3.820313 8.535156-8.535156 8.535156h-51.199219c-4.710938 0-8.53125-3.820313-8.53125-8.535156v-34.132813c0-4.710937 3.820312-8.53125 8.53125-8.53125zm0 0" fill="#37474f"/><path d="m503.46875 264.53125c0 28.277344-22.921875 51.199219-51.199219 51.199219-4.296875.007812-8.574219-.566407-12.714843-1.707031-9.175782-2.269532-17.519532-7.089844-24.066407-13.90625-9.273437-9.523438-14.449219-22.296876-14.417969-35.585938.054688-23.328125 15.824219-43.691406 38.398438-49.578125 4.183594-1.0625 8.484375-1.609375 12.800781-1.621094 25.988281.023438 47.847657 19.496094 50.859375 45.3125.238282 1.953125.355469 3.917969.339844 5.886719zm0 0" fill="#00838f"/><path d="m477.867188 264.53125c.007812 23.304688-15.75 43.660156-38.3125 49.492188-9.175782-2.269532-17.519532-7.089844-24.066407-13.90625-9.273437-9.523438-14.449219-22.296876-14.417969-35.585938.054688-23.328125 15.824219-43.691406 38.398438-49.578125 20.492188 5.308594 35.613281 22.664063 38.058594 43.691406.242187 1.953125.355468 3.917969.339844 5.886719zm0 0" fill="#00bcd4"/><path d="m469.335938 256h-8.535157v-8.535156c0-4.710938-3.820312-8.535156-8.53125-8.535156-4.714843 0-8.535156 3.824218-8.535156 8.535156v17.066406c0 4.714844 3.820313 8.535156 8.535156 8.535156h17.066407c4.710937 0 8.53125-3.820312 8.53125-8.535156 0-4.710938-3.820313-8.53125-8.53125-8.53125zm0 0"/><path d="m488.636719 72.863281c3.96875-3.207031 6.28125-8.03125 6.296875-13.132812v-34.132813c0-9.425781-7.640625-17.066406-17.066406-17.066406h-51.199219c-.195313 0-.375.050781-.5625.058594-6.03125-4.707032-13.273438-7.617188-20.890625-8.386719-11.980469-1.171875-23.894532 2.773437-32.8125 10.863281-8.914063 8.085938-14 19.5625-14 31.597656v284.160157l-100.90625-153.34375c-7.894532-11.980469-21.28125-19.1875-35.628906-19.1875-14.34375 0-27.730469 7.207031-35.625 19.1875l-100.90625 153.34375v-284.160157c0-12.035156-5.085938-23.511718-14.003907-31.597656-8.914062-8.089844-20.832031-12.035156-32.8125-10.863281-22.144531 2.699219-38.726562 21.605469-38.519531 43.914063v425.214843c-.078125 18.820313 12.253906 35.441407 30.285156 40.824219 4.011719 1.242188 8.1875 1.863281 12.382813 1.84375 14.355469.019531 27.753906-7.199219 35.628906-19.203125l143.570313-218.203125 143.574218 218.203125c7.875 12.003906 21.273438 19.222656 35.628906 19.203125 4.152344.023438 8.289063-.585938 12.261719-1.8125 7.601563-2.332031 14.402344-6.75 19.625-12.746094 5.699219 3.878906 12.417969 5.976563 19.3125 6.023438 18.898438.023437 34.425781-14.90625 35.148438-33.792969l6.519531-162.421875c11.429688-11.101562 17.933594-26.320312 18.0625-42.253906.128906-15.9375-6.132812-31.257813-17.378906-42.542969zm-55.824219 3.933594h38.910156l5.292969 133.453125c-15.722656-7.269531-33.839844-7.269531-49.5625 0zm45.054688-17.066406h-51.199219v-34.132813h51.199219zm-69.554688 434.144531c-2.347656.71875-4.789062 1.074219-7.242188 1.054688-8.601562.007812-16.621093-4.324219-21.335937-11.519532l-150.742187-229.03125c-1.671876-2.261718-4.3125-3.59375-7.125-3.59375-2.808594 0-5.453126 1.332032-7.125 3.59375l-150.742188 229.03125c-4.710938 7.195313-12.730469 11.527344-21.332031 11.519532-2.488281.019531-4.96875-.347657-7.347657-1.082032-10.851562-3.214844-18.285156-13.199218-18.25-24.515625v-425.214843c-.273437-13.539063 9.667969-25.125 23.089844-26.914063 7.199219-.769531 14.382813 1.601563 19.710938 6.5 5.339844 4.859375 8.390625 11.742187 8.398437 18.960937v312.664063c0 3.765625 2.472657 7.089844 6.082031 8.171875 3.609376 1.082031 7.503907-.332031 9.574219-3.480469l116.609375-177.152343c4.738282-7.183594 12.765625-11.507813 21.371094-11.507813s16.636719 4.324219 21.371094 11.507813l116.566406 177.152343c2.085938 3.113281 5.957031 4.503907 9.546875 3.425781 3.589844-1.078124 6.054687-4.371093 6.078125-8.117187v-312.664063c.003906-7.234374 3.066406-14.128906 8.429688-18.980468 5.367187-4.851563 12.53125-7.207032 19.730468-6.480469 2.523438.238281 4.988282.886719 7.304688 1.917969-.867188 2.050781-1.320313 4.25-1.332032 6.476562v34.132813c.019532 5.101562 2.332032 9.925781 6.296876 13.132812l-5.972657 149.589844c-11.25 11.285156-17.507812 26.605469-17.378906 42.542969.128906 15.933594 6.632813 31.152344 18.0625 42.253906l6.519531 162.457031c.234375 5.316407 1.675782 10.511719 4.214844 15.1875-3.292969 4.285157-7.851562 7.425781-13.03125 8.980469zm62.054688-24.902344c-.421876 9.691406-8.398438 17.332032-18.097657 17.332032s-17.679687-7.640626-18.101562-17.332032l-5.972657-149.851562c15.351563 6.835937 32.882813 6.835937 48.230469 0zm-18.097657-161.773437c-23.566406 0-42.667969-19.101563-42.667969-42.667969 0-23.5625 19.101563-42.667969 42.667969-42.667969 23.5625 0 42.664063 19.105469 42.664063 42.667969-.027344 23.554688-19.113282 42.640625-42.664063 42.667969zm0 0"/><path d="m460.800781 349.863281c0 4.714844-3.820312 8.535157-8.53125 8.535157-4.714843 0-8.535156-3.820313-8.535156-8.535157 0-4.710937 3.820313-8.53125 8.535156-8.53125 4.710938 0 8.53125 3.820313 8.53125 8.53125zm0 0"/><path d="m460.800781 375.464844c0 4.714844-3.820312 8.535156-8.53125 8.535156-4.714843 0-8.535156-3.820312-8.535156-8.535156 0-4.710938 3.820313-8.535156 8.535156-8.535156 4.710938 0 8.53125 3.824218 8.53125 8.535156zm0 0"/><path d="m460.800781 401.066406c0 4.710938-3.820312 8.53125-8.53125 8.53125-4.714843 0-8.535156-3.820312-8.535156-8.53125 0-4.714844 3.820313-8.535156 8.535156-8.535156 4.710938 0 8.53125 3.820312 8.53125 8.535156zm0 0"/><path d="m460.800781 426.664062c0 4.714844-3.820312 8.535157-8.53125 8.535157-4.714843 0-8.535156-3.820313-8.535156-8.535157 0-4.710937 3.820313-8.53125 8.535156-8.53125 4.710938 0 8.53125 3.820313 8.53125 8.53125zm0 0"/><path d="m460.800781 452.265625c0 4.710937-3.820312 8.53125-8.53125 8.53125-4.714843 0-8.535156-3.820313-8.535156-8.53125 0-4.714844 3.820313-8.535156 8.535156-8.535156 4.710938 0 8.53125 3.820312 8.53125 8.535156zm0 0"/></svg>