<svg height="503pt" viewBox="0 0 503 503.61017" width="503pt" xmlns="http://www.w3.org/2000/svg"><path d="m416.367188 134.296875-293.769532 293.769531h338.925782c18.542968 0 33.574218 15.03125 33.574218 33.574219 0 18.539063-15.03125 33.574219-33.574218 33.574219h-419.25c-13.46875-.023438-25.617188-8.085938-30.867188-20.488282-5.25-12.402343-2.582031-26.738281 6.777344-36.421874l-.421875-.417969 362.347656-362.347657h-337.835937c-18.542969 0-33.574219-15.03125-33.574219-33.570312 0-18.542969 15.03125-33.574219 33.574219-33.574219h419.25c18.511718 0 33.527343 14.980469 33.574218 33.488281v.421876c-.0625 10.207031-4.792968 19.820312-12.839844 26.101562l-65.46875 65.46875v.085938zm0 0" fill="#ad1457"/><path d="m382.457031 134.296875-293.769531 293.769531h338.929688c18.539062 0 33.570312 15.03125 33.570312 33.574219 0 18.539063-15.03125 33.574219-33.570312 33.574219h-385.34375c-13.46875-.023438-25.617188-8.085938-30.867188-20.488282-5.25-12.402343-2.582031-26.738281 6.777344-36.421874l-.421875-.417969 362.347656-362.347657h-337.835937c-18.542969 0-33.574219-15.03125-33.574219-33.570312 0-18.542969 15.03125-33.574219 33.574219-33.574219h385.34375c18.507812 0 33.527343 14.980469 33.570312 33.488281v.421876c-.0625 10.207031-4.792969 19.820312-12.839844 26.101562l-65.46875 65.46875v.085938zm0 0" fill="#e91e63"/><path d="m469.582031 323.148438c0 14.015624-14.773437 27.613281-30.550781 29.710937h-56.40625c-6.890625-.960937-13.378906-3.839844-18.714844-8.308594-6.949218-5.003906-11.292968-12.855469-11.835937-21.402343.605469-24.898438 17.792969-46.3125 41.96875-52.292969h33.574219c24.171874 5.980469 41.359374 27.394531 41.964843 52.292969zm0 0" fill="#607d8b"/><path d="m446.417969 480.441406c-9.40625 9.492188-22.226563 14.8125-35.589844 14.773438-4.246094-.015625-8.472656-.550782-12.589844-1.597656-8.722656-2.214844-16.675781-6.769532-22.996093-13.175782-11.808594-12.429687-16.40625-30.054687-12.171876-46.667968l16.953126-73.527344c.601562-2.546875 1.476562-5.023438 2.601562-7.386719 2.65625-5.023437 6.59375-9.25 11.417969-12.253906h33.574219c1.027343.59375 2.011718 1.269531 2.9375 2.015625.753906.585937 1.425781 1.257812 2.179687 1.847656 2.535156 2.441406 4.660156 5.273438 6.296875 8.390625 1.128906 2.363281 2 4.839844 2.601562 7.386719l16.953126 73.527344c4.234374 16.613281-.363282 34.238281-12.167969 46.667968zm0 0" fill="#607d8b"/><path d="m444.402344 323.148438c-.535156 8.484374-4.808594 16.292968-11.667969 21.320312-5.414063 4.460938-11.945313 7.363281-18.882813 8.390625h-31.226562c-6.890625-.960937-13.378906-3.839844-18.714844-8.308594-6.949218-5.003906-11.292968-12.855469-11.835937-21.402343.605469-24.898438 17.792969-46.3125 41.96875-52.292969h8.390625c24.175781 5.980469 41.363281 27.394531 41.96875 52.292969zm0 0" fill="#cfd8dc"/><path d="m421.234375 480.441406c-6.320313 6.40625-14.273437 10.960938-22.996094 13.175782-8.722656-2.214844-16.675781-6.769532-22.996093-13.175782-11.808594-12.429687-16.40625-30.054687-12.171876-46.667968l16.953126-73.527344c.601562-2.546875 1.476562-5.023438 2.601562-7.386719-6.890625-.960937-13.378906-3.839844-18.714844-8.308594 1.472656-1.523437 3.136719-2.851562 4.949219-3.945312h33.574219c1.03125.59375 2.015625 1.269531 2.9375 2.015625 3.503906 2.789062 6.390625 6.277344 8.480468 10.238281 1.125 2.363281 2 4.839844 2.601563 7.386719l16.953125 73.527344c4.234375 16.613281-.363281 34.238281-12.171875 46.667968zm0 0" fill="#cfd8dc"/><path d="m410.828125 251.804688c9.269531 0 16.789063 7.515624 16.789063 16.785156v92.328125c0 9.269531-7.519532 16.785156-16.789063 16.785156s-16.785156-7.515625-16.785156-16.785156v-92.328125c0-9.269532 7.515625-16.785156 16.785156-16.785156zm0 0" fill="#607d8b"/><path d="m427.617188 444.851562c0 9.273438-7.519532 16.789063-16.789063 16.789063s-16.785156-7.515625-16.785156-16.789063c0-9.269531 7.515625-16.785156 16.785156-16.785156s16.789063 7.515625 16.789063 16.785156zm0 0" fill="#607d8b"/><path d="m382.636719 361.253906c-.375 0-.75-.027344-1.117188-.074218-20.515625-2.722657-37.839843-20.144532-37.839843-38.03125.722656-28.628907 20.378906-53.289063 48.121093-60.382813 4.46875-1.238281 9.09375 1.382813 10.332031 5.851563 1.238282 4.46875-1.382812 9.09375-5.851562 10.332031-20.589844 4.886719-35.300781 23.039062-35.8125 44.199219 0 9.40625 11.304688 19.800781 23.257812 21.394531 4.371094.589843 7.539063 4.460937 7.253907 8.863281-.289063 4.402344-3.933594 7.832031-8.34375 7.847656zm0 0"/><path d="m439.023438 361.253906c-4.414063-.015625-8.058594-3.445312-8.34375-7.847656-.289063-4.402344 2.878906-8.273438 7.25-8.863281 11.953124-1.59375 23.257812-11.988281 23.257812-21.394531-.511719-21.160157-15.222656-39.3125-35.8125-44.199219-4.46875-1.238281-7.089844-5.863281-5.851562-10.332031 1.238281-4.46875 5.863281-7.089844 10.332031-5.851563 27.746093 7.09375 47.398437 31.753906 48.121093 60.382813 0 17.886718-17.324218 35.308593-37.839843 38.03125-.367188.046874-.742188.074218-1.113281.074218zm0 0"/><path d="m410.828125 386.097656c-13.90625 0-25.179687-11.273437-25.179687-25.179687v-92.328125c0-13.90625 11.273437-25.179688 25.179687-25.179688s25.179687 11.273438 25.179687 25.179688v92.328125c0 13.90625-11.273437 25.179687-25.179687 25.179687zm0-125.902344c-4.636719 0-8.394531 3.757813-8.394531 8.394532v92.328125c0 4.636719 3.757812 8.394531 8.394531 8.394531s8.394531-3.757812 8.394531-8.394531v-92.328125c0-4.636719-3.757812-8.394532-8.394531-8.394532zm0 0"/><path d="m410.828125 226.621094h-25.179687c-4.636719 0-8.394532-3.757813-8.394532-8.390625 0-4.636719 3.757813-8.394531 8.394532-8.394531h25.179687c4.636719 0 8.394531 3.757812 8.394531 8.394531 0 4.632812-3.757812 8.390625-8.394531 8.390625zm0 0"/><path d="m436.007812 209.835938h-25.179687c-4.636719 0-8.394531-3.757813-8.394531-8.394532 0-4.632812 3.757812-8.390625 8.394531-8.390625h25.179687c4.636719 0 8.394532 3.757813 8.394532 8.390625 0 4.636719-3.757813 8.394532-8.394532 8.394532zm0 0"/><path d="m410.828125 193.050781h-25.179687c-4.636719 0-8.394532-3.757812-8.394532-8.394531s3.757813-8.394531 8.394532-8.394531h25.179687c4.636719 0 8.394531 3.757812 8.394531 8.394531s-3.757812 8.394531-8.394531 8.394531zm0 0"/><path d="m436.007812 176.261719h-25.179687c-4.636719 0-8.394531-3.757813-8.394531-8.394531 0-4.632813 3.757812-8.390626 8.394531-8.390626h25.179687c4.636719 0 8.394532 3.757813 8.394532 8.390626 0 4.636718-3.757813 8.394531-8.394532 8.394531zm0 0"/><path d="m410.828125 159.476562h-11.246094c-4.636719 0-8.394531-3.757812-8.394531-8.394531s3.757812-8.394531 8.394531-8.394531h11.246094c4.636719 0 8.394531 3.757812 8.394531 8.394531s-3.757812 8.394531-8.394531 8.394531zm0 0"/><path d="m436.007812 142.6875h-19.640624c-4.632813 0-8.390626-3.757812-8.390626-8.390625 0-4.636719 3.757813-8.394531 8.390626-8.394531h19.640624c4.636719 0 8.394532 3.757812 8.394532 8.394531 0 4.632813-3.757813 8.390625-8.394532 8.390625zm0 0"/><path d="m410.828125 260.195312c-4.636719 0-8.394531-3.757812-8.394531-8.390624v-111.96875c0-4.636719 3.757812-8.394532 8.394531-8.394532s8.394531 3.757813 8.394531 8.394532v111.96875c0 4.632812-3.757812 8.390624-8.394531 8.390624zm0 0"/><path d="m410.828125 470.03125c-13.90625 0-25.179687-11.273438-25.179687-25.179688s11.273437-25.179687 25.179687-25.179687 25.179687 11.273437 25.179687 25.179687-11.273437 25.179688-25.179687 25.179688zm0-33.570312c-4.636719 0-8.394531 3.757812-8.394531 8.390624 0 4.636719 3.757812 8.394532 8.394531 8.394532s8.394531-3.757813 8.394531-8.394532c0-4.632812-3.757812-8.390624-8.394531-8.390624zm0 0"/><path d="m410.828125 503.605469c-17.839844.1875-34.742187-7.957031-45.714844-22.027344-10.96875-14.066406-14.746093-32.445313-10.21875-49.703125l16.945313-73.476562c.742187-3.109376 1.800781-6.136719 3.164062-9.03125 3.371094-6.507813 8.429688-11.992188 14.648438-15.871094 2.550781-1.800782 5.894531-2.035156 8.675781-.609375 2.777344 1.429687 4.535156 4.285156 4.558594 7.410156.019531 3.125-1.695313 6-4.457031 7.46875-3.542969 2.226563-6.441407 5.351563-8.390626 9.054687-.773437 1.703126-1.375 3.472657-1.804687 5.289063l-16.972656 73.5625c-4.445313 16.632813 1.984375 34.273437 16.09375 44.148437 14.105469 9.875 32.882812 9.875 46.988281 0 14.109375-9.875 20.539062-27.515624 16.09375-44.148437l-16.945312-73.535156c-.472657-1.980469-1.152344-3.90625-2.03125-5.742188-1.535157-2.800781-3.617188-5.261719-6.128907-7.234375-.59375-.484375-1.230469-.917968-1.898437-1.292968-4.007813-2.332032-5.367188-7.472657-3.035156-11.484376 2.332031-4.007812 7.472656-5.367187 11.480468-3.039062 1.414063.824219 2.765625 1.757812 4.039063 2.789062 4.386719 3.5 7.996093 7.875 10.597656 12.851563 1.453125 3.003906 2.578125 6.160156 3.359375 9.40625l16.945312 73.503906c4.523438 17.261719.730469 35.644531-10.25 49.710938-10.980468 14.066406-27.898437 22.203125-45.742187 22zm0 0"/><path d="m91.878906 117.507812h-25.179687c-4.636719 0-8.394531-3.757812-8.394531-8.394531 0-4.632812 3.757812-8.390625 8.394531-8.390625h25.179687c4.632813 0 8.390625 3.757813 8.390625 8.390625 0 4.636719-3.757812 8.394531-8.390625 8.394531zm0 0"/><path d="m117.058594 134.296875h-25.179688c-4.636718 0-8.394531-3.757813-8.394531-8.394531 0-4.636719 3.757813-8.394532 8.394531-8.394532h25.179688c4.636718 0 8.394531 3.757813 8.394531 8.394532 0 4.636718-3.757813 8.394531-8.394531 8.394531zm0 0"/><path d="m91.878906 151.082031h-25.179687c-4.636719 0-8.394531-3.757812-8.394531-8.394531 0-4.632812 3.757812-8.390625 8.394531-8.390625h25.179687c4.632813 0 8.390625 3.757813 8.390625 8.390625 0 4.636719-3.757812 8.394531-8.390625 8.394531zm0 0"/><path d="m117.058594 167.867188h-25.179688c-4.636718 0-8.394531-3.757813-8.394531-8.390626 0-4.636718 3.757813-8.394531 8.394531-8.394531h25.179688c4.636718 0 8.394531 3.757813 8.394531 8.394531 0 4.632813-3.757813 8.390626-8.394531 8.390626zm0 0"/><path d="m91.878906 184.65625h-25.179687c-4.636719 0-8.394531-3.757812-8.394531-8.394531s3.757812-8.394531 8.394531-8.394531h25.179687c4.632813 0 8.390625 3.757812 8.390625 8.394531s-3.757812 8.394531-8.390625 8.394531zm0 0"/><path d="m117.058594 201.441406h-25.179688c-4.636718 0-8.394531-3.757812-8.394531-8.390625 0-4.636719 3.757813-8.394531 8.394531-8.394531h25.179688c4.636718 0 8.394531 3.757812 8.394531 8.394531 0 4.632813-3.757813 8.390625-8.394531 8.390625zm0 0"/><path d="m91.878906 218.230469h-25.179687c-4.636719 0-8.394531-3.757813-8.394531-8.394531 0-4.636719 3.757812-8.394532 8.394531-8.394532h25.179687c4.632813 0 8.390625 3.757813 8.390625 8.394532 0 4.636718-3.757812 8.394531-8.390625 8.394531zm0 0"/><path d="m117.058594 235.015625h-25.179688c-4.636718 0-8.394531-3.757813-8.394531-8.394531 0-4.632813 3.757813-8.390625 8.394531-8.390625h25.179688c4.636718 0 8.394531 3.757812 8.394531 8.390625 0 4.636718-3.757813 8.394531-8.394531 8.394531zm0 0"/><path d="m91.878906 369.3125c-4.636718 0-8.394531-3.757812-8.394531-8.394531v-285.378907c0-4.632812 3.757813-8.390624 8.394531-8.390624 4.632813 0 8.390625 3.757812 8.390625 8.390624v285.378907c0 4.636719-3.757812 8.394531-8.390625 8.394531zm0 0"/><path d="m91.878906 251.804688h-25.179687c-4.636719 0-8.394531-3.757813-8.394531-8.394532 0-4.636718 3.757812-8.394531 8.394531-8.394531h25.179687c4.632813 0 8.390625 3.757813 8.390625 8.394531 0 4.636719-3.757812 8.394532-8.390625 8.394532zm0 0"/><path d="m117.058594 268.589844h-25.179688c-4.636718 0-8.394531-3.757813-8.394531-8.394532 0-4.632812 3.757813-8.390624 8.394531-8.390624h25.179688c4.636718 0 8.394531 3.757812 8.394531 8.390624 0 4.636719-3.757813 8.394532-8.394531 8.394532zm0 0"/><path d="m91.878906 285.378906h-25.179687c-4.636719 0-8.394531-3.757812-8.394531-8.394531s3.757812-8.394531 8.394531-8.394531h25.179687c4.632813 0 8.390625 3.757812 8.390625 8.394531s-3.757812 8.394531-8.390625 8.394531zm0 0"/><path d="m117.058594 302.164062h-25.179688c-4.636718 0-8.394531-3.757812-8.394531-8.394531 0-4.632812 3.757813-8.390625 8.394531-8.390625h25.179688c4.636718 0 8.394531 3.757813 8.394531 8.390625 0 4.636719-3.757813 8.394531-8.394531 8.394531zm0 0"/><path d="m91.878906 318.949219h-25.179687c-4.636719 0-8.394531-3.757813-8.394531-8.390625 0-4.636719 3.757812-8.394532 8.394531-8.394532h25.179687c4.632813 0 8.390625 3.757813 8.390625 8.394532 0 4.632812-3.757812 8.390625-8.390625 8.390625zm0 0"/><path d="m503.492188 41.882812c-.046876-23.144531-18.820313-41.882812-41.96875-41.882812h-419.25c-23.179688 0-41.96875 18.789062-41.96875 41.96875 0 23.175781 18.789062 41.964844 41.96875 41.964844h317.574218l-348.019531 348.019531c-.796875.800781-1.40625 1.773437-1.777344 2.84375-6.316406 7.515625-9.765625 17.027344-9.746093 26.84375-.015626 11.132813 4.402343 21.816406 12.273437 29.691406 7.875 7.875 18.558594 12.289063 29.695313 12.273438h419.25c23.179687 0 41.96875-18.789063 41.96875-41.964844 0-23.179687-18.789063-41.96875-41.96875-41.96875h-4.277344c-4.636719 0-8.394532 3.757813-8.394532 8.394531 0 4.632813 3.757813 8.394532 8.394532 8.394532h4.277344c13.90625 0 25.183593 11.273437 25.183593 25.179687s-11.277343 25.179687-25.183593 25.179687h-419.25c-6.664063.023438-13.0625-2.609374-17.777344-7.320312-4.734375-4.738281-7.394532-11.164062-7.402344-17.859375-.011719-6.535156 2.542969-12.8125 7.109375-17.484375.667969-.691406 1.199219-1.507812 1.558594-2.402344l360.28125-360.277344c2.398437-2.402343 3.117187-6.011718 1.816406-9.148437-1.296875-3.136719-4.355469-5.179687-7.75-5.179687h-337.835937c-6.664063.023437-13.0625-2.609376-17.777344-7.320313-7.238282-7.191406-9.421875-18.042969-5.527344-27.472656 3.898438-9.433594 13.097656-15.582031 23.304688-15.570313h419.25c6.722656.015625 13.15625 2.710938 17.882812 7.488282 4.726562 4.777343 7.355469 11.242187 7.300781 17.960937-.039062 7.652344-3.585937 14.859375-9.621093 19.558594-.269532.207031-.527344.433593-.761719.679687l-359.660157 359.660156c-2.398437 2.398438-3.117187 6.007813-1.820312 9.144532 1.300781 3.136718 4.359375 5.179687 7.753906 5.183594h241.816406c4.632813 0 8.390626-3.761719 8.390626-8.394532 0-4.636718-3.757813-8.394531-8.390626-8.394531h-221.589843l344.972656-344.96875c9.957031-7.976563 15.738281-20.058594 15.695313-32.820313zm0 0"/></svg>